<svg width="16" height="16" viewBox="0 0 16 16" fill="none" xmlns="http://www.w3.org/2000/svg">
<path d="M3 14V2H7.24214C8.71164 2 9.82625 2.28022 10.586 2.84066C11.3457 3.3956 11.7255 4.21154 11.7255 5.28846C11.7255 5.87637 11.573 6.3956 11.268 6.84615C10.963 7.29121 10.5388 7.61813 9.99538 7.82692C10.6165 7.98077 11.1044 8.29121 11.4593 8.75824C11.8198 9.22528 12 9.7967 12 10.4725C12 11.6264 11.6285 12.5 10.8854 13.0934C10.1423 13.6868 9.08318 13.989 7.70795 14H3ZM5.49538 8.77473V12.0137H7.63309C8.22089 12.0137 8.67837 11.8764 9.00555 11.6016C9.33826 11.3214 9.50462 10.9368 9.50462 10.4478C9.50462 9.3489 8.93068 8.79121 7.78281 8.77473H5.49538ZM5.49538 7.02747H7.34196C8.60074 7.00549 9.23013 6.50824 9.23013 5.53571C9.23013 4.99176 9.06932 4.60165 8.74769 4.36538C8.43161 4.12363 7.92976 4.00275 7.24214 4.00275H5.49538V7.02747Z" fill="black"/>
</svg>
