<svg width="16" height="16" viewBox="0 0 16 16" fill="none" xmlns="http://www.w3.org/2000/svg">
<path d="M6.27189 13.9438L4.29466 14C4.17224 14 4.09253 13.9755 4.05552 13.9266C4.01851 13.8805 4 13.7898 4 13.6544C4 13.5191 4.02278 13.437 4.06833 13.4082C4.11673 13.3765 4.21637 13.3607 4.36726 13.3607H5.37936C5.4847 13.0382 5.76797 11.3146 6.22918 8.19006C6.69039 5.06263 6.921 3.35637 6.921 3.07127C6.921 2.7833 6.88541 2.63931 6.81423 2.63931H5.64413C5.479 2.63931 5.39644 2.55148 5.39644 2.37581C5.39644 2.20014 5.42206 2.09359 5.47331 2.05616C5.52456 2.01872 5.61566 2 5.74662 2C5.74662 2 6.42847 2.01872 7.79217 2.05616L9.70107 2C9.82349 2 9.9032 2.02448 9.94021 2.07343C9.98007 2.12239 10 2.21454 10 2.34989C10 2.48524 9.9758 2.56731 9.9274 2.59611C9.88185 2.62491 9.78363 2.63931 9.63274 2.63931H8.65053C8.52527 2.91289 8.24342 4.60763 7.80498 7.72354C7.36655 10.8366 7.14733 12.6566 7.14733 13.1836C7.14733 13.3017 7.1758 13.3607 7.23274 13.3607H8.39004C8.48968 13.3607 8.55516 13.3808 8.58648 13.4212C8.61779 13.4615 8.63345 13.5436 8.63345 13.6674C8.63345 13.7912 8.61779 13.8776 8.58648 13.9266C8.55516 13.9755 8.48968 14 8.39004 14L6.27189 13.9438Z" fill="black"/>
</svg>
