<svg width="16" height="16" viewBox="0 0 16 16" fill="none" xmlns="http://www.w3.org/2000/svg">
<path fill-rule="evenodd" clip-rule="evenodd" d="M7.52484 6.42458C6.91739 6.14126 6.22252 6.10974 5.59189 6.33692C4.96115 6.56414 4.44593 7.03169 4.15874 7.63746L3.23834 9.59347C2.95487 10.2011 2.92299 10.8968 3.1502 11.5277C3.37734 12.1583 3.84463 12.6735 4.45012 12.9608C5.05758 13.244 5.7524 13.2755 6.383 13.0484C7.01407 12.8211 7.52953 12.3533 7.81679 11.7471C7.93506 11.4976 8.23322 11.3912 8.48275 11.5095C8.73229 11.6277 8.83871 11.9259 8.72044 12.1754C8.32002 13.0203 7.60151 13.6724 6.72187 13.9892C5.84223 14.306 4.87295 14.2619 4.02577 13.8663L4.23729 13.4133L4.02315 13.8651C3.17827 13.4647 2.5262 12.7462 2.20937 11.8665C1.89254 10.9869 1.93671 10.0176 2.33223 9.17044L2.33287 9.16907L3.25476 7.20987C3.65504 6.36503 4.37343 5.71295 5.25297 5.3961C6.13252 5.07926 7.10171 5.1234 7.94881 5.5189L7.73728 5.97196L7.95062 5.51975C8.44568 5.7533 8.87961 6.09882 9.21811 6.52899C9.55662 6.95916 9.7904 7.46218 9.90098 7.99828C9.95676 8.26873 9.78274 8.5332 9.51229 8.58898C9.24184 8.64476 8.97738 8.47074 8.92159 8.20029C8.84235 7.81612 8.67482 7.45565 8.43225 7.14739C8.18988 6.83938 7.87924 6.59194 7.52484 6.42458Z" fill="#19192E"/>
<path fill-rule="evenodd" clip-rule="evenodd" d="M11.5478 3.03772C10.9403 2.75455 10.2455 2.72308 9.6149 2.95021C8.98384 3.1775 8.46837 3.6453 8.18111 4.25142C8.06284 4.50096 7.76468 4.60738 7.51515 4.48911C7.26561 4.37085 7.1592 4.07269 7.27746 3.82315C7.67788 2.97827 8.39639 2.3262 9.27603 2.00937C10.1557 1.69255 11.125 1.73671 11.9721 2.13223L11.9748 2.13347C12.8195 2.5339 13.4714 3.25228 13.7882 4.13174C14.105 5.01119 14.061 5.98028 13.6657 6.82738L13.665 6.82884L12.7437 8.78684L12.7431 8.78809C12.3427 9.63297 11.6242 10.285 10.7445 10.6019C9.8649 10.9187 8.89562 10.8745 8.04844 10.479L8.25997 10.0259L8.04685 10.4783C7.62194 10.2781 7.24138 9.99492 6.92754 9.64545C6.61371 9.29599 6.37294 8.88728 6.21941 8.44338C6.12915 8.18241 6.26755 7.89768 6.52852 7.80742C6.78949 7.71716 7.07423 7.85555 7.16449 8.11652C7.27442 8.43439 7.44683 8.72705 7.67156 8.97729C7.8961 9.22732 8.16835 9.42996 8.47231 9.57329C9.07988 9.85667 9.7749 9.88822 10.4057 9.66103C11.0365 9.43381 11.5519 8.96621 11.8392 8.36035L12.7595 6.40453C13.0428 5.79699 13.0746 5.10133 12.8474 4.47065C12.6203 3.84018 12.1531 3.3251 11.5478 3.03772Z" fill="#19192E"/>
</svg>
