<svg width="16" height="16" viewBox="0 0 16 16" fill="none" xmlns="http://www.w3.org/2000/svg">
<path fill-rule="evenodd" clip-rule="evenodd" d="M1.875 1.9375C1.35723 1.9375 0.9375 2.35723 0.9375 2.875C0.9375 3.39277 1.35723 3.8125 1.875 3.8125C2.39277 3.8125 2.8125 3.39277 2.8125 2.875C2.8125 2.35723 2.39277 1.9375 1.875 1.9375ZM0 2.875C0 1.83947 0.839466 1 1.875 1C2.91053 1 3.75 1.83947 3.75 2.875C3.75 3.91053 2.91053 4.75 1.875 4.75C0.839466 4.75 0 3.91053 0 2.875ZM4.6875 2.875C4.6875 2.61612 4.89737 2.40625 5.15625 2.40625H14.5312C14.7901 2.40625 15 2.61612 15 2.875C15 3.13388 14.7901 3.34375 14.5312 3.34375H5.15625C4.89737 3.34375 4.6875 3.13388 4.6875 2.875ZM1.875 7.5625C1.35723 7.5625 0.9375 7.98223 0.9375 8.5C0.9375 9.01777 1.35723 9.4375 1.875 9.4375C2.39277 9.4375 2.8125 9.01777 2.8125 8.5C2.8125 7.98223 2.39277 7.5625 1.875 7.5625ZM0 8.5C0 7.46447 0.839466 6.625 1.875 6.625C2.91053 6.625 3.75 7.46447 3.75 8.5C3.75 9.53553 2.91053 10.375 1.875 10.375C0.839466 10.375 0 9.53553 0 8.5ZM4.6875 8.5C4.6875 8.24112 4.89737 8.03125 5.15625 8.03125H14.5312C14.7901 8.03125 15 8.24112 15 8.5C15 8.75888 14.7901 8.96875 14.5312 8.96875H5.15625C4.89737 8.96875 4.6875 8.75888 4.6875 8.5ZM1.875 13.1875C1.35723 13.1875 0.9375 13.6072 0.9375 14.125C0.9375 14.6428 1.35723 15.0625 1.875 15.0625C2.39277 15.0625 2.8125 14.6428 2.8125 14.125C2.8125 13.6072 2.39277 13.1875 1.875 13.1875ZM0 14.125C0 13.0895 0.839466 12.25 1.875 12.25C2.91053 12.25 3.75 13.0895 3.75 14.125C3.75 15.1605 2.91053 16 1.875 16C0.839466 16 0 15.1605 0 14.125ZM4.6875 14.125C4.6875 13.8661 4.89737 13.6562 5.15625 13.6562H14.5312C14.7901 13.6562 15 13.8661 15 14.125C15 14.3839 14.7901 14.5938 14.5312 14.5938H5.15625C4.89737 14.5938 4.6875 14.3839 4.6875 14.125Z" fill="black"/>
</svg>
