<svg width="16" height="16" viewBox="0 0 16 16" fill="none" xmlns="http://www.w3.org/2000/svg">
<path fill-rule="evenodd" clip-rule="evenodd" d="M4.6875 2.875C4.6875 2.61612 4.89737 2.40625 5.15625 2.40625H14.5312C14.7901 2.40625 15 2.61612 15 2.875C15 3.13388 14.7901 3.34375 14.5312 3.34375H5.15625C4.89737 3.34375 4.6875 3.13388 4.6875 2.875ZM4.6875 8.5C4.6875 8.24112 4.89737 8.03125 5.15625 8.03125H14.5312C14.7901 8.03125 15 8.24112 15 8.5C15 8.75888 14.7901 8.96875 14.5312 8.96875H5.15625C4.89737 8.96875 4.6875 8.75888 4.6875 8.5ZM4.6875 14.125C4.6875 13.8661 4.89737 13.6562 5.15625 13.6562H14.5312C14.7901 13.6562 15 13.8661 15 14.125C15 14.3839 14.7901 14.5938 14.5312 14.5938H5.15625C4.89737 14.5938 4.6875 14.3839 4.6875 14.125Z" fill="black"/>
<path d="M1.87012 3.97998H2.26562C2.37467 3.97998 2.45361 4.00033 2.50244 4.04102C2.55127 4.08171 2.57568 4.14844 2.57568 4.24121C2.57568 4.33236 2.55208 4.39827 2.50488 4.43896C2.45768 4.47966 2.37793 4.5 2.26562 4.5H0.825195C0.712891 4.5 0.633138 4.47966 0.585938 4.43896C0.538737 4.39827 0.515137 4.33236 0.515137 4.24121C0.515137 4.14844 0.538737 4.08171 0.585938 4.04102C0.634766 4.00033 0.714518 3.97998 0.825195 3.97998H1.2793V1.91943L1.00586 1.99023C0.963542 2 0.928548 2.00732 0.900879 2.01221C0.87321 2.01709 0.852865 2.01953 0.839844 2.01953C0.773112 2.01953 0.721029 1.99837 0.683594 1.95605C0.647786 1.91374 0.629883 1.85352 0.629883 1.77539C0.629883 1.71842 0.650228 1.67041 0.690918 1.63135C0.731608 1.59229 0.794271 1.56217 0.878906 1.54102L1.48438 1.375C1.53483 1.36198 1.57633 1.35221 1.60889 1.3457C1.64144 1.33919 1.66829 1.33594 1.68945 1.33594C1.75456 1.33594 1.80094 1.35384 1.82861 1.38965C1.85628 1.42546 1.87012 1.48568 1.87012 1.57031V3.97998Z" fill="black"/>
<path d="M1.17432 9.45068H2.02881V9.43604C2.02881 9.35303 2.05078 9.29118 2.09473 9.25049C2.1403 9.2098 2.20703 9.18945 2.29492 9.18945C2.36654 9.18945 2.42188 9.2098 2.46094 9.25049C2.5 9.28955 2.51953 9.3457 2.51953 9.41895V9.45068L2.5 9.8291C2.49674 9.90397 2.48454 9.95117 2.46338 9.9707C2.44385 9.99023 2.40804 10 2.35596 10H0.600586C0.506185 10 0.432943 9.97966 0.380859 9.93896C0.330404 9.89827 0.305176 9.8405 0.305176 9.76562C0.305176 9.70378 0.320638 9.64355 0.351562 9.58496C0.384115 9.52474 0.435384 9.46126 0.505371 9.39453L1.49902 8.43506C1.60645 8.33089 1.6862 8.22673 1.73828 8.12256C1.79199 8.01839 1.81885 7.91423 1.81885 7.81006C1.81885 7.66357 1.78304 7.55452 1.71143 7.48291C1.64144 7.4113 1.53402 7.37549 1.38916 7.37549C1.30452 7.37549 1.22884 7.38851 1.16211 7.41455C1.09701 7.43896 1.04655 7.47396 1.01074 7.51953C0.991211 7.54232 0.967611 7.57731 0.939941 7.62451C0.861816 7.75146 0.775553 7.81494 0.681152 7.81494C0.599772 7.81494 0.537923 7.78809 0.495605 7.73438C0.454915 7.68066 0.43457 7.60091 0.43457 7.49512C0.43457 7.38607 0.447591 7.30469 0.473633 7.25098C0.499674 7.19727 0.551758 7.14355 0.629883 7.08984C0.756836 7.00521 0.890299 6.94255 1.03027 6.90186C1.17188 6.86117 1.32487 6.84082 1.48926 6.84082C1.79688 6.84082 2.0402 6.92383 2.21924 7.08984C2.3999 7.25586 2.49023 7.47884 2.49023 7.75879C2.49023 7.94596 2.44303 8.12581 2.34863 8.29834C2.25586 8.46924 2.111 8.64014 1.91406 8.81104L1.17432 9.45068Z" fill="black"/>
<path d="M1.9458 13.7397C2.13298 13.7983 2.27214 13.8911 2.36328 14.0181C2.45443 14.1434 2.5 14.307 2.5 14.5088C2.5 14.8132 2.39665 15.0549 2.18994 15.2339C1.98486 15.4113 1.70492 15.5 1.3501 15.5C1.06364 15.5 0.826823 15.4528 0.639648 15.3584C0.452474 15.264 0.358887 15.1493 0.358887 15.0142C0.358887 14.9344 0.384115 14.8701 0.43457 14.8213C0.486654 14.7708 0.555013 14.7456 0.639648 14.7456C0.680339 14.7456 0.783691 14.7822 0.949707 14.8555C1.11572 14.9287 1.26221 14.9653 1.38916 14.9653C1.54215 14.9653 1.65934 14.9246 1.74072 14.8433C1.82373 14.7603 1.86523 14.6423 1.86523 14.4893C1.86523 14.3249 1.83024 14.2077 1.76025 14.1377C1.69189 14.0677 1.56006 14.0286 1.36475 14.0205C1.26221 14.0173 1.19303 13.9977 1.15723 13.9619C1.12305 13.9245 1.10596 13.8586 1.10596 13.7642C1.10596 13.634 1.17594 13.5591 1.31592 13.5396C1.33545 13.5379 1.3501 13.5363 1.35986 13.5347C1.53564 13.5103 1.64958 13.4688 1.70166 13.4102C1.75374 13.3499 1.77979 13.2531 1.77979 13.1196C1.77979 13.0041 1.74805 12.9146 1.68457 12.8511C1.62272 12.786 1.53483 12.7534 1.4209 12.7534C1.30046 12.7534 1.16536 12.7917 1.01562 12.8682C0.865885 12.943 0.762533 12.9805 0.705566 12.9805C0.64209 12.9805 0.59082 12.9601 0.551758 12.9194C0.514323 12.8771 0.495605 12.8242 0.495605 12.7607C0.495605 12.6224 0.591634 12.5036 0.783691 12.4043C0.975749 12.305 1.21257 12.2554 1.49414 12.2554C1.77734 12.2554 2.00277 12.3286 2.17041 12.4751C2.33968 12.6216 2.42432 12.8161 2.42432 13.0586C2.42432 13.2181 2.38525 13.3532 2.30713 13.4639C2.23063 13.5729 2.11019 13.6649 1.9458 13.7397Z" fill="black"/>
</svg>
