<svg width="16" height="16" viewBox="0 0 16 16" fill="none" xmlns="http://www.w3.org/2000/svg">
<path fill-rule="evenodd" clip-rule="evenodd" d="M7.618 2C7.33944 1.99994 7.06637 2.07746 6.82938 2.22385ZM7.61785 3C7.52498 2.99997 7.43394 3.02581 7.35493 3.07462C7.27592 3.12342 7.21206 3.19327 7.17052 3.27633L6.44725 4.72352C6.36258 4.89296 6.18942 5 6 5H1.5C1.36739 5 1.24021 5.05268 1.14645 5.14645C1.05268 5.24021 1 5.36739 1 5.5V13.5C1 13.6326 1.05268 13.7598 1.14645 13.8536C1.24022 13.9473 1.36739 14 1.5 14H14.5C14.6326 14 14.7598 13.9473 14.8536 13.8536C14.9473 13.7598 15 13.6326 15 13.5V5.5C15 5.36739 14.9473 5.24021 14.8536 5.14645C14.7598 5.05268 14.6326 5 14.5 5H13C12.8106 5 12.6374 4.89296 12.5527 4.72352L11.8295 3.27633C11.7879 3.19334 11.724 3.1234 11.6451 3.07462C11.5661 3.02581 11.475 2.99997 11.3821 3H7.61785ZM6 4H4V3.5C4 3.22386 3.77614 3 3.5 3C3.22386 3 3 3.22386 3 3.5V4H1.5C1.10218 4 0.720644 4.15804 0.43934 4.43934C0.158035 4.72064 0 5.10218 0 5.5V13.5C0 13.8978 0.158035 14.2794 0.43934 14.5607C0.720644 14.842 1.10217 15 1.5 15H14.5C14.8978 15 15.2794 14.842 15.5607 14.5607C15.842 14.2794 16 13.8978 16 13.5V5.5C16 5.10217 15.842 4.72064 15.5607 4.43934C15.2794 4.15804 14.8978 4 14.5 4H13.3091L12.7239 2.82914C12.5993 2.57996 12.4077 2.37028 12.1706 2.22385C11.9336 2.07746 11.6606 1.99994 11.382 2H7.618M6 4H5.69092L6.27608 2.82914C6.40071 2.57996 6.59235 2.37028 6.82938 2.22385M7.96927 5.30448C8.45457 5.10346 8.97471 5 9.5 5C10.0253 5 10.5454 5.10346 11.0307 5.30448C11.516 5.5055 11.957 5.80014 12.3284 6.17157C12.6999 6.54301 12.9945 6.98396 13.1955 7.46927C13.3965 7.95457 13.5 8.47471 13.5 9C13.5 9.52529 13.3965 10.0454 13.1955 10.5307C12.9945 11.016 12.6999 11.457 12.3284 11.8284C11.957 12.1999 11.516 12.4945 11.0307 12.6955C10.5454 12.8965 10.0253 13 9.5 13C8.97471 13 8.45457 12.8965 7.96927 12.6955C7.48396 12.4945 7.04301 12.1999 6.67157 11.8284C6.30014 11.457 6.0055 11.016 5.80448 10.5307C5.60346 10.0454 5.5 9.52529 5.5 9C5.5 8.47471 5.60346 7.95457 5.80448 7.46927C6.0055 6.98396 6.30014 6.54301 6.67157 6.17157C7.04301 5.80014 7.48396 5.5055 7.96927 5.30448ZM9.5 6C9.10603 6 8.71593 6.0776 8.35195 6.22836C7.98797 6.37913 7.65725 6.6001 7.37868 6.87868C7.1001 7.15725 6.87913 7.48797 6.72836 7.85195C6.5776 8.21593 6.5 8.60603 6.5 9C6.5 9.39397 6.5776 9.78407 6.72836 10.1481C6.87913 10.512 7.1001 10.8427 7.37868 11.1213C7.65726 11.3999 7.98797 11.6209 8.35195 11.7716C8.71593 11.9224 9.10603 12 9.5 12C9.89397 12 10.2841 11.9224 10.6481 11.7716C11.012 11.6209 11.3427 11.3999 11.6213 11.1213C11.8999 10.8427 12.1209 10.512 12.2716 10.1481C12.4224 9.78407 12.5 9.39397 12.5 9C12.5 8.60603 12.4224 8.21593 12.2716 7.85195C12.1209 7.48797 11.8999 7.15726 11.6213 6.87868C11.3427 6.6001 11.012 6.37913 10.6481 6.22836C10.2841 6.0776 9.89397 6 9.5 6ZM2.79877 6.9952C2.84691 6.98562 2.89156 6.962 2.92678 6.92678C2.962 6.89156 2.98562 6.84691 2.9952 6.79877C2.99837 6.78283 3 6.7665 3 6.75C3 6.71701 2.99347 6.68451 2.98097 6.65433C2.97473 6.63927 2.96701 6.62479 2.95787 6.61111C2.93954 6.58368 2.91606 6.56028 2.88889 6.54213C2.87534 6.53308 2.86087 6.52533 2.84567 6.51903C2.81519 6.5064 2.78267 6.5 2.75 6.5C2.7337 6.5 2.71737 6.50159 2.70123 6.5048C2.65274 6.51445 2.60819 6.53826 2.57322 6.57322C2.53826 6.60819 2.51445 6.65273 2.5048 6.70123C2.50159 6.71737 2.5 6.7337 2.5 6.75C2.5 6.78267 2.50641 6.81519 2.51903 6.84567C2.52533 6.86087 2.53308 6.87534 2.54213 6.88889C2.56028 6.91606 2.58368 6.93954 2.61111 6.95787C2.62479 6.96701 2.63927 6.97473 2.65433 6.98097C2.68451 6.99347 2.71701 7 2.75 7C2.7665 7 2.78283 6.99837 2.79877 6.9952ZM2.21967 6.21967C2.36032 6.07902 2.55109 6 2.75 6C2.89834 6 3.04334 6.04399 3.16668 6.1264C3.29001 6.20881 3.38614 6.32594 3.44291 6.46299C3.49967 6.60003 3.51453 6.75083 3.48559 6.89632C3.45665 7.0418 3.38522 7.17544 3.28033 7.28033C3.17544 7.38522 3.0418 7.45665 2.89632 7.48559C2.75084 7.51453 2.60004 7.49968 2.46299 7.44291C2.32594 7.38614 2.20881 7.29001 2.1264 7.16668C2.04399 7.04334 2 6.89834 2 6.75C2 6.55109 2.07902 6.36032 2.21967 6.21967Z" fill="black"/>
</svg>
