<svg width="16" height="16" viewBox="0 0 16 16" fill="none" xmlns="http://www.w3.org/2000/svg">
<g clip-path="url(#clip0_756_664)">
<path fill-rule="evenodd" clip-rule="evenodd" d="M1.5 1C1.36739 1 1.24021 1.05268 1.14645 1.14645C1.05268 1.24021 1 1.36739 1 1.5V11.5C1 11.6326 1.05268 11.7598 1.14645 11.8536C1.24022 11.9473 1.36739 12 1.5 12H3.5C3.77614 12 4 12.2239 4 12.5V14.5L7.2 12.1C7.28655 12.0351 7.39181 12 7.5 12H14.5C14.6326 12 14.7598 11.9473 14.8536 11.8536C14.9473 11.7598 15 11.6326 15 11.5V1.5C15 1.36739 14.9473 1.24022 14.8536 1.14645C14.7598 1.05268 14.6326 1 14.5 1H1.5ZM0.43934 0.43934C0.720644 0.158035 1.10218 0 1.5 0H14.5C14.8978 0 15.2794 0.158035 15.5607 0.43934C15.842 0.720644 16 1.10217 16 1.5V11.5C16 11.8978 15.842 12.2794 15.5607 12.5607C15.2794 12.842 14.8978 13 14.5 13H7.66667L3.8 15.9C3.64849 16.0136 3.44579 16.0319 3.27639 15.9472C3.107 15.8625 3 15.6894 3 15.5V13H1.5C1.10217 13 0.720644 12.842 0.43934 12.5607C0.158035 12.2794 0 11.8978 0 11.5V1.5C0 1.10218 0.158035 0.720644 0.43934 0.43934ZM6.00654 4.49987L6.00654 4.50004C6.05394 4.50066 6.10095 4.50462 6.14727 4.51179C6.7167 4.57811 7.11263 4.92136 7.35135 5.31959C7.58696 5.71264 7.68667 6.18023 7.68667 6.58667C7.68667 6.59592 7.68641 6.60517 7.6859 6.61441C7.66209 7.04285 7.52192 7.45669 7.28047 7.81141C7.03902 8.16613 6.70542 8.44832 6.31557 8.6276C6.06469 8.74298 5.76778 8.63313 5.6524 8.38224C5.53702 8.13136 5.64687 7.83444 5.89776 7.71907C6.12242 7.61575 6.31466 7.45314 6.4538 7.24872C6.59036 7.0481 6.67069 6.81467 6.6866 6.57268C6.68564 6.46796 6.67392 6.35995 6.65196 6.25472C6.47306 6.40949 6.24462 6.49684 6.00654 6.49996L5.99346 6.50013L5.99346 6.49996C5.73106 6.49653 5.48037 6.39076 5.2948 6.2052C5.10924 6.01963 5.00347 5.76894 5.00004 5.50654L4.99987 5.49346L5.00004 5.49346C5.00347 5.23106 5.10924 4.98037 5.2948 4.7948C5.48037 4.60924 5.73106 4.50347 5.99346 4.50004L6.00654 4.49987ZM9.50654 4.49987L9.50654 4.50004C9.57557 4.50095 9.6438 4.50893 9.71024 4.52359C10.2354 4.61209 10.6044 4.941 10.8314 5.31959C11.067 5.71264 11.1667 6.18023 11.1667 6.58667C11.1667 6.59506 11.1665 6.60345 11.166 6.61183C11.1446 7.03758 11.0082 7.44957 10.7714 7.80404C10.5346 8.15851 10.2062 8.44221 9.82109 8.62502C9.57162 8.74344 9.2734 8.63722 9.15498 8.38775C9.03656 8.13829 9.14279 7.84006 9.39225 7.72164C9.61417 7.61629 9.80342 7.4528 9.93988 7.24853C10.074 7.04773 10.1523 6.8149 10.1666 6.57399C10.1658 6.47364 10.1551 6.37024 10.1349 6.26915C9.95865 6.41491 9.73712 6.49694 9.50654 6.49996L9.49346 6.50013L9.49346 6.49996C9.23106 6.49653 8.98037 6.39076 8.7948 6.2052C8.60924 6.01963 8.50347 5.76894 8.50004 5.50654L8.49987 5.49346L8.50004 5.49346C8.50347 5.23106 8.60924 4.98037 8.7948 4.7948C8.98037 4.60924 9.23106 4.50347 9.49346 4.50004L9.50654 4.49987Z" fill="black"/>
</g>
<defs>
<clipPath id="clip0_756_664">
<rect width="16" height="16" fill="white"/>
</clipPath>
</defs>
</svg>
