<svg width="79" height="24" viewBox="0 0 79 24" fill="none" xmlns="http://www.w3.org/2000/svg">
<path d="M10.1797 17H8.20312L3.13281 8.92969V17H1.15625V5.625H3.13281L8.21875 13.7266V5.625H10.1797V17ZM11.9766 12.6953C11.9766 11.8672 12.1406 11.1224 12.4688 10.4609C12.7969 9.79427 13.2578 9.28385 13.8516 8.92969C14.4453 8.57031 15.1276 8.39062 15.8984 8.39062C17.0391 8.39062 17.9635 8.75781 18.6719 9.49219C19.3854 10.2266 19.7708 11.2005 19.8281 12.4141L19.8359 12.8594C19.8359 13.6927 19.6745 14.4375 19.3516 15.0938C19.0339 15.75 18.5755 16.2578 17.9766 16.6172C17.3828 16.9766 16.6953 17.1562 15.9141 17.1562C14.7214 17.1562 13.7656 16.7604 13.0469 15.9688C12.3333 15.1719 11.9766 14.112 11.9766 12.7891V12.6953ZM13.875 12.8594C13.875 13.7292 14.0547 14.4115 14.4141 14.9062C14.7734 15.3958 15.2734 15.6406 15.9141 15.6406C16.5547 15.6406 17.0521 15.3906 17.4062 14.8906C17.7656 14.3906 17.9453 13.6589 17.9453 12.6953C17.9453 11.8411 17.7604 11.1641 17.3906 10.6641C17.026 10.1641 16.5286 9.91406 15.8984 9.91406C15.2786 9.91406 14.7865 10.1615 14.4219 10.6562C14.0573 11.1458 13.875 11.8802 13.875 12.8594ZM25.8672 10.2812C25.6172 10.2396 25.3594 10.2188 25.0938 10.2188C24.224 10.2188 23.638 10.5521 23.3359 11.2188V17H21.4375V8.54688H23.25L23.2969 9.49219C23.7552 8.75781 24.3906 8.39062 25.2031 8.39062C25.474 8.39062 25.6979 8.42708 25.875 8.5L25.8672 10.2812ZM28.8516 8.54688L28.9062 9.42969C29.5 8.73698 30.3125 8.39062 31.3438 8.39062C32.474 8.39062 33.2474 8.82292 33.6641 9.6875C34.2786 8.82292 35.1432 8.39062 36.2578 8.39062C37.1901 8.39062 37.8828 8.64844 38.3359 9.16406C38.7943 9.67969 39.0286 10.4401 39.0391 11.4453V17H37.1406V11.5C37.1406 10.9635 37.0234 10.5703 36.7891 10.3203C36.5547 10.0703 36.1667 9.94531 35.625 9.94531C35.1927 9.94531 34.8385 10.0625 34.5625 10.2969C34.2917 10.526 34.1016 10.8281 33.9922 11.2031L34 17H32.1016V11.4375C32.0755 10.4427 31.5677 9.94531 30.5781 9.94531C29.8177 9.94531 29.2786 10.2552 28.9609 10.875V17H27.0625V8.54688H28.8516ZM46.0391 17C45.9557 16.8385 45.8828 16.5755 45.8203 16.2109C45.2161 16.8411 44.4766 17.1562 43.6016 17.1562C42.7526 17.1562 42.0599 16.9141 41.5234 16.4297C40.987 15.9453 40.7188 15.3464 40.7188 14.6328C40.7188 13.7318 41.0521 13.0417 41.7188 12.5625C42.3906 12.0781 43.349 11.8359 44.5938 11.8359H45.7578V11.2812C45.7578 10.8438 45.6354 10.4948 45.3906 10.2344C45.1458 9.96875 44.7734 9.83594 44.2734 9.83594C43.8411 9.83594 43.487 9.94531 43.2109 10.1641C42.9349 10.3776 42.7969 10.651 42.7969 10.9844H40.8984C40.8984 10.5208 41.0521 10.0885 41.3594 9.6875C41.6667 9.28125 42.0833 8.96354 42.6094 8.73438C43.1406 8.50521 43.7318 8.39062 44.3828 8.39062C45.3724 8.39062 46.1615 8.64062 46.75 9.14062C47.3385 9.63542 47.6406 10.3333 47.6562 11.2344V15.0469C47.6562 15.8073 47.763 16.4141 47.9766 16.8672V17H46.0391ZM43.9531 15.6328C44.3281 15.6328 44.6797 15.5417 45.0078 15.3594C45.3411 15.1771 45.5911 14.9323 45.7578 14.625V13.0312H44.7344C44.0312 13.0312 43.5026 13.1536 43.1484 13.3984C42.7943 13.6432 42.6172 13.9896 42.6172 14.4375C42.6172 14.8021 42.737 15.0938 42.9766 15.3125C43.2214 15.526 43.5469 15.6328 43.9531 15.6328ZM51.6641 17H49.7656V5H51.6641V17Z" fill="black"/>
<path d="M75 6L78.4641 9.75H71.5359L75 6Z" fill="black"/>
<path d="M75 17L71.5359 13.25L78.4641 13.25L75 17Z" fill="black"/>
</svg>
