<svg width="24" height="24" viewBox="0 0 24 24" fill="none" xmlns="http://www.w3.org/2000/svg">
<path fill-rule="evenodd" clip-rule="evenodd" d="M0.5 10H3.5C3.77614 10 4 10.2239 4 10.5V19.5C4 19.7761 4.22386 20 4.5 20H13.5C13.7761 20 14 20.2239 14 20.5V23.5C14 23.7761 13.7761 24 13.5 24H0.5C0.223858 24 0 23.7761 0 23.5V10.5C0 10.2239 0.223858 10 0.5 10Z" fill="#4C46D4"/>
<path fill-rule="evenodd" clip-rule="evenodd" d="M5.5 4H18.5C18.7761 4 19 4.22386 19 4.5V17.5C19 17.7761 18.7761 18 18.5 18H15.5C15.2239 18 15 17.7761 15 17.5V8.5C15 8.22386 14.7761 8 14.5 8H5.5C5.22386 8 5 7.77614 5 7.5V4.5C5 4.22386 5.22386 4 5.5 4Z" fill="#4C46D4"/>
<path fill-rule="evenodd" clip-rule="evenodd" d="M20.5 0H23.5C23.7761 0 24 0.223858 24 0.5V3.5C24 3.77614 23.7761 4 23.5 4H20.5C20.2239 4 20 3.77614 20 3.5V0.5C20 0.223858 20.2239 0 20.5 0Z" fill="#4C46D4"/>
</svg>
