<svg width="683" height="683" viewBox="0 0 683 683" fill="none" xmlns="http://www.w3.org/2000/svg">
<rect width="682.67" height="682.67" fill="white"/>
<path d="M0 341.334V682.667H341.333H682.667V341.334V0.000289917H341.333H0V341.334ZM305.333 201.334V232H268.667H232V201.334V170.667H268.667H305.333V201.334ZM449.067 201.6L449.333 232H412.667H376V201.334V170.667L412.4 170.934L448.667 171.334L449.067 201.6ZM484 269.334V300H340.667H197.333V269.334V238.667H340.667H484V269.334ZM305.333 338V369.334L269.067 369.067L232.667 368.667L232.267 339.334C232.133 323.2 232.267 309.334 232.533 308.4C233.067 307.067 241.333 306.667 269.333 306.667H305.333V338ZM448.667 338V368.667L412.4 369.067L376 369.334V338V306.667L412.4 306.934L448.667 307.334V338ZM484 406.667V437.334H340.667H197.333V406.667V376H340.667H484V406.667ZM305.333 474.667V505.334H268.667H232V474.667V444H268.667H305.333V474.667ZM449.067 474.267L448.667 504.667L412.4 505.067L376 505.334V474.667V444H412.667H449.333L449.067 474.267Z" fill="black"/>
</svg>
