<svg width="173" height="399" viewBox="0 0 173 399" fill="none" xmlns="http://www.w3.org/2000/svg">
<g opacity="0.3">
<g clip-path="url(#clip0_217_38)">
<mask id="mask0_217_38" style="mask-type:alpha" maskUnits="userSpaceOnUse" x="18" y="10" width="342" height="378">
<path fill-rule="evenodd" clip-rule="evenodd" d="M66.4765 308.927H80.9059L80.9241 250.201H141.072V130.362C141.072 112.16 146.284 98.2346 156.613 88.9695C165.07 81.1989 176.097 77.2559 189.372 77.2559C202.27 77.2559 213.103 81.1989 221.572 88.9756C231.888 98.2407 237.119 112.135 237.119 130.362V252.437H276.209V181.876H312.28V120.192C312.28 84.4189 302.152 56.1496 282.194 36.1611C264.824 18.7973 241.305 10 212.289 10C182.987 10 158.478 19.976 139.383 39.6606V13.3901H66.4765V181.876H97.3522V226.458H66.4765V308.927ZM79.7697 307.767H67.6187V227.6H98.4944V180.734H67.6187V14.5323H138.234V42.51L139.225 41.4651C158.229 21.3369 182.804 11.13 212.264 11.13C240.971 11.13 264.216 19.818 281.361 36.957C301.107 56.7328 311.131 84.7348 311.131 120.192V180.734H275.049V251.265H238.249V130.362C238.249 111.826 232.891 97.6149 222.332 88.1311C213.668 80.1539 202.556 76.1137 189.366 76.1137C175.793 76.1137 164.511 80.1539 155.841 88.125C145.276 97.6089 139.917 111.819 139.917 130.362V249.059H79.7697V307.767ZM288.36 215.055H312.371V191.05H288.36V215.055ZM311.222 213.912H289.508V192.192H311.222V213.912ZM302.006 276.265H348.872V229.393H302.006V276.265ZM347.748 275.123H303.166V230.541H347.748V275.123ZM112.924 311.376H159.784V264.509H112.924V311.376ZM158.642 310.233H114.06L114.066 265.651H158.642V310.233ZM38.1647 388H88.8465V337.318H38.1647V388ZM87.7043 386.858H39.3069V338.46H87.7043V386.858ZM324.57 361.322H277.704V314.45H324.57V361.322ZM278.864 360.18H323.446V315.598H278.864V360.18ZM262.995 321.024H216.122V274.157H262.995V321.024ZM217.271 319.881H261.853V275.299H217.271V319.881ZM18 325.744H52.7701V290.968H18V325.744ZM51.6401 324.596H19.1422V292.116H51.6401V324.596ZM189.949 265.676H165.945V241.671H189.949V265.676ZM167.075 264.533H188.795V242.814H167.075V264.533ZM359.79 320.361H335.786V296.351H359.79V320.361ZM336.928 319.213H358.648V297.493H336.928V319.213ZM26.7305 235.389H50.7409L50.7349 211.379H26.7305V235.389ZM49.5987 234.253H27.8788V212.521H49.5987V234.253ZM125.494 349.894H101.49V325.89H125.494V349.894ZM102.632 348.752H124.352V327.032H102.632V348.752Z" fill="url(#paint0_linear_217_38)"/>
</mask>
<g mask="url(#mask0_217_38)">
<rect x="0.380737" y="0.279175" width="172.544" height="398.553" fill="url(#paint1_linear_217_38)"/>
</g>
</g>
</g>
<defs>
<linearGradient id="paint0_linear_217_38" x1="188.895" y1="10" x2="188.895" y2="388" gradientUnits="userSpaceOnUse">
<stop stop-color="#25F68D"/>
<stop offset="1" stop-color="#1BC0F2"/>
</linearGradient>
<linearGradient id="paint1_linear_217_38" x1="86.653" y1="0.279175" x2="86.653" y2="398.833" gradientUnits="userSpaceOnUse">
<stop stop-color="#25F68D"/>
<stop offset="1" stop-color="#1BC0F2"/>
</linearGradient>
<clipPath id="clip0_217_38">
<rect width="172.544" height="398.553" fill="white" transform="translate(0.380737 0.279175)"/>
</clipPath>
</defs>
</svg>
