<svg width="859" height="39" viewBox="0 0 859 39" fill="none" xmlns="http://www.w3.org/2000/svg">
<path d="M859 0H0V39H859V0Z" fill="#CAFFF2"/>
<path fill-rule="evenodd" clip-rule="evenodd" d="M428.427 10C428.009 9.99992 427.6 10.1162 427.244 10.3358L428.427 10ZM428.427 11.5C428.287 11.5 428.151 11.5387 428.032 11.6119C427.914 11.6851 427.818 11.7899 427.756 11.9145L426.671 14.0853C426.544 14.3394 426.284 14.5 426 14.5H419.25C419.051 14.5 418.86 14.579 418.72 14.7197C418.579 14.8603 418.5 15.0511 418.5 15.25V27.25C418.5 27.4489 418.579 27.6397 418.72 27.7803C418.86 27.921 419.051 28 419.25 28H438.75C438.949 28 439.14 27.921 439.28 27.7803C439.421 27.6397 439.5 27.4489 439.5 27.25V15.25C439.5 15.0511 439.421 14.8603 439.28 14.7197C439.14 14.579 438.949 14.5 438.75 14.5H436.5C436.216 14.5 435.956 14.3394 435.829 14.0853L434.744 11.9145C434.682 11.79 434.586 11.6851 434.468 11.6119C434.349 11.5387 434.213 11.5 434.073 11.5H428.427ZM426 13H423V12.25C423 11.8358 422.664 11.5 422.25 11.5C421.836 11.5 421.5 11.8358 421.5 12.25V13H419.25C418.653 13 418.081 13.237 417.659 13.659C417.237 14.081 417 14.6533 417 15.25V27.25C417 27.8467 417.237 28.419 417.659 28.841C418.081 29.2629 418.653 29.5 419.25 29.5H438.75C439.347 29.5 439.919 29.2629 440.341 28.841C440.763 28.419 441 27.8467 441 27.25V15.25C441 14.6533 440.763 14.081 440.341 13.659C439.919 13.237 439.347 13 438.75 13H436.964L436.086 11.2437C435.899 10.8699 435.611 10.5554 435.256 10.3358C434.9 10.1162 434.491 9.99992 434.073 10H428.427L426 13ZM426 13H425.536L426.414 11.2437C426.601 10.8699 426.889 10.5554 427.244 10.3358L426 13ZM428.954 14.9567C429.682 14.6552 430.462 14.5 431.25 14.5C432.038 14.5 432.818 14.6552 433.546 14.9567C434.274 15.2582 434.935 15.7002 435.493 16.2574C436.05 16.8145 436.492 17.4759 436.793 18.2039C437.095 18.9319 437.25 19.7121 437.25 20.5C437.25 21.2879 437.095 22.0681 436.793 22.7961C436.492 23.5241 436.05 24.1855 435.493 24.7426C434.935 25.2998 434.274 25.7418 433.546 26.0433C432.818 26.3448 432.038 26.5 431.25 26.5C430.462 26.5 429.682 26.3448 428.954 26.0433C428.226 25.7418 427.564 25.2998 427.007 24.7426C426.45 24.1855 426.008 23.5241 425.707 22.7961C425.405 22.0681 425.25 21.2879 425.25 20.5C425.25 19.7121 425.405 18.9319 425.707 18.2039C426.008 17.4759 426.45 16.8145 427.007 16.2574C427.564 15.7002 428.226 15.2582 428.954 14.9567ZM431.25 16C430.659 16 430.074 16.1164 429.528 16.3425C428.982 16.5687 428.486 16.9002 428.068 17.318C427.65 17.7359 427.319 18.232 427.092 18.7779C426.866 19.3239 426.75 19.9091 426.75 20.5C426.75 21.0909 426.866 21.6761 427.092 22.2221C427.319 22.768 427.65 23.2641 428.068 23.682C428.486 24.0998 428.982 24.4313 429.528 24.6575C430.074 24.8836 430.659 25 431.25 25C431.841 25 432.426 24.8836 432.972 24.6575C433.518 24.4313 434.014 24.0998 434.432 23.682C434.85 23.2641 435.181 22.768 435.407 22.2221C435.634 21.6761 435.75 21.091 435.75 20.5C435.75 19.909 435.634 19.3239 435.407 18.7779C435.181 18.232 434.85 17.7359 434.432 17.318C434.014 16.9002 433.518 16.5687 432.972 16.3425C432.426 16.1164 431.841 16 431.25 16ZM421.198 17.4928C421.27 17.4784 421.337 17.443 421.39 17.3902C421.443 17.3373 421.478 17.2704 421.493 17.1982C421.498 17.1742 421.5 17.1497 421.5 17.125C421.5 17.0755 421.49 17.0268 421.471 16.9815C421.462 16.9589 421.451 16.9372 421.437 16.9167C421.409 16.8755 421.374 16.8404 421.333 16.8132C421.313 16.7996 421.291 16.788 421.269 16.7786C421.223 16.7596 421.174 16.75 421.125 16.75C421.101 16.75 421.076 16.7524 421.052 16.7572C420.979 16.7717 420.912 16.8074 420.86 16.8598C420.807 16.9123 420.772 16.9791 420.757 17.0518C420.752 17.0761 420.75 17.1006 420.75 17.125C420.75 17.174 420.76 17.2228 420.779 17.2685C420.788 17.2913 420.8 17.313 420.813 17.3333C420.84 17.3741 420.876 17.4093 420.917 17.4368C420.937 17.4505 420.959 17.4621 420.981 17.4715C421.027 17.4902 421.076 17.5 421.125 17.5C421.15 17.5 421.174 17.4976 421.198 17.4928ZM420.329 16.3295C420.54 16.1185 420.827 16 421.125 16C421.348 16 421.565 16.066 421.75 16.1896C421.935 16.3132 422.079 16.4889 422.164 16.6945C422.25 16.9 422.272 17.1262 422.228 17.3445C422.185 17.5627 422.078 17.7632 421.92 17.9205C421.763 18.0778 421.563 18.185 421.344 18.2284C421.126 18.2718 420.9 18.2495 420.694 18.1644C420.489 18.0792 420.313 17.935 420.19 17.75C420.066 17.565 420 17.3475 420 17.125C420 16.8266 420.119 16.5405 420.329 16.3295Z" fill="#02C4A1"/>
<path d="M451.044 13.0625H447.08V17.0264H445.964V13.0625H442V11.9639H445.964V8H447.08V11.9639H451.044V13.0625Z" fill="#02C4A1"/>
</svg>
