<svg width="20" height="20" viewBox="0 0 20 20" fill="none" xmlns="http://www.w3.org/2000/svg">
<path fill-rule="evenodd" clip-rule="evenodd" d="M8.15729 17.5253C8.48849 17.4281 8.8358 17.6178 8.93303 17.949C9.00084 18.18 9.14164 18.3828 9.33436 18.527C9.52708 18.6713 9.76134 18.7493 10.0021 18.7493C10.2428 18.7493 10.4771 18.6713 10.6698 18.527C10.8625 18.3828 11.0033 18.1799 11.0711 17.949C11.1684 17.6178 11.5157 17.4281 11.8469 17.5253C12.1781 17.6225 12.3678 17.9698 12.2705 18.301C12.1266 18.7912 11.8279 19.2216 11.4189 19.5277C11.01 19.8338 10.5129 19.9993 10.0021 19.9993C9.49125 19.9993 8.99416 19.8338 8.58523 19.5277C8.17629 19.2216 7.87752 18.7912 7.73364 18.301C7.63641 17.9698 7.82609 17.6225 8.15729 17.5253Z" fill="white"/>
<path fill-rule="evenodd" clip-rule="evenodd" d="M10 0C10.3452 0 10.625 0.279822 10.625 0.625V2.5C10.625 2.84518 10.3452 3.125 10 3.125C9.65482 3.125 9.375 2.84518 9.375 2.5V0.625C9.375 0.279822 9.65482 0 10 0Z" fill="white"/>
<path fill-rule="evenodd" clip-rule="evenodd" d="M10 3.125C8.50816 3.125 7.07742 3.71763 6.02253 4.77252C4.96764 5.82742 4.37501 7.25816 4.37501 8.75C4.37501 11.4378 4.05682 13.2175 3.72445 14.3438C3.65066 14.5938 3.57617 14.8116 3.50433 15H16.4277C16.3782 14.8733 16.3284 14.7332 16.2793 14.5784C15.9411 13.5127 15.625 11.7253 15.625 8.75C15.625 7.25816 15.0324 5.82742 13.9775 4.77252C12.9226 3.71763 11.4918 3.125 10 3.125ZM10 1.875C8.17664 1.875 6.42796 2.59933 5.13865 3.88864C3.84933 5.17795 3.12501 6.92664 3.12501 8.75C3.12501 11.3406 2.81819 12.9984 2.52556 13.99C2.37931 14.4856 2.2366 14.8148 2.13737 15.0114C2.08773 15.1097 2.04887 15.1751 2.0257 15.2117C2.01412 15.23 2.00643 15.2411 2.00327 15.2456C2.00287 15.2462 2.00255 15.2466 2.0023 15.247C1.85984 15.4345 1.83477 15.6865 1.93812 15.8987C2.04282 16.1136 2.26094 16.25 2.5 16.25H17.5C17.7652 16.25 18.0016 16.0826 18.0896 15.8324C18.1737 15.5932 18.1048 15.3282 17.9179 15.1603C17.9173 15.1596 17.9166 15.1588 17.9158 15.1579C17.9047 15.1452 17.8754 15.1098 17.8333 15.0431C17.749 14.9094 17.6136 14.6506 17.4707 14.2003C17.1839 13.2964 16.875 11.6464 16.875 8.75C16.875 6.92664 16.1507 5.17795 14.8614 3.88864C13.5721 2.59933 11.8234 1.875 10 1.875Z" fill="white"/>
</svg>
