<svg width="16" height="16" viewBox="0 0 16 16" fill="none" xmlns="http://www.w3.org/2000/svg">
<path fill-rule="evenodd" clip-rule="evenodd" d="M5.17157 1.17157C5.92172 0.421427 6.93913 0 8 0C9.06087 0 10.0783 0.421427 10.8284 1.17157C11.5786 1.92172 12 2.93913 12 4C12 5.06087 11.5786 6.07828 10.8284 6.82843C10.0783 7.57857 9.06087 8 8 8C6.93913 8 5.92172 7.57857 5.17157 6.82843C4.42143 6.07828 4 5.06087 4 4C4 2.93913 4.42143 1.92172 5.17157 1.17157ZM8 1C7.20435 1 6.44129 1.31607 5.87868 1.87868C5.31607 2.44129 5 3.20435 5 4C5 4.79565 5.31607 5.55871 5.87868 6.12132C6.44129 6.68393 7.20435 7 8 7C8.79565 7 9.55871 6.68393 10.1213 6.12132C10.6839 5.55871 11 4.79565 11 4C11 3.20435 10.6839 2.44129 10.1213 1.87868C9.55871 1.31607 8.79565 1 8 1Z" fill="#303E84"/>
<path fill-rule="evenodd" clip-rule="evenodd" d="M8 9.5C6.4087 9.5 4.88258 10.1321 3.75736 11.2574C2.63214 12.3826 2 13.9087 2 15.5C2 15.7761 1.77614 16 1.5 16C1.22386 16 1 15.7761 1 15.5C1 13.6435 1.7375 11.863 3.05025 10.5503C4.36301 9.2375 6.14348 8.5 8 8.5C9.85652 8.5 11.637 9.2375 12.9497 10.5503C14.2625 11.863 15 13.6435 15 15.5C15 15.7761 14.7761 16 14.5 16C14.2239 16 14 15.7761 14 15.5C14 13.9087 13.3679 12.3826 12.2426 11.2574C11.1174 10.1321 9.5913 9.5 8 9.5Z" fill="#303E84"/>
</svg>
