<svg width="24" height="28" viewBox="0 0 24 28" fill="none" xmlns="http://www.w3.org/2000/svg">
<rect width="24" height="24" fill="white"/>
<g clip-path="url(#clip0_114_79)">
<path fill-rule="evenodd" clip-rule="evenodd" d="M4.47532 8.09341C5.12458 6.48442 6.38642 5.19924 7.98324 4.52061C9.58006 3.84198 11.3811 3.82547 12.9901 4.47473C14.5991 5.12399 15.8842 6.38582 16.5629 7.98265C17.2415 9.57947 17.258 11.3805 16.6087 12.9895C15.9595 14.5985 14.6976 15.8836 13.1008 16.5623C11.504 17.2409 9.70299 17.2574 8.094 16.6081C6.48501 15.9589 5.19984 14.697 4.5212 13.1002C3.84257 11.5034 3.82607 9.7024 4.47532 8.09341ZM8.37437 5.44094C7.02164 6.01584 5.95269 7.10457 5.40267 8.46761C4.85266 9.83065 4.86664 11.3564 5.44154 12.7091C6.01644 14.0618 7.10516 15.1308 8.4682 15.6808C9.83125 16.2308 11.357 16.2168 12.7097 15.6419C14.0624 15.067 15.1314 13.9783 15.6814 12.6153C16.2314 11.2522 16.2174 9.72651 15.6425 8.37378C15.0676 7.02104 13.9789 5.95209 12.6159 5.40208C11.2528 4.85206 9.72711 4.86604 8.37437 5.44094Z" fill="#151451"/>
<path fill-rule="evenodd" clip-rule="evenodd" d="M14.4605 14.4598C14.6558 14.2645 14.9723 14.2645 15.1676 14.4598L19.8536 19.1465C20.0488 19.3417 20.0488 19.6583 19.8535 19.8536C19.6583 20.0488 19.3417 20.0488 19.1464 19.8535L14.4604 15.1669C14.2652 14.9716 14.2652 14.655 14.4605 14.4598Z" fill="#151451"/>
</g>
<path d="M11.5 28L8.46891 23.5L14.5311 23.5L11.5 28Z" fill="white"/>
<defs>
<clipPath id="clip0_114_79">
<rect width="16" height="16" fill="white" transform="translate(4 4)"/>
</clipPath>
</defs>
</svg>
