<svg width="12" height="12" viewBox="0 0 12 12" fill="none" xmlns="http://www.w3.org/2000/svg">
<path fill-rule="evenodd" clip-rule="evenodd" d="M1.75736 1.75736C2.88258 0.632141 4.4087 0 6 0C7.5913 0 9.11742 0.632141 10.2426 1.75736C11.3679 2.88258 12 4.4087 12 6C12 7.5913 11.3679 9.11742 10.2426 10.2426C9.11742 11.3679 7.5913 12 6 12C4.4087 12 2.88258 11.3679 1.75736 10.2426C0.632141 9.11742 0 7.5913 0 6C0 4.4087 0.632141 2.88258 1.75736 1.75736ZM6 0.75C4.60761 0.75 3.27226 1.30312 2.28769 2.28769C1.30312 3.27226 0.75 4.60761 0.75 6C0.75 7.39239 1.30312 8.72775 2.28769 9.71231C3.27226 10.6969 4.60761 11.25 6 11.25C7.39239 11.25 8.72775 10.6969 9.71231 9.71231C10.6969 8.72775 11.25 7.39239 11.25 6C11.25 4.60761 10.6969 3.27226 9.71231 2.28769C8.72775 1.30312 7.39239 0.75 6 0.75ZM4.14381 4.14386C4.29025 3.9974 4.52769 3.99738 4.67414 4.14381L6 5.46946L7.32586 4.14381C7.47231 3.99738 7.70975 3.9974 7.85619 4.14386C8.00262 4.29031 8.0026 4.52775 7.85614 4.67419L6.53037 5.99975L7.85614 7.32531C8.0026 7.47175 8.00262 7.70919 7.85619 7.85564C7.70975 8.0021 7.47231 8.00212 7.32586 7.85569L6 6.53004L4.67414 7.85569C4.52769 8.00212 4.29025 8.0021 4.14381 7.85564C3.99738 7.70919 3.9974 7.47175 4.14386 7.32531L5.46963 5.99975L4.14386 4.67419C3.9974 4.52775 3.99738 4.29031 4.14381 4.14386Z" fill="white"/>
</svg>
