<svg width="127" height="126" viewBox="0 0 127 126" fill="none" xmlns="http://www.w3.org/2000/svg">
<path d="M98.7582 3.87125C98.4253 2.04872 96.8202 0.666668 94.8903 0.666668C92.719 0.666668 90.959 2.41582 90.959 4.57351V9.78267L91.0223 10.4849C91.3552 12.3075 92.9603 13.6895 94.8903 13.6895C97.0615 13.6895 98.8215 11.9404 98.8215 9.78267V4.57351L98.7582 3.87125Z" fill="url(#paint0_linear_42_146)"/>
<path d="M68.8537 11.3165C70.2443 11.0251 71.6791 11.0089 73.0764 11.2688C74.4733 11.5287 75.8049 12.0596 76.9953 12.831C78.1856 13.6024 79.2114 14.5994 80.0141 15.765C81.2402 17.5457 80.7816 19.9771 78.9899 21.1956C77.3972 22.2788 75.2871 22.0391 73.9767 20.7218L73.5253 20.1778C73.306 19.8592 73.0257 19.5867 72.7004 19.3759C72.3751 19.1651 72.0112 19.02 71.6297 18.949C71.2478 18.878 70.8558 18.8825 70.4755 18.9621L69.9226 19.1358L69.4125 19.4146L31.5151 45.1737C28.6904 47.0937 25.0419 44.7673 25.3776 41.5824L25.4992 40.935L30.2487 23.569C30.2872 23.191 30.1862 22.812 29.9645 22.5023C29.743 22.1928 29.4159 21.9737 29.0439 21.8858C28.672 21.7979 28.2807 21.8472 27.9426 22.0245C27.6045 22.2019 27.3426 22.4951 26.9375 23.4083L24.4491 27.7675L23.76 28.9943C22.1671 31.8379 20.5744 34.7395 19.0298 37.626L15.7057 43.968L13.6006 48.1562L11.6179 52.2881L9.94121 56.0135C8.68054 58.9423 8.18301 62.1396 8.4944 65.3101C8.75396 67.9521 9.56828 70.5045 10.8767 72.8026L11.7205 74.1495L20.3735 86.7203C21.9808 89.0648 24.1018 91.0163 26.5769 92.4278C28.46 93.5017 29.1105 95.8894 28.0299 97.7609C26.9493 99.6323 24.5466 100.279 22.6635 99.2049C19.658 97.4909 17.0211 95.2149 14.8979 92.5121L13.8799 91.1258L5.22851 78.5575C2.67699 74.8415 1.10889 70.5466 0.669066 66.0692C0.229307 61.5919 0.931987 57.0766 2.71418 52.936C3.24716 51.702 3.83401 50.3985 4.47124 49.0303L6.53081 44.7369L7.66755 42.4539C8.3397 41.1185 9.04184 39.7479 9.77079 38.3468C11.2824 35.4414 12.8645 32.4889 14.4701 29.5602L18.7792 21.859L19.6861 20.3278C19.7567 20.2148 19.8165 20.1224 19.8645 20.0522C20.6835 17.9298 22.2499 16.1751 24.2728 15.1142C26.2958 14.0531 28.6376 13.7582 30.8628 14.2841C33.0882 14.8099 35.0458 16.1209 36.3715 17.9731C37.5079 19.5608 38.1141 21.4537 38.047 23.7775L37.9566 24.9759L35.8444 32.7601L64.9714 12.9668C65.8508 12.3681 66.8128 11.9029 67.8254 11.5849L68.8537 11.3165Z" fill="url(#paint1_linear_42_146)"/>
<path fill-rule="evenodd" clip-rule="evenodd" d="M89.2888 21.4362C91.9096 20.3714 94.8455 20.3699 97.4674 21.4323C100.089 22.4946 102.187 24.5357 103.313 27.1192C104.265 29.3064 104.454 31.734 103.855 34.0658C104.886 34.1683 105.899 34.4177 106.862 34.808C108.195 35.3481 109.405 36.1471 110.421 37.1566C111.441 38.1676 112.246 39.3705 112.791 40.6948C113.335 42.0183 113.609 43.4366 113.595 44.8667C113.585 45.9396 113.413 47.003 113.1 47.9908L112.741 48.9509L111.523 51.919C112.514 52.0283 113.487 52.2735 114.414 52.6492C115.747 53.1894 116.959 53.9885 117.975 54.9978C118.994 56.0086 119.799 57.2114 120.344 58.5362C120.888 59.8595 121.162 61.2773 121.149 62.7126C121.137 63.7849 120.965 64.8472 120.653 65.8334L120.294 66.7918L102.964 109.045C100.269 115.605 95.0628 120.832 88.491 123.578C82.4663 126.095 75.7451 126.338 69.5848 124.301L67.9196 123.689L53.7291 117.957C49.5373 116.255 45.8454 113.53 42.9948 110.034C40.1443 106.538 38.2269 102.383 37.4201 97.9538C36.7549 94.2931 36.1391 89.964 35.5697 85.0979C35.0969 81.0587 34.6739 76.8095 34.3005 72.5084L33.656 64.3736L33.4541 61.1935C33.4546 61.0843 33.4643 61.0571 33.4865 61.1371C32.9799 58.9126 33.3061 56.5808 34.404 54.578C35.5019 52.5752 37.2964 51.0384 39.4518 50.2551C41.6072 49.4718 43.976 49.4956 46.1149 50.3222C47.9484 51.0307 49.5054 52.2873 50.7308 54.2656L51.3156 55.3158L53.8574 62.9522L67.1501 30.6155C67.528 29.6025 68.0566 28.6539 68.7166 27.8006L69.4196 26.9804C70.4136 25.932 71.6093 25.0927 72.9354 24.5127C74.2608 23.9329 75.6901 23.6234 77.1446 23.6009C78.5929 23.5827 80.0303 23.852 81.3718 24.3944C82.3369 24.7847 83.238 25.3105 84.0478 25.9537C85.242 23.9276 87.0791 22.3342 89.2888 21.4362ZM80.0803 35.3361C80.1871 35.0369 80.2445 34.7224 80.25 34.4049C80.2568 34.0098 80.1841 33.6189 80.0364 33.255C79.8882 32.8898 79.6678 32.5582 79.3868 32.2782C79.108 32.0001 78.7753 31.7802 78.4086 31.632C78.0413 31.4835 77.6471 31.4096 77.2555 31.4148C76.8577 31.4207 76.4659 31.5055 76.103 31.6643C75.7406 31.8227 75.414 32.052 75.1422 32.3387C74.9612 32.5296 74.8072 32.7433 74.6701 33.0089L74.4759 33.4501L57.1206 75.7013C55.839 78.8212 51.5723 78.904 50.0495 76.1418L49.7493 75.454L44.0944 58.3441C43.9178 58.0057 43.6231 57.7429 43.2656 57.6048C42.9081 57.4666 42.5123 57.4626 42.1521 57.5936C41.7919 57.7245 41.4919 57.9813 41.3084 58.3161C41.1249 58.6508 41.0705 59.0405 41.2452 60.0433L41.7821 67.5858C42.2288 73.2528 42.762 78.9181 43.3795 84.1951C43.9314 88.9113 44.5254 93.0862 45.1572 96.5637C45.7282 99.6985 47.0856 102.64 49.1035 105.115C50.7852 107.177 52.8805 108.861 55.2458 110.06L56.6963 110.721L70.8846 116.453C75.5561 118.346 80.793 118.318 85.4438 116.375C89.6291 114.626 93.0314 111.455 95.0598 107.456L95.6842 106.094L113.045 63.7684C113.2 63.4104 113.283 63.0234 113.287 62.6355C113.29 62.2445 113.215 61.856 113.066 61.4932C112.917 61.1306 112.697 60.8027 112.418 60.526C112.141 60.2506 111.81 60.0323 111.446 59.8846C111.082 59.737 110.692 59.6632 110.298 59.6673C109.905 59.6715 109.517 59.7536 109.156 59.9084C108.795 60.0638 108.469 60.2891 108.196 60.5717C108.015 60.7596 107.86 60.9702 107.726 61.2196L107.541 61.6247L99.7415 80.6379C98.9218 82.6359 96.6275 83.5953 94.617 82.7808C92.8298 82.0568 91.8685 80.1748 92.2526 78.3622L92.4607 77.6882L100.231 58.7484C100.278 58.6262 100.328 58.505 100.379 58.3848L105.491 45.9272C105.647 45.5682 105.729 45.1826 105.733 44.7929C105.737 44.4011 105.662 44.0132 105.513 43.652C105.365 43.2906 105.145 42.9624 104.865 42.6847C104.587 42.4087 104.257 42.1907 103.893 42.0433C103.529 41.8958 103.139 41.8219 102.745 41.8261C102.352 41.8302 101.964 41.9122 101.602 42.0677C101.242 42.2228 100.916 42.4478 100.643 42.7304C100.461 42.9184 100.306 43.129 100.173 43.3784L99.9875 43.7834L89.5885 69.131C88.7688 71.129 86.4745 72.0883 84.464 71.2738C82.6769 70.5497 81.7156 68.6677 82.0997 66.8551L82.3078 66.1811L92.6775 40.9069L92.6935 40.8659L92.7063 40.8243L96.1423 32.4427C96.42 31.7244 96.4034 30.9267 96.0969 30.2224C95.7892 29.5161 95.2155 28.9581 94.4989 28.6677C93.7824 28.3774 92.9805 28.3778 92.2645 28.6687C91.7271 28.8871 91.2705 29.2558 90.9595 29.6937L90.6993 30.1516L76.8302 63.9631C76.0108 65.9613 73.7165 66.9209 71.7059 66.1065C69.9187 65.3826 68.9572 63.5007 69.3411 61.6881L69.5491 61.0141L79.9432 35.675L79.9493 35.6552L80.0803 35.3361Z" fill="url(#paint2_linear_42_146)"/>
<path d="M114.435 1.81095C115.97 0.285244 118.459 0.285244 119.994 1.81095C121.359 3.16715 121.51 5.27235 120.449 6.79499L119.994 7.33607L112.132 15.1498C110.596 16.6755 108.107 16.6755 106.572 15.1498C105.207 13.7936 105.056 11.6884 106.117 10.1657L106.572 9.62465L114.435 1.81095Z" fill="url(#paint3_linear_42_146)"/>
<path d="M126.34 24.1077C126.34 21.9501 124.58 20.2009 122.409 20.2009H117.167L116.46 20.2639C114.627 20.5946 113.236 22.1898 113.236 24.1077C113.236 26.2654 114.996 28.0146 117.167 28.0146H122.409L123.116 27.9516C124.95 27.6208 126.34 26.0257 126.34 24.1077Z" fill="url(#paint4_linear_42_146)"/>
<defs>
<linearGradient id="paint0_linear_42_146" x1="63.441" y1="0.666668" x2="63.441" y2="125.667" gradientUnits="userSpaceOnUse">
<stop stop-color="#25F68D"/>
<stop offset="1" stop-color="#1BC0F2"/>
</linearGradient>
<linearGradient id="paint1_linear_42_146" x1="63.441" y1="0.666668" x2="63.441" y2="125.667" gradientUnits="userSpaceOnUse">
<stop stop-color="#25F68D"/>
<stop offset="1" stop-color="#1BC0F2"/>
</linearGradient>
<linearGradient id="paint2_linear_42_146" x1="63.441" y1="0.666668" x2="63.441" y2="125.667" gradientUnits="userSpaceOnUse">
<stop stop-color="#25F68D"/>
<stop offset="1" stop-color="#1BC0F2"/>
</linearGradient>
<linearGradient id="paint3_linear_42_146" x1="63.441" y1="0.666668" x2="63.441" y2="125.667" gradientUnits="userSpaceOnUse">
<stop stop-color="#25F68D"/>
<stop offset="1" stop-color="#1BC0F2"/>
</linearGradient>
<linearGradient id="paint4_linear_42_146" x1="63.441" y1="0.666668" x2="63.441" y2="125.667" gradientUnits="userSpaceOnUse">
<stop stop-color="#25F68D"/>
<stop offset="1" stop-color="#1BC0F2"/>
</linearGradient>
</defs>
</svg>
