<svg width="11" height="12" viewBox="0 0 11 12" fill="none" xmlns="http://www.w3.org/2000/svg">
<path d="M10.1836 6.05859C10.1367 7.00391 9.90234 7.75 9.48047 8.29688C9.05859 8.84375 8.49414 9.11719 7.78711 9.11719C7.05664 9.11719 6.58789 8.78906 6.38086 8.13281C6.16992 8.46484 5.92773 8.71289 5.6543 8.87695C5.38477 9.03711 5.10547 9.11719 4.81641 9.11719C4.26172 9.11719 3.8418 8.89062 3.55664 8.4375C3.27148 7.98438 3.16602 7.35742 3.24023 6.55664C3.29883 5.91211 3.44531 5.33789 3.67969 4.83398C3.91797 4.32617 4.22266 3.92773 4.59375 3.63867C4.96875 3.34961 5.36133 3.20508 5.77148 3.20508C6.08789 3.20508 6.37109 3.24805 6.62109 3.33398C6.87109 3.41602 7.15234 3.58008 7.46484 3.82617L7.16016 7.07227C7.08594 7.97461 7.33594 8.42578 7.91016 8.42578C8.35156 8.42578 8.70898 8.20703 8.98242 7.76953C9.25586 7.33203 9.4043 6.76172 9.42773 6.05859C9.50195 4.53906 9.21875 3.38086 8.57812 2.58398C7.94141 1.78711 6.9707 1.38867 5.66602 1.38867C4.88086 1.38867 4.18359 1.58398 3.57422 1.97461C2.96484 2.36133 2.48438 2.92188 2.13281 3.65625C1.78125 4.39062 1.58398 5.23828 1.54102 6.19922C1.49414 7.16797 1.61133 8.00977 1.89258 8.72461C2.17383 9.43555 2.60156 9.97852 3.17578 10.3535C3.75391 10.7324 4.45117 10.9219 5.26758 10.9219C5.61914 10.9219 5.9707 10.8789 6.32227 10.793C6.67773 10.707 6.97266 10.5957 7.20703 10.459L7.42383 11.1328C7.18164 11.2852 6.85938 11.4102 6.45703 11.5078C6.05859 11.6055 5.6543 11.6543 5.24414 11.6543C4.26758 11.6543 3.42773 11.4336 2.72461 10.9922C2.02148 10.5547 1.49414 9.92188 1.14258 9.09375C0.794922 8.26953 0.644531 7.30469 0.691406 6.19922C0.738281 5.125 0.978516 4.16016 1.41211 3.30469C1.8457 2.44531 2.43359 1.7832 3.17578 1.31836C3.91797 0.849609 4.75586 0.615234 5.68945 0.615234C6.66211 0.615234 7.49609 0.833984 8.19141 1.27148C8.88672 1.70898 9.4043 2.33984 9.74414 3.16406C10.084 3.98828 10.2305 4.95312 10.1836 6.05859ZM4.17188 6.55664C4.11719 7.11133 4.16797 7.53711 4.32422 7.83398C4.48438 8.13086 4.73633 8.2793 5.08008 8.2793C5.31445 8.2793 5.53906 8.17969 5.75391 7.98047C5.97266 7.78125 6.15234 7.49609 6.29297 7.125L6.29883 7.07227L6.56836 4.125C6.34961 4.01172 6.11523 3.95508 5.86523 3.95508C5.4082 3.95508 5.0293 4.1875 4.72852 4.65234C4.43164 5.11719 4.24609 5.75195 4.17188 6.55664Z" fill="#4C4C52"/>
</svg>
