<svg xmlns="http://www.w3.org/2000/svg" width="24" height="24" viewBox="0 0 24 24" fill="none">
  <path fill-rule="evenodd" clip-rule="evenodd" d="M6.96487 3.03272C6.87423 3.07395 6.78387 3.17569 6.75932 3.26419C6.74797 3.30511 6.74042 3.56291 6.74037 3.91185L6.74026 4.49149L5.32418 4.49765C4.04445 4.50319 3.8977 4.50679 3.8002 4.53506C3.4087 4.64852 3.1424 4.93177 3.03611 5.34783C3.00025 5.48823 3 5.53822 3 12.7652C3 19.8968 3.00068 19.044 3.03474 19.1772C3.11401 19.4875 3.30854 19.7312 3.58825 19.8707C3.87774 20.0151 3.04237 20.0026 12.0539 19.9971L20.1099 19.9921L20.2291 19.9516C20.4098 19.8901 20.5109 19.8268 20.6512 19.6872C20.7962 19.5429 20.9131 19.3296 20.9522 19.1378C20.9645 19.0772 20.9803 19.0333 20.9873 19.0403C20.9943 19.0473 21 16.7667 21 12.7502C21 8.73368 20.9933 5.44741 20.9852 5.44741C20.9771 5.44741 20.9612 5.39813 20.95 5.33789C20.8979 5.05735 20.6878 4.78422 20.4156 4.64309C20.1344 4.49732 20.2286 4.50507 18.6489 4.49797L17.2418 4.49167L17.2417 3.91194C17.2416 3.56293 17.234 3.30513 17.2227 3.26419C17.2123 3.22678 17.178 3.16678 17.1465 3.13085C16.9641 2.92285 16.6374 2.97157 16.5206 3.22417C16.4903 3.28964 16.4873 3.35056 16.4869 3.89475L16.4865 4.49331H11.991H7.4955L7.49511 3.89475C7.49475 3.35056 7.49169 3.28964 7.46141 3.22417C7.37324 3.03355 7.15127 2.94795 6.96487 3.03272ZM3.99129 5.27636C3.94805 5.28986 3.88973 5.3229 3.86173 5.34975C3.75379 5.45328 3.75524 5.43193 3.75524 6.90878V8.25572H11.991H20.2268V6.90316C20.2268 5.92074 20.221 5.53132 20.2057 5.48014C20.1941 5.44138 20.1578 5.38612 20.125 5.35731C20.0017 5.24894 20.0082 5.24939 18.5602 5.24939H17.2418L17.2417 6.208C17.2416 6.82826 17.2348 7.19089 17.2225 7.23539C17.1966 7.32855 17.0947 7.43701 16.9983 7.47386C16.8315 7.53764 16.6578 7.48225 16.5485 7.33035L16.4955 7.25661L16.4906 6.253L16.4856 5.24939H11.991H7.49639L7.49144 6.25443L7.48651 7.25944L7.43654 7.32502C7.31412 7.48565 7.15304 7.5386 6.9837 7.47386C6.88733 7.43701 6.78538 7.32855 6.75954 7.23539C6.7472 7.19089 6.74042 6.82826 6.74037 6.208L6.74026 5.24939L5.4051 5.2506C4.33053 5.25157 4.05457 5.25659 3.99129 5.27636ZM3.0089 12.7652C3.0089 16.7851 3.01097 18.4269 3.01349 16.4136C3.016 14.4004 3.016 11.1115 3.01349 9.10484C3.01097 7.09821 3.0089 8.74538 3.0089 12.7652ZM3.75575 14.4979L3.75625 18.984L3.79761 19.065C3.82998 19.1284 3.86012 19.1567 3.93647 19.1952L4.03397 19.2444L12.0017 19.2447L19.9694 19.245L20.0482 19.2033C20.1058 19.1728 20.1392 19.1379 20.1724 19.0733L20.2178 18.985L20.2224 14.4984L20.227 9.01181H11.9911H3.75524L3.75575 14.4979Z" fill="#4C4C52"/>
</svg>