<svg width="24" height="20" viewBox="0 0 24 20" fill="none" xmlns="http://www.w3.org/2000/svg">
<path fill-rule="evenodd" clip-rule="evenodd" d="M11.427 4.4758e-08C11.0092 -8.32825e-05 10.5996 0.116185 10.2441 0.335779L11.427 4.4758e-08ZM11.4268 1.5C11.2875 1.49996 11.1509 1.53872 11.0324 1.61193C10.9139 1.68514 10.8181 1.78991 10.7558 1.9145L9.67088 4.08529C9.54386 4.33944 9.28413 4.5 9 4.5H2.25C2.05109 4.5 1.86032 4.57902 1.71967 4.71967C1.57902 4.86032 1.5 5.05109 1.5 5.25V17.25C1.5 17.4489 1.57902 17.6397 1.71967 17.7803C1.86032 17.921 2.05109 18 2.25 18H21.75C21.9489 18 22.1397 17.921 22.2803 17.7803C22.421 17.6397 22.5 17.4489 22.5 17.25V5.25C22.5 5.05109 22.421 4.86032 22.2803 4.71967C22.1397 4.57902 21.9489 4.5 21.75 4.5H19.5C19.2159 4.5 18.9561 4.33944 18.8291 4.08529L17.7442 1.9145C17.6819 1.79001 17.5861 1.6851 17.4676 1.61193C17.3491 1.53872 17.2125 1.49996 17.0732 1.5H11.4268ZM9 3H6V2.25C6 1.83579 5.66421 1.5 5.25 1.5C4.83579 1.5 4.5 1.83579 4.5 2.25V3H2.25C1.65326 3 1.08097 3.23705 0.65901 3.65901C0.237053 4.08097 0 4.65326 0 5.25V17.25C0 17.8467 0.237053 18.419 0.65901 18.841C1.08097 19.2629 1.65326 19.5 2.25 19.5H21.75C22.3467 19.5 22.919 19.2629 23.341 18.841C23.7629 18.419 24 17.8467 24 17.25V5.25C24 4.65326 23.7629 4.08097 23.341 3.65901C22.919 3.23705 22.3467 3 21.75 3H19.9636L19.0859 1.24371C18.8989 0.869943 18.6115 0.555413 18.2559 0.335779C17.9004 0.116185 17.4908 -8.32825e-05 17.073 4.4758e-08H11.427M9 3H8.53638L9.41412 1.24371C9.60106 0.869944 9.88852 0.555414 10.2441 0.335779M11.9539 4.95672C12.6819 4.65519 13.4621 4.5 14.25 4.5C15.0379 4.5 15.8181 4.65519 16.5461 4.95672C17.2741 5.25825 17.9355 5.70021 18.4926 6.25736C19.0498 6.81451 19.4918 7.47595 19.7933 8.2039C20.0948 8.93185 20.25 9.71207 20.25 10.5C20.25 11.2879 20.0948 12.0681 19.7933 12.7961C19.4918 13.5241 19.0498 14.1855 18.4926 14.7426C17.9355 15.2998 17.2741 15.7418 16.5461 16.0433C15.8181 16.3448 15.0379 16.5 14.25 16.5C13.4621 16.5 12.6819 16.3448 11.9539 16.0433C11.2259 15.7418 10.5645 15.2998 10.0074 14.7426C9.45021 14.1855 9.00825 13.5241 8.70672 12.7961C8.4052 12.0681 8.25 11.2879 8.25 10.5C8.25 9.71207 8.4052 8.93185 8.70672 8.2039C9.00825 7.47595 9.45021 6.81451 10.0074 6.25736C10.5645 5.70021 11.2259 5.25825 11.9539 4.95672ZM14.25 6C13.6591 6 13.0739 6.1164 12.5279 6.34254C11.982 6.56869 11.4859 6.90016 11.068 7.31802C10.6502 7.73588 10.3187 8.23196 10.0925 8.77792C9.8664 9.32389 9.75 9.90905 9.75 10.5C9.75 11.0909 9.8664 11.6761 10.0925 12.2221C10.3187 12.768 10.6502 13.2641 11.068 13.682C11.4859 14.0998 11.982 14.4313 12.5279 14.6575C13.0739 14.8836 13.659 15 14.25 15C14.841 15 15.4261 14.8836 15.9721 14.6575C16.518 14.4313 17.0141 14.0998 17.432 13.682C17.8498 13.2641 18.1813 12.768 18.4075 12.2221C18.6336 11.6761 18.75 11.091 18.75 10.5C18.75 9.90905 18.6336 9.32389 18.4075 8.77792C18.1813 8.23196 17.8498 7.73588 17.432 7.31802C17.0141 6.90016 16.518 6.56869 15.9721 6.34254C15.4261 6.1164 14.8409 6 14.25 6ZM4.19816 7.4928C4.27037 7.47843 4.33734 7.44299 4.39016 7.39016C4.44299 7.33734 4.47843 7.27037 4.4928 7.19816C4.49755 7.17424 4.5 7.14975 4.5 7.125C4.5 7.07552 4.49021 7.02677 4.47146 6.98149C4.4621 6.95891 4.45051 6.93718 4.4368 6.91666C4.40931 6.87552 4.37409 6.84043 4.33334 6.8132C4.31301 6.79962 4.29131 6.78799 4.26851 6.77855C4.22279 6.75961 4.17401 6.75 4.125 6.75C4.10055 6.75 4.07605 6.75239 4.05184 6.75721C3.9791 6.77167 3.91228 6.80739 3.85984 6.85984C3.80739 6.91228 3.77168 6.9791 3.75721 7.05184C3.75239 7.07605 3.75 7.10055 3.75 7.125C3.75 7.17401 3.75961 7.22279 3.77854 7.26851C3.78799 7.29131 3.79962 7.31301 3.8132 7.33334C3.84043 7.37409 3.87552 7.40931 3.91666 7.4368C3.93718 7.45051 3.95891 7.4621 3.98149 7.47145C4.02677 7.49021 4.07551 7.5 4.125 7.5C4.14975 7.5 4.17424 7.49755 4.19816 7.4928ZM3.3295 6.3295C3.54048 6.11853 3.82663 6 4.125 6C4.34751 6 4.56501 6.06598 4.75002 6.1896C4.93502 6.31321 5.07922 6.48891 5.16436 6.69448C5.24951 6.90005 5.27179 7.12625 5.22838 7.34448C5.18498 7.56271 5.07783 7.76316 4.9205 7.9205C4.76316 8.07783 4.5627 8.18498 4.34448 8.22838C4.12625 8.27179 3.90005 8.24952 3.69448 8.16436C3.48891 8.07922 3.31321 7.93502 3.1896 7.75002C3.06598 7.56501 3 7.3475 3 7.125C3 6.82663 3.11853 6.54048 3.3295 6.3295Z" fill="#02C4A1"/>
</svg>
