<svg width="16" height="16" viewBox="0 0 16 16" fill="none" xmlns="http://www.w3.org/2000/svg">
<g id="NUA 2 / Element / Icon / Clap">
<g id="Icon">
<path d="M10.4752 3.58986C10.4487 3.44406 10.3211 3.3335 10.1677 3.3335C9.99508 3.3335 9.85515 3.47343 9.85515 3.64604V4.06278L9.86018 4.11896C9.88665 4.26476 10.0143 4.37532 10.1677 4.37532C10.3403 4.37532 10.4802 4.23539 10.4802 4.06278V3.64604L10.4752 3.58986Z" fill="#4C4C52"/>
<path d="M8.09771 4.18548C8.20826 4.16217 8.32234 4.16087 8.43342 4.18166C8.54448 4.20246 8.65035 4.24493 8.74499 4.30664C8.83962 4.36835 8.92118 4.44812 8.98499 4.54137C9.08247 4.68382 9.04602 4.87833 8.90356 4.97581C8.77694 5.06246 8.60919 5.04329 8.505 4.93791L8.46912 4.89439C8.45168 4.8689 8.42939 4.8471 8.40353 4.83024C8.37767 4.81337 8.34874 4.80177 8.3184 4.79609C8.28805 4.7904 8.25688 4.79076 8.22665 4.79713L8.18269 4.81103L8.14213 4.83333L5.12917 6.89406C4.9046 7.04766 4.61453 6.86155 4.64122 6.60676L4.65089 6.55496L5.02849 5.16569C5.03155 5.13544 5.02352 5.10512 5.0059 5.08034C4.98828 5.05558 4.96228 5.03806 4.93271 5.03103C4.90314 5.024 4.87203 5.02794 4.84514 5.04212C4.81827 5.05631 4.79745 5.07977 4.76524 5.15283L4.5674 5.50156L4.51261 5.5997C4.38598 5.8272 4.25935 6.05932 4.13655 6.29024L3.87228 6.7976L3.70491 7.13265L3.54728 7.46321L3.41398 7.76124C3.31375 7.99555 3.2742 8.25133 3.29896 8.50497C3.31959 8.71633 3.38433 8.92052 3.48836 9.10437L3.55544 9.21212L4.24338 10.2178C4.37116 10.4053 4.53979 10.5615 4.73657 10.6744C4.88628 10.7603 4.938 10.9513 4.85208 11.101C4.76617 11.2507 4.57516 11.3025 4.42544 11.2166C4.18649 11.0794 3.97685 10.8974 3.80806 10.6811L3.72712 10.5702L3.03931 9.56476C2.83645 9.26748 2.71178 8.92389 2.67682 8.5657C2.64185 8.20752 2.69772 7.84629 2.83941 7.51504C2.88178 7.41632 2.92844 7.31204 2.9791 7.20259L3.14284 6.85911L3.23322 6.67648C3.28666 6.56964 3.34248 6.46 3.40043 6.34791C3.52061 6.11547 3.64639 5.87927 3.77404 5.64498L4.11663 5.02888L4.18873 4.90639C4.19434 4.89735 4.19909 4.88996 4.20291 4.88434C4.26803 4.71454 4.39256 4.57417 4.55339 4.4893C4.71422 4.40441 4.9004 4.38082 5.07731 4.42289C5.25424 4.46495 5.40987 4.56984 5.51527 4.71801C5.60562 4.84503 5.65381 4.99645 5.64848 5.18236L5.64129 5.27823L5.47336 5.90097L7.78905 4.31751C7.85897 4.26961 7.93545 4.2324 8.01596 4.20696L8.09771 4.18548Z" fill="#4C4C52"/>
<path fill-rule="evenodd" clip-rule="evenodd" d="M9.72236 4.99506C9.93072 4.90987 10.1641 4.90976 10.3726 4.99475C10.581 5.07973 10.7478 5.24301 10.8373 5.4497C10.913 5.62467 10.928 5.81888 10.8804 6.00542C10.9624 6.01363 11.0429 6.03358 11.1195 6.0648C11.2254 6.10801 11.3217 6.17193 11.4025 6.25269C11.4835 6.33357 11.5475 6.4298 11.5908 6.53575C11.6341 6.64162 11.6559 6.75509 11.6548 6.8695C11.654 6.95533 11.6403 7.0404 11.6154 7.11942L11.5868 7.19623L11.49 7.43369C11.5688 7.44243 11.6462 7.46204 11.7199 7.4921C11.8259 7.53532 11.9222 7.59924 12.003 7.67999C12.084 7.76085 12.148 7.85708 12.1913 7.96306C12.2346 8.06893 12.2564 8.18235 12.2553 8.29717C12.2544 8.38295 12.2407 8.46794 12.2159 8.54683L12.1874 8.62351L10.8096 12.0038C10.5953 12.5286 10.1814 12.9468 9.65893 13.1664C9.17995 13.3678 8.64559 13.3872 8.15583 13.2243L8.02344 13.1753L6.89526 12.7167C6.562 12.5806 6.26848 12.3626 6.04185 12.0829C5.81522 11.8032 5.66278 11.4708 5.59864 11.1165C5.54575 10.8236 5.49679 10.4773 5.45152 10.088C5.41394 9.76485 5.3803 9.42492 5.35062 9.08084L5.29938 8.43005L5.28332 8.17565C5.28337 8.16691 5.28414 8.16473 5.28591 8.17113C5.24563 7.99317 5.27156 7.80663 5.35885 7.6464C5.44614 7.48618 5.5888 7.36323 5.76016 7.30057C5.93152 7.23791 6.11985 7.23981 6.28991 7.30594C6.43567 7.36262 6.55946 7.46314 6.65688 7.62141L6.70338 7.70542L6.90546 8.31634L7.96226 5.72941C7.99231 5.64837 8.03434 5.57247 8.08681 5.50421L8.1427 5.43859C8.22172 5.35472 8.31679 5.28758 8.42222 5.24118C8.52759 5.19479 8.64122 5.17003 8.75686 5.16824C8.87201 5.16678 8.98628 5.18833 9.09293 5.23172C9.16966 5.26294 9.24131 5.305 9.30569 5.35646C9.40063 5.19437 9.54668 5.0669 9.72236 4.99506ZM8.99026 6.10705C8.99875 6.08311 9.00331 6.05796 9.00375 6.03255C9.00429 6.00095 8.99851 5.96967 8.98676 5.94057C8.97498 5.91134 8.95746 5.88482 8.93512 5.86242C8.91295 5.84017 8.8865 5.82258 8.85735 5.81072C8.82815 5.79884 8.79681 5.79293 8.76567 5.79335C8.73405 5.79382 8.7029 5.8006 8.67405 5.81331C8.64524 5.82598 8.61927 5.84433 8.59766 5.86726C8.58327 5.88253 8.57103 5.89962 8.56013 5.92088L8.54469 5.95617L7.16489 9.33627C7.063 9.58586 6.72378 9.59248 6.60271 9.37151L6.57885 9.31648L6.12926 7.94769C6.11522 7.92062 6.0918 7.89959 6.06337 7.88854C6.03495 7.87749 6.00348 7.87717 5.97484 7.88765C5.94621 7.89812 5.92236 7.91867 5.90777 7.94545C5.89318 7.97222 5.88885 8.0034 5.90275 8.08363L5.94543 8.68703C5.98094 9.14039 6.02333 9.59361 6.07243 10.0158C6.11631 10.3931 6.16353 10.7271 6.21376 11.0053C6.25915 11.256 6.36708 11.4914 6.52751 11.6893C6.66121 11.8543 6.82779 11.989 7.01584 12.085L7.13116 12.1378L8.25917 12.5964C8.63057 12.7478 9.04692 12.7456 9.41667 12.5901C9.74941 12.4503 10.0199 12.1966 10.1812 11.8767L10.2308 11.7676L11.611 8.38163C11.6234 8.353 11.6299 8.32203 11.6303 8.291C11.6306 8.25972 11.6246 8.22864 11.6127 8.19962C11.6009 8.17061 11.5834 8.14438 11.5612 8.12224C11.5392 8.10021 11.5129 8.08274 11.4839 8.07093C11.455 8.05913 11.4239 8.05322 11.3927 8.05355C11.3614 8.05388 11.3305 8.06045 11.3019 8.07283C11.2732 8.08527 11.2472 8.10329 11.2256 8.1259C11.2111 8.14093 11.1988 8.15778 11.1882 8.17773L11.1735 8.21014L10.5534 9.73119C10.4882 9.89104 10.3058 9.96779 10.146 9.90263C10.0039 9.8447 9.92745 9.69415 9.95799 9.54914L9.97454 9.49522L10.5923 7.98003C10.5961 7.97026 10.6 7.96056 10.6041 7.95094L11.0105 6.95434C11.0229 6.92562 11.0294 6.89477 11.0297 6.8636C11.03 6.83225 11.0241 6.80122 11.0122 6.77232C11.0004 6.74341 10.983 6.71715 10.9607 6.69494C10.9386 6.67286 10.9124 6.65542 10.8834 6.64362C10.8545 6.63182 10.8235 6.62592 10.7921 6.62625C10.7609 6.62658 10.7301 6.63314 10.7013 6.64558C10.6727 6.65798 10.6467 6.67599 10.625 6.6986C10.6106 6.71363 10.5983 6.73049 10.5877 6.75043L10.5729 6.78283L9.74619 8.81064C9.68102 8.97048 9.49861 9.04723 9.33877 8.98206C9.19669 8.92413 9.12027 8.77358 9.15081 8.62857L9.16735 8.57465L9.99178 6.55272L9.99304 6.54943L9.99406 6.54611L10.2672 5.87558C10.2893 5.81812 10.288 5.7543 10.2636 5.69795C10.2392 5.64145 10.1936 5.59681 10.1366 5.57358C10.0796 5.55035 10.0159 5.55039 9.95894 5.57366C9.91621 5.59113 9.87991 5.62063 9.85518 5.65566L9.8345 5.69229L8.73186 8.39721C8.66671 8.55706 8.48432 8.63383 8.32447 8.56868C8.18238 8.51077 8.10594 8.36022 8.13646 8.21521L8.153 8.16129L8.97935 6.13416L8.97984 6.13258L8.99026 6.10705Z" fill="#4C4C52"/>
<path d="M11.7215 3.42504C11.8436 3.30298 12.0415 3.30298 12.1635 3.42504C12.272 3.53353 12.2841 3.70195 12.1997 3.82376L12.1635 3.86705L11.5384 4.49214C11.4164 4.6142 11.2185 4.6142 11.0964 4.49214C10.9879 4.38365 10.9759 4.21523 11.0603 4.09342L11.0964 4.05013L11.7215 3.42504Z" fill="#4C4C52"/>
<path d="M12.6681 5.20878C12.6681 5.03617 12.5281 4.89623 12.3555 4.89623H11.9388L11.8826 4.90127C11.7368 4.92773 11.6262 5.05535 11.6262 5.20878C11.6262 5.3814 11.7662 5.52133 11.9388 5.52133H12.3555L12.4117 5.51629C12.5575 5.48983 12.6681 5.36222 12.6681 5.20878Z" fill="#4C4C52"/>
</g>
</g>
</svg>
