<svg width="202" height="200" viewBox="0 0 202 200" fill="none" xmlns="http://www.w3.org/2000/svg">
<g id="NUA 2 / Element / Icon / Clap">
<g id="Icon">
<path d="M131.758 44.8716C131.425 43.049 129.82 41.667 127.89 41.667C125.719 41.667 123.959 43.4161 123.959 45.5738V50.783L124.022 51.4853C124.355 53.3078 125.96 54.6898 127.89 54.6898C130.062 54.6898 131.822 52.9407 131.822 50.783V45.5738L131.758 44.8716Z" fill="url(#paint0_linear_794_3476)"/>
<path d="M101.854 52.3168C103.244 52.0254 104.679 52.0092 106.076 52.2691C107.473 52.529 108.805 53.0599 109.995 53.8313C111.186 54.6027 112.211 55.5998 113.014 56.7654C114.24 58.546 113.782 60.9774 111.99 62.1959C110.397 63.2791 108.287 63.0394 106.977 61.7221L106.525 61.1781C106.306 60.8595 106.026 60.587 105.701 60.3763C105.375 60.1654 105.011 60.0204 104.63 59.9494C104.248 59.8783 103.856 59.8828 103.476 59.9625L102.923 60.1361L102.413 60.4149L64.5152 86.174C61.6905 88.094 58.042 85.7677 58.3776 82.5827L58.4993 81.9353L63.2488 64.5694C63.2873 64.1913 63.1863 63.8123 62.9646 63.5026C62.7431 63.1931 62.416 62.974 62.044 62.8861C61.6721 62.7982 61.2808 62.8475 60.9427 63.0249C60.6046 63.2022 60.3427 63.4954 59.9376 64.4086L57.4492 68.7678L56.7601 69.9946C55.1672 72.8383 53.5745 75.7398 52.0299 78.6264L48.7058 84.9683L46.6007 89.1565L44.618 93.2884L42.9413 97.0138C41.6806 99.9426 41.1831 103.14 41.4945 106.31C41.7541 108.952 42.5684 111.505 43.8768 113.803L44.7206 115.15L53.3736 127.721C54.9809 130.065 57.1019 132.017 59.577 133.428C61.46 134.502 62.1106 136.89 61.0299 138.761C59.9493 140.633 57.5467 141.279 55.6636 140.205C52.6581 138.491 50.0212 136.215 47.898 133.512L46.8799 132.126L38.2286 119.558C35.6771 115.842 34.109 111.547 33.6692 107.07C33.2294 102.592 33.9321 98.077 35.7143 93.9363C36.2473 92.7023 36.8341 91.3988 37.4713 90.0307L39.5309 85.7372L40.6676 83.4542C41.3398 82.1188 42.0419 80.7482 42.7709 79.3471C44.2825 76.4417 45.8646 73.4892 47.4702 70.5605L51.7793 62.8593L52.6862 61.3281C52.7568 61.2151 52.8166 61.1228 52.8646 61.0525C53.6836 58.9301 55.25 57.1754 57.2729 56.1145C59.2959 55.0535 61.6377 54.7585 63.8629 55.2844C66.0883 55.8102 68.0459 57.1212 69.3716 58.9735C70.508 60.5611 71.1142 62.454 71.0471 64.7778L70.9567 65.9762L68.8445 73.7604L97.9714 53.9672C98.8509 53.3684 99.8129 52.9033 100.826 52.5852L101.854 52.3168Z" fill="url(#paint1_linear_794_3476)"/>
<path fill-rule="evenodd" clip-rule="evenodd" d="M122.289 62.4366C124.91 61.3717 127.846 61.3703 130.467 62.4326C133.089 63.4949 135.187 65.536 136.313 68.1195C137.265 70.3067 137.454 72.7343 136.855 75.0661C137.886 75.1687 138.899 75.418 139.862 75.8083C141.195 76.3484 142.405 77.1474 143.422 78.1569C144.441 79.1679 145.246 80.3708 145.791 81.6952C146.335 83.0186 146.609 84.4369 146.595 85.867C146.585 86.9399 146.413 88.0033 146.1 88.9911L145.741 89.9512L144.523 92.9194C145.514 93.0286 146.487 93.2738 147.415 93.6496C148.748 94.1898 149.959 94.9888 150.975 95.9982C151.994 97.0089 152.799 98.2117 153.344 99.5365C153.888 100.86 154.162 102.278 154.149 103.713C154.137 104.785 153.965 105.848 153.653 106.834L153.294 107.792L135.964 150.045C133.269 156.605 128.063 161.833 121.491 164.578C115.466 167.096 108.745 167.339 102.585 165.302L100.92 164.69L86.7292 158.957C82.5374 157.255 78.8455 154.53 75.9949 151.034C73.1444 147.538 71.227 143.384 70.4202 138.954C69.755 135.293 69.1392 130.964 68.5697 126.098C68.097 122.059 67.674 117.81 67.3006 113.509L66.6561 105.374L66.4541 102.194C66.4547 102.085 66.4644 102.057 66.4866 102.137C65.98 99.9129 66.3062 97.5812 67.4041 95.5783C68.502 93.5755 70.2965 92.0387 72.4519 91.2555C74.6073 90.4721 76.976 90.496 79.115 91.3225C80.9485 92.031 82.5055 93.2876 83.7309 95.2659L84.3157 96.3161L86.8575 103.953L100.15 71.6159C100.528 70.6029 101.057 69.6542 101.717 68.8009L102.42 67.9807C103.414 66.9323 104.609 66.0931 105.936 65.5131C107.261 64.9332 108.69 64.6237 110.145 64.6012C111.593 64.583 113.03 64.8524 114.372 65.3948C115.337 65.785 116.238 66.3109 117.048 66.954C118.242 64.9279 120.079 63.3345 122.289 62.4366ZM113.08 76.3364C113.187 76.0372 113.245 75.7227 113.25 75.4052C113.257 75.0101 113.184 74.6192 113.036 74.2554C112.888 73.8901 112.668 73.5585 112.387 73.2786C112.108 73.0004 111.775 72.7806 111.409 72.6323C111.041 72.4838 110.647 72.4099 110.256 72.4151C109.858 72.421 109.466 72.5058 109.103 72.6646C108.741 72.8231 108.414 73.0524 108.142 73.339C107.961 73.5299 107.807 73.7436 107.67 74.0093L107.476 74.4504L90.1207 116.702C88.8391 119.822 84.5724 119.904 83.0495 117.142L82.7494 116.454L77.0945 99.3444C76.9179 99.0061 76.6232 98.7432 76.2657 98.6051C75.9082 98.4669 75.5124 98.463 75.1522 98.5939C74.7919 98.7248 74.492 98.9817 74.3085 99.3164C74.125 99.6511 74.0706 100.041 74.2453 101.044L74.7822 108.586C75.2289 114.253 75.762 119.918 76.3796 125.195C76.9315 129.912 77.5255 134.087 78.1573 137.564C78.7282 140.699 80.0857 143.64 82.1036 146.115C83.7853 148.178 85.8806 149.861 88.2459 151.06L89.6964 151.721L103.885 157.453C108.556 159.346 113.793 159.318 118.444 157.375C122.629 155.627 126.031 152.456 128.06 148.457L128.684 147.094L146.045 104.769C146.2 104.411 146.283 104.024 146.287 103.636C146.29 103.245 146.215 102.856 146.066 102.494C145.917 102.131 145.697 101.803 145.419 101.526C145.141 101.251 144.81 101.033 144.446 100.885C144.082 100.737 143.692 100.663 143.298 100.668C142.905 100.672 142.517 100.754 142.156 100.909C141.795 101.064 141.469 101.289 141.197 101.572C141.015 101.76 140.86 101.971 140.726 102.22L140.541 102.625L132.742 121.638C131.922 123.636 129.628 124.596 127.617 123.781C125.83 123.057 124.869 121.175 125.253 119.363L125.461 118.688L133.231 99.7487C133.278 99.6265 133.328 99.5053 133.379 99.3851L138.491 86.9276C138.647 86.5686 138.729 86.1829 138.733 85.7933C138.737 85.4014 138.662 85.0135 138.513 84.6523C138.365 84.2909 138.145 83.9627 137.865 83.685C137.587 83.409 137.257 83.191 136.893 83.0436C136.529 82.8961 136.139 82.8223 135.745 82.8264C135.352 82.8305 134.964 82.9125 134.602 83.068C134.242 83.2231 133.916 83.4481 133.643 83.7307C133.461 83.9187 133.306 84.1294 133.173 84.3787L132.988 84.7837L122.589 110.131C121.769 112.129 119.475 113.089 117.464 112.274C115.677 111.55 114.716 109.668 115.1 107.855L115.308 107.181L125.678 81.9073L125.694 81.8662L125.706 81.8246L129.142 73.4431C129.42 72.7248 129.404 71.927 129.097 71.2227C128.789 70.5165 128.216 69.9584 127.499 69.668C126.783 69.3777 125.981 69.3781 125.265 69.669C124.727 69.8874 124.271 70.2561 123.96 70.694L123.699 71.1519L109.83 104.963C109.011 106.962 106.717 107.921 104.706 107.107C102.919 106.383 101.957 104.501 102.341 102.688L102.549 102.014L112.943 76.6753L112.949 76.6555L113.08 76.3364Z" fill="url(#paint2_linear_794_3476)"/>
<path d="M147.435 42.8113C148.97 41.2856 151.459 41.2856 152.994 42.8113C154.359 44.1675 154.511 46.2727 153.449 47.7953L152.994 48.3364L145.132 56.1501C143.597 57.6758 141.107 57.6758 139.572 56.1501C138.207 54.7939 138.056 52.6887 139.117 51.1661L139.572 50.625L147.435 42.8113Z" fill="url(#paint3_linear_794_3476)"/>
<path d="M159.34 65.1081C159.34 62.9504 157.58 61.2012 155.409 61.2012H150.167L149.461 61.2642C147.627 61.595 146.236 63.1901 146.236 65.1081C146.236 67.2658 147.996 69.0149 150.167 69.0149H155.409L156.116 68.952C157.95 68.6212 159.34 67.026 159.34 65.1081Z" fill="url(#paint4_linear_794_3476)"/>
</g>
</g>
<defs>
<linearGradient id="paint0_linear_794_3476" x1="96.4411" y1="41.667" x2="96.4411" y2="166.667" gradientUnits="userSpaceOnUse">
<stop stop-color="#25F68D"/>
<stop offset="1" stop-color="#1BC0F2"/>
</linearGradient>
<linearGradient id="paint1_linear_794_3476" x1="96.4411" y1="41.667" x2="96.4411" y2="166.667" gradientUnits="userSpaceOnUse">
<stop stop-color="#25F68D"/>
<stop offset="1" stop-color="#1BC0F2"/>
</linearGradient>
<linearGradient id="paint2_linear_794_3476" x1="96.4411" y1="41.667" x2="96.4411" y2="166.667" gradientUnits="userSpaceOnUse">
<stop stop-color="#25F68D"/>
<stop offset="1" stop-color="#1BC0F2"/>
</linearGradient>
<linearGradient id="paint3_linear_794_3476" x1="96.4411" y1="41.667" x2="96.4411" y2="166.667" gradientUnits="userSpaceOnUse">
<stop stop-color="#25F68D"/>
<stop offset="1" stop-color="#1BC0F2"/>
</linearGradient>
<linearGradient id="paint4_linear_794_3476" x1="96.4411" y1="41.667" x2="96.4411" y2="166.667" gradientUnits="userSpaceOnUse">
<stop stop-color="#25F68D"/>
<stop offset="1" stop-color="#1BC0F2"/>
</linearGradient>
</defs>
</svg>
