<svg width="24" height="24" viewBox="0 0 24 24" fill="none" xmlns="http://www.w3.org/2000/svg">
<path d="M18.7376 0.615186C18.6741 0.265314 18.3679 0 17.9997 0C17.5854 0 17.2497 0.335787 17.2497 0.75V1.75L17.2618 1.88482C17.3253 2.23469 17.6315 2.5 17.9997 2.5C18.4139 2.5 18.7497 2.16422 18.7497 1.75V0.75L18.7376 0.615186Z" fill="white"/>
<path d="M13.0325 2.04445C13.2977 1.98851 13.5715 1.9854 13.8381 2.03529C14.1046 2.08519 14.3586 2.1871 14.5857 2.33519C14.8128 2.48328 15.0085 2.67468 15.1616 2.89845C15.3955 3.24028 15.3081 3.70703 14.9662 3.94095C14.6624 4.14889 14.2598 4.10287 14.0098 3.85L13.9237 3.74557C13.8819 3.6844 13.8284 3.63209 13.7663 3.59163C13.7043 3.55116 13.6348 3.52331 13.562 3.50968C13.4892 3.49605 13.4144 3.4969 13.3419 3.51219L13.2364 3.54553L13.1391 3.59906L5.90906 8.54405C5.37017 8.91262 4.67412 8.46604 4.73815 7.85462L4.76136 7.73034L5.66747 4.39659C5.6748 4.32401 5.65554 4.25125 5.61325 4.1918C5.57098 4.13238 5.50858 4.09032 5.43761 4.07345C5.36666 4.05658 5.29201 4.06604 5.2275 4.10008C5.163 4.13413 5.11305 4.19042 5.03575 4.36573L4.56102 5.20256L4.42955 5.43807C4.12567 5.98397 3.82181 6.54098 3.52714 7.09511L2.89297 8.31258L2.49136 9.11659L2.11311 9.90979L1.79323 10.625C1.55272 11.1872 1.45781 11.801 1.51721 12.4096C1.56673 12.9168 1.72208 13.4068 1.9717 13.848L2.13269 14.1066L3.78348 16.5198C4.09012 16.9698 4.49477 17.3445 4.96695 17.6154C5.32621 17.8216 5.45032 18.28 5.24415 18.6392C5.038 18.9985 4.57963 19.1226 4.22036 18.9165C3.64698 18.5874 3.14392 18.1505 2.73887 17.6316L2.54464 17.3655L0.89415 14.9527C0.407375 14.2394 0.108215 13.4149 0.0243071 12.5554C-0.0595896 11.6959 0.0744665 10.8291 0.41447 10.0342C0.516151 9.79729 0.628109 9.54705 0.749679 9.28441L1.1426 8.46019L1.35947 8.02192C1.4877 7.76557 1.62165 7.50245 1.76072 7.23348C2.0491 6.67572 2.35094 6.10893 2.65725 5.54671L3.47934 4.0683L3.65235 3.77436C3.66582 3.75267 3.67722 3.73494 3.68638 3.72146C3.84263 3.31401 4.14147 2.97716 4.52739 2.7735C4.91333 2.56981 5.3601 2.51318 5.78462 2.61414C6.20917 2.71509 6.58264 2.96676 6.83556 3.32233C7.05236 3.62712 7.16801 3.99049 7.1552 4.43659L7.13797 4.66665L6.735 6.161L12.2918 2.36127C12.4596 2.24633 12.6431 2.15703 12.8363 2.09599L13.0325 2.04445Z" fill="white"/>
<path fill-rule="evenodd" clip-rule="evenodd" d="M16.931 3.98715C17.431 3.78272 17.9911 3.78245 18.4913 3.98639C18.9915 4.19031 19.3918 4.58215 19.6065 5.0781C19.7881 5.49798 19.8242 5.96401 19.7099 6.41165C19.9066 6.43134 20.0998 6.47921 20.2836 6.55414C20.5378 6.65782 20.7688 6.8112 20.9627 7.00499C21.1571 7.19907 21.3108 7.43 21.4147 7.68424C21.5186 7.93829 21.5707 8.21056 21.5681 8.48511C21.5662 8.69108 21.5334 8.89521 21.4736 9.08484L21.4051 9.26916L21.1728 9.83895C21.3619 9.85993 21.5475 9.907 21.7245 9.97913C21.9788 10.0828 22.2099 10.2362 22.4037 10.43C22.5981 10.624 22.7517 10.8549 22.8556 11.1093C22.9595 11.3633 23.0117 11.6355 23.0092 11.911C23.007 12.1168 22.9742 12.3208 22.9146 12.5101L22.8462 12.6941L19.54 20.8055C19.0258 22.0648 18.0326 23.0683 16.7788 23.5953C15.6294 24.0786 14.3472 24.1253 13.1719 23.7342L12.8542 23.6167L10.147 22.5163C9.34732 22.1896 8.64298 21.6665 8.09914 20.9953C7.55532 20.3242 7.18953 19.5266 7.03561 18.6763C6.90871 17.9735 6.79122 17.1425 6.68258 16.2083C6.59239 15.4329 6.51169 14.6172 6.44046 13.7915L6.31749 12.2299L6.27897 11.6194C6.27908 11.5984 6.28093 11.5932 6.28516 11.6086C6.18852 11.1815 6.25074 10.7339 6.4602 10.3494C6.66966 9.96491 7.01201 9.66989 7.42321 9.51953C7.83441 9.36916 8.28632 9.37373 8.6944 9.5324C9.04419 9.66841 9.34123 9.90964 9.57501 10.2894L9.68658 10.491L10.1715 11.957L12.7074 5.74931C12.7795 5.55484 12.8804 5.37272 13.0063 5.20892L13.1404 5.05146C13.33 4.8502 13.5582 4.68909 13.8112 4.57775C14.064 4.46643 14.3367 4.40702 14.6142 4.4027C14.8905 4.39921 15.1647 4.45091 15.4206 4.55504C15.6048 4.62995 15.7767 4.7309 15.9312 4.85437C16.159 4.46542 16.5095 4.15953 16.931 3.98715ZM15.1742 6.65551C15.1946 6.59807 15.2056 6.5377 15.2066 6.47674C15.2079 6.4009 15.194 6.32586 15.1659 6.25601C15.1376 6.18589 15.0956 6.12224 15.042 6.06849C14.9888 6.0151 14.9253 5.97289 14.8553 5.94443C14.7853 5.91592 14.71 5.90174 14.6353 5.90274C14.5594 5.90387 14.4847 5.92015 14.4155 5.95064C14.3463 5.98105 14.284 6.02507 14.2322 6.08011C14.1976 6.11674 14.1683 6.15777 14.1421 6.20877L14.105 6.29346L10.794 14.4045C10.5495 15.0034 9.73555 15.0193 9.44501 14.489L9.38775 14.357L8.30891 11.0724C8.27522 11.0074 8.21901 10.957 8.1508 10.9304C8.08261 10.9039 8.00709 10.9032 7.93837 10.9283C7.86964 10.9534 7.81242 11.0027 7.7774 11.067C7.74241 11.1312 7.73202 11.2061 7.76535 11.3986L7.86779 12.8465C7.953 13.9344 8.05472 15.022 8.17253 16.035C8.27783 16.9404 8.39114 17.7418 8.51168 18.4094C8.62061 19.0112 8.87959 19.5759 9.26455 20.051C9.58539 20.4469 9.98512 20.7701 10.4364 21.0003L10.7131 21.1272L13.4199 22.2275C14.3111 22.591 15.3102 22.5856 16.1975 22.2125C16.996 21.8769 17.645 21.2682 18.032 20.5005L18.1511 20.2389L21.4631 12.1137C21.4928 12.045 21.5085 11.9707 21.5093 11.8962C21.51 11.8211 21.4957 11.7466 21.4672 11.6769C21.4387 11.6073 21.3969 11.5444 21.3437 11.4912C21.2908 11.4384 21.2276 11.3965 21.1581 11.3681C21.0886 11.3398 21.0142 11.3256 20.9392 11.3264C20.8642 11.3272 20.7901 11.343 20.7213 11.3727C20.6524 11.4025 20.5902 11.4458 20.5382 11.5C20.5036 11.5361 20.474 11.5765 20.4485 11.6244L20.4132 11.7022L18.9252 15.3521C18.7688 15.7357 18.3311 15.9199 17.9475 15.7635C17.6066 15.6245 17.4232 15.2632 17.4965 14.9153L17.5362 14.7859L19.0186 11.15C19.0276 11.1265 19.037 11.1033 19.0469 11.0802L20.0221 8.6887C20.0518 8.61979 20.0675 8.54575 20.0682 8.47095C20.0689 8.39573 20.0546 8.32127 20.0263 8.25191C19.9979 8.18254 19.956 8.11953 19.9026 8.06623C19.8496 8.01325 19.7866 7.9714 19.7172 7.94309C19.6477 7.91478 19.5733 7.9006 19.4981 7.9014C19.4232 7.90219 19.3491 7.91794 19.2802 7.94778C19.2114 7.97755 19.1492 8.02076 19.0971 8.07501C19.0625 8.11109 19.0329 8.15153 19.0074 8.19939L18.9721 8.27715L16.9882 13.1431C16.8318 13.5267 16.3941 13.7109 16.0106 13.5545C15.6696 13.4155 15.4862 13.0542 15.5595 12.7062L15.5992 12.5768L17.5775 7.72495L17.5806 7.71707L17.583 7.70909L18.2385 6.10007C18.2915 5.96218 18.2883 5.80904 18.2299 5.67383C18.1712 5.53825 18.0617 5.43112 17.925 5.37538C17.7883 5.31965 17.6353 5.31972 17.4987 5.37557C17.3962 5.41749 17.3091 5.48828 17.2498 5.57234L17.2001 5.66024L14.5542 12.1511C14.3979 12.5346 13.9602 12.7189 13.5766 12.5625C13.2356 12.4236 13.0522 12.0623 13.1254 11.7143L13.1651 11.5849L15.1481 6.72057L15.1493 6.71677L15.1742 6.65551Z" fill="white"/>
<path d="M21.7283 0.219669C22.0212 -0.0732222 22.4961 -0.0732222 22.789 0.219669C23.0493 0.48002 23.0782 0.884156 22.8757 1.17646L22.789 1.28033L21.289 2.78033C20.9961 3.07322 20.5212 3.07322 20.2283 2.78033C19.9679 2.51998 19.939 2.11584 20.1415 1.82354L20.2283 1.71967L21.7283 0.219669Z" fill="white"/>
<path d="M23.9997 4.5C23.9997 4.08579 23.6639 3.75 23.2497 3.75H22.2496L22.1148 3.76208C21.7649 3.82559 21.4996 4.13181 21.4996 4.5C21.4996 4.91421 21.8354 5.25 22.2496 5.25H23.2497L23.3845 5.23792C23.7343 5.17441 23.9997 4.86819 23.9997 4.5Z" fill="white"/>
</svg>
