<svg xmlns="http://www.w3.org/2000/svg" width="24" height="24" viewBox="0 0 24 24" fill="none">
  <rect width="24" height="24" fill="white"/>
  <path fill-rule="evenodd" clip-rule="evenodd" d="M11.4334 3.01634C9.72093 3.1172 7.98757 3.75246 6.62287 4.77935C4.64566 6.26716 3.38807 8.41772 3.06994 10.8551C2.95478 11.7374 2.98272 12.7485 3.14722 13.6529C3.35819 14.8128 3.85061 16.0177 4.52068 17.0136C5.89668 19.0587 8.0457 20.456 10.454 20.8716C11.4665 21.0463 12.5333 21.0463 13.5458 20.8716C15.2745 20.5733 16.8902 19.7636 18.1715 18.5534C19.7139 17.0965 20.6705 15.2083 20.9383 13.0921C21.0403 12.2856 21.0147 11.2935 20.8701 10.4555C20.5404 8.54517 19.586 6.77657 18.1647 5.44236C16.3412 3.73068 13.9483 2.86824 11.4334 3.01634ZM11.491 4.21674C10.1201 4.32584 8.93174 4.71514 7.81349 5.42143C6.88669 6.00681 6.00528 6.88822 5.41989 7.81503C4.77634 8.83395 4.39885 9.90398 4.24789 11.1373C4.19985 11.5297 4.19985 12.4731 4.24789 12.8656C4.39885 14.0989 4.77634 15.1689 5.41989 16.1878C6.00528 17.1146 6.88669 17.996 7.81349 18.5814C8.83094 19.224 9.90619 19.6034 11.1357 19.7535C11.5284 19.8014 12.472 19.8014 12.8641 19.7534C14.0944 19.6028 15.1698 19.2234 16.1863 18.5814C17.1131 17.996 17.9945 17.1146 18.5799 16.1878C19.2219 15.1713 19.6013 14.0959 19.7519 12.8656C19.7999 12.4736 19.7999 11.53 19.752 11.1373C19.6018 9.90773 19.2225 8.83248 18.5799 7.81503C17.9945 6.88822 17.1131 6.00681 16.1863 5.42143C15.1748 4.78254 14.087 4.39747 12.8833 4.25217C12.6356 4.22227 11.7156 4.19886 11.491 4.21674ZM11.888 8.41313C11.6982 8.44379 11.5386 8.57229 11.4501 8.76565L11.4053 8.86345L11.4042 10.499L11.403 12.1346L11.4451 12.2361C11.4823 12.3258 11.709 12.5599 13.4094 14.2647C14.468 15.3259 15.3756 16.2205 15.4294 16.2556C15.8227 16.5125 16.3427 16.2303 16.345 15.7588C16.3463 15.4825 16.4716 15.625 14.4261 13.5758L12.5952 11.7415L12.595 10.3016L12.5948 8.86163L12.5495 8.76436C12.4921 8.64105 12.4049 8.54148 12.301 8.48057C12.2291 8.43844 12.1854 8.42592 12.0287 8.40235C12.0076 8.39918 11.9443 8.40402 11.888 8.41313Z" fill="#4C4C52"/>
</svg>