<svg width="24" height="24" viewBox="0 0 24 24" fill="none" xmlns="http://www.w3.org/2000/svg">
<path fill-rule="evenodd" clip-rule="evenodd" d="M0.21967 0.21967C0.512563 -0.0732233 0.987437 -0.0732233 1.28033 0.21967L12 10.9393L22.7197 0.21967C23.0126 -0.0732233 23.4874 -0.0732233 23.7803 0.21967C24.0732 0.512563 24.0732 0.987437 23.7803 1.28033L13.0607 12L23.7803 22.7197C24.0732 23.0126 24.0732 23.4874 23.7803 23.7803C23.4874 24.0732 23.0126 24.0732 22.7197 23.7803L12 13.0607L1.28033 23.7803C0.987437 24.0732 0.512563 24.0732 0.21967 23.7803C-0.0732233 23.4874 -0.0732233 23.0126 0.21967 22.7197L10.9393 12L0.21967 1.28033C-0.0732233 0.987437 -0.0732233 0.512563 0.21967 0.21967Z" fill="#19192E"/>
</svg>
