<svg xmlns="http://www.w3.org/2000/svg" width="16" height="16" viewBox="0 0 16 16" fill="none">
  <g clip-path="url(#clip0_1120_10435)">
    <path fill-rule="evenodd" clip-rule="evenodd" d="M2.34315 2.34315C3.84344 0.842855 5.87827 0 8 0C10.1217 0 12.1566 0.842855 13.6569 2.34315C15.1571 3.84344 16 5.87827 16 8C16 10.1217 15.1571 12.1566 13.6569 13.6569C12.1566 15.1571 10.1217 16 8 16C5.87827 16 3.84344 15.1571 2.34315 13.6569C0.842855 12.1566 0 10.1217 0 8C0 5.87827 0.842855 3.84344 2.34315 2.34315ZM8 1C6.14348 1 4.36301 1.7375 3.05025 3.05025C1.7375 4.36301 1 6.14348 1 8C1 9.85652 1.7375 11.637 3.05025 12.9497C4.36301 14.2625 6.14348 15 8 15C9.85652 15 11.637 14.2625 12.9497 12.9497C14.2625 11.637 15 9.85652 15 8C15 6.14348 14.2625 4.36301 12.9497 3.05025C11.637 1.7375 9.85652 1 8 1ZM5.52509 5.52514C5.72033 5.32986 6.03691 5.32984 6.23219 5.52509L8 7.29262L9.76781 5.52509C9.96309 5.32984 10.2797 5.32986 10.4749 5.52514C10.6702 5.72042 10.6701 6.037 10.4749 6.23225L8.70716 7.99967L10.4749 9.76709C10.6701 9.96233 10.6702 10.2789 10.4749 10.4742C10.2797 10.6695 9.96309 10.6695 9.76781 10.4742L8 8.70672L6.23219 10.4742C6.03691 10.6695 5.72033 10.6695 5.52509 10.4742C5.32984 10.2789 5.32986 9.96233 5.52514 9.76709L7.29284 7.99967L5.52514 6.23225C5.32986 6.037 5.32984 5.72042 5.52509 5.52514Z" fill="#43DFBA"/>
  </g>
  <defs>
    <clipPath id="clip0_1120_10435">
      <rect width="16" height="16" fill="white"/>
    </clipPath>
  </defs>
</svg>