<svg width="24" height="28" viewBox="0 0 24 28" fill="none" xmlns="http://www.w3.org/2000/svg">
<rect width="24" height="24" fill="#151451"/>
<path d="M12.5 28L9.46891 23.5L15.5311 23.5L12.5 28Z" fill="#151451"/>
<path fill-rule="evenodd" clip-rule="evenodd" d="M11.5248 10.4246C10.9174 10.1412 10.2225 10.1097 9.59189 10.3369C8.96115 10.5641 8.44593 11.0317 8.15874 11.6374L7.23834 13.5935C6.95487 14.2011 6.92299 14.8968 7.1502 15.5277C7.37734 16.1583 7.84463 16.6734 8.45012 16.9608C9.05758 17.244 9.7524 17.2755 10.383 17.0484C11.0141 16.8211 11.5295 16.3533 11.8168 15.7471C11.9351 15.4976 12.2332 15.3912 12.4828 15.5094C12.7323 15.6277 12.8387 15.9259 12.7204 16.1754C12.32 17.0203 11.6015 17.6724 10.7219 17.9892C9.84223 18.306 8.87295 18.2618 8.02577 17.8663L8.23729 17.4133L8.02315 17.8651C7.17827 17.4647 6.5262 16.7462 6.20937 15.8665C5.89254 14.9869 5.93671 14.0176 6.33223 13.1704L6.33287 13.1691L7.25476 11.2099C7.65504 10.365 8.37343 9.71293 9.25297 9.39609C10.1325 9.07924 11.1017 9.12339 11.9488 9.51888L11.7373 9.97194L11.9506 9.51973C12.4457 9.75328 12.8796 10.0988 13.2181 10.529C13.5566 10.9591 13.7904 11.4622 13.901 11.9983C13.9568 12.2687 13.7827 12.5332 13.5123 12.589C13.2418 12.6447 12.9774 12.4707 12.9216 12.2003C12.8424 11.8161 12.6748 11.4556 12.4322 11.1474C12.1899 10.8394 11.8792 10.5919 11.5248 10.4246Z" fill="white"/>
<path fill-rule="evenodd" clip-rule="evenodd" d="M15.5478 7.0377C14.9403 6.75454 14.2455 6.72307 13.6149 6.95019C12.9838 7.17749 12.4684 7.64529 12.1811 8.25141C12.0628 8.50094 11.7647 8.60736 11.5151 8.4891C11.2656 8.37083 11.1592 8.07267 11.2775 7.82313C11.6779 6.97826 12.3964 6.32619 13.276 6.00936C14.1557 5.69253 15.125 5.7367 15.9721 6.13221L15.9748 6.13346C16.8195 6.53388 17.4714 7.25226 17.7882 8.13172C18.105 9.01118 18.061 9.98027 17.6657 10.8274L17.665 10.8288L16.7437 12.7868L16.7431 12.7881C16.3427 13.633 15.6242 14.285 14.7445 14.6019C13.8649 14.9187 12.8956 14.8745 12.0484 14.479L12.26 14.0259L12.0468 14.4783C11.6219 14.2781 11.2414 13.9949 10.9275 13.6454C10.6137 13.296 10.3729 12.8873 10.2194 12.4434C10.1292 12.1824 10.2675 11.8977 10.5285 11.8074C10.7895 11.7171 11.0742 11.8555 11.1645 12.1165C11.2744 12.4344 11.4468 12.727 11.6716 12.9773C11.8961 13.2273 12.1683 13.4299 12.4723 13.5733C13.0799 13.8567 13.7749 13.8882 14.4057 13.661C15.0365 13.4338 15.5519 12.9662 15.8392 12.3603L16.7595 10.4045C17.0428 9.79697 17.0746 9.10131 16.8474 8.47064C16.6203 7.84017 16.1531 7.32509 15.5478 7.0377Z" fill="white"/>
</svg>
