<svg width="24" height="24" viewBox="0 0 24 24" fill="none" xmlns="http://www.w3.org/2000/svg">
<path fill-rule="evenodd" clip-rule="evenodd" d="M11.2873 9.63682C10.3761 9.21184 9.33378 9.16456 8.38784 9.50532C7.44172 9.84615 6.6689 10.5475 6.23811 11.4561L4.85751 14.3901C4.43231 15.3016 4.38448 16.3452 4.72531 17.2915C5.066 18.2374 5.76694 19.0101 6.67517 19.4412C7.58637 19.866 8.6286 19.9132 9.57451 19.5725C10.5211 19.2316 11.2943 18.5298 11.7252 17.6207C11.9026 17.2464 12.3498 17.0867 12.7241 17.2641C13.0984 17.4415 13.2581 17.8888 13.0807 18.2631C12.48 19.5304 11.4023 20.5085 10.0828 20.9837C8.76335 21.459 7.30943 21.3927 6.03865 20.7995L6.35594 20.1199L6.03472 20.7976C4.76741 20.197 3.7893 19.1192 3.31406 17.7998C2.83881 16.4803 2.90507 15.0264 3.49834 13.7556L3.4993 13.7535L4.88215 10.8148C5.48256 9.54749 6.56015 8.56937 7.87946 8.0941C9.19877 7.61883 10.6526 7.68505 11.9232 8.2783L11.6059 8.95788L11.9259 8.27957C12.6685 8.62989 13.3194 9.14818 13.8272 9.79343C14.3349 10.4387 14.6856 11.1932 14.8515 11.9974C14.9351 12.403 14.6741 12.7997 14.2684 12.8834C13.8628 12.9671 13.4661 12.7061 13.3824 12.3004C13.2635 11.7241 13.0122 11.1834 12.6484 10.721C12.2848 10.259 11.8189 9.88785 11.2873 9.63682Z" fill="#19192E"/>
<path fill-rule="evenodd" clip-rule="evenodd" d="M17.3216 4.55652C16.4105 4.13178 15.3682 4.08457 14.4223 4.42526C13.4758 4.7662 12.7026 5.4679 12.2717 6.37708C12.0943 6.75139 11.647 6.91101 11.2727 6.73361C10.8984 6.55622 10.7388 6.10897 10.9162 5.73467C11.5168 4.46736 12.5946 3.48925 13.914 3.01401C15.2335 2.53876 16.6874 2.60502 17.9582 3.19829L17.9622 3.20016C19.2292 3.80079 20.2071 4.87837 20.6823 6.19755C21.1575 7.51674 21.0915 8.97037 20.4986 10.241L20.4976 10.2432L19.1156 13.1802L19.1147 13.1821C18.514 14.4494 17.4363 15.4275 16.1168 15.9027C14.7973 16.378 13.3434 16.3117 12.0727 15.7185L12.39 15.0388L12.0703 15.7173C11.4329 15.4171 10.8621 14.9923 10.3913 14.4681C9.92056 13.9439 9.55941 13.3309 9.32912 12.665C9.19373 12.2736 9.40132 11.8465 9.79278 11.7111C10.1842 11.5757 10.6113 11.7833 10.7467 12.1747C10.9116 12.6515 11.1702 13.0905 11.5073 13.4659C11.8442 13.8409 12.2525 14.1449 12.7085 14.3599C13.6198 14.785 14.6623 14.8323 15.6085 14.4915C16.5548 14.1507 17.3278 13.4493 17.7588 12.5405L19.1393 9.60674C19.5642 8.69543 19.6119 7.65194 19.2711 6.70593C18.9304 5.76022 18.2296 4.9876 17.3216 4.55652Z" fill="#19192E"/>
</svg>
