<?xml version="1.0" encoding="UTF-8" standalone="no" ?>
<!DOCTYPE svg PUBLIC "-//W3C//DTD SVG 1.1//EN" "http://www.w3.org/Graphics/SVG/1.1/DTD/svg11.dtd">
<svg xmlns="http://www.w3.org/2000/svg" xmlns:xlink="http://www.w3.org/1999/xlink" version="1.1" width="1080" height="1080" viewBox="0 0 1080 1080" xml:space="preserve">
<desc>Created with Fabric.js 5.2.4</desc>
<defs>
</defs>
<rect x="0" y="0" width="100%" height="100%" fill="transparent"></rect>
<g transform="matrix(1 0 0 1 540 540)" id="5c7b4e73-7e01-43e3-a9d2-4b314ed81b7a"  >
<rect style="stroke: none; stroke-width: 1; stroke-dasharray: none; stroke-linecap: butt; stroke-dashoffset: 0; stroke-linejoin: miter; stroke-miterlimit: 4; fill: rgb(255,255,255); fill-rule: nonzero; opacity: 1; visibility: hidden;" vector-effect="non-scaling-stroke"  x="-540" y="-540" rx="0" ry="0" width="1080" height="1080" />
</g>
<g transform="matrix(1 0 0 1 540 540)" id="d9261d68-f998-417b-8427-de711b6a5619"  >
</g>
<g transform="matrix(NaN NaN NaN NaN 0 0)"  >
<g style=""   >
</g>
</g>
<g transform="matrix(43.2 0 0 43.2 540 540)" clip-path="url(#CLIPPATH_6)"  >
<clipPath id="CLIPPATH_6" >
	<rect transform="matrix(1 0 0 1 0 0)" id="clip0_1484_7148" x="-12" y="-12" rx="0" ry="0" width="24" height="24" />
</clipPath>
<path style="stroke: none; stroke-width: 1; stroke-dasharray: none; stroke-linecap: butt; stroke-dashoffset: 0; stroke-linejoin: miter; stroke-miterlimit: 4; fill: rgb(255,255,255); fill-rule: evenodd; opacity: 1;"  transform=" translate(-12.1, -12)" d="M 12.853 0.75 C 12.853 0.335786 12.5172 0 12.103 0 C 11.6888 0 11.353 0.335786 11.353 0.75 L 11.353 4.53703 C 9.84457 4.6868 8.46759 5.28351 7.35639 6.19287 L 4.67836 3.51484 C 4.38546 3.22194 3.91059 3.22194 3.6177 3.51484 C 3.3248 3.80773 3.3248 4.2826 3.6177 4.5755 L 6.29574 7.25354 C 5.38647 8.36471 4.78982 9.74162 4.64006 11.25 L 0.853027 11.25 C 0.438814 11.25 0.103027 11.5858 0.103027 12 C 0.103027 12.4142 0.438814 12.75 0.853027 12.75 L 4.64006 12.75 C 4.78983 14.2585 5.38654 15.6355 6.29591 16.7467 L 3.6177 19.4249 C 3.3248 19.7178 3.3248 20.1926 3.6177 20.4855 C 3.91059 20.7784 4.38546 20.7784 4.67836 20.4855 L 7.35659 17.8073 C 8.46775 18.7166 9.84466 19.3132 11.353 19.463 L 11.353 23.25 C 11.353 23.6642 11.6888 24 12.103 24 C 12.5172 24 12.853 23.6642 12.853 23.25 L 12.853 19.463 C 14.3614 19.3132 15.7383 18.7166 16.8495 17.8073 L 19.5277 20.4855 C 19.8206 20.7784 20.2955 20.7784 20.5884 20.4855 C 20.8812 20.1926 20.8812 19.7178 20.5884 19.4249 L 17.9101 16.7467 C 17.9747 16.6677 18.0377 16.5875 18.0991 16.5059 C 18.1923 16.3939 18.2832 16.2786 18.3693 16.1614 C 18.6238 15.8148 18.8774 15.3969 18.9961 14.9606 C 19.2926 14.271 19.4888 13.528 19.566 12.75 L 23.353 12.75 C 23.7672 12.75 24.103 12.4142 24.103 12 C 24.103 11.5858 23.7672 11.25 23.353 11.25 L 19.566 11.25 C 19.4162 9.74162 18.8196 8.36471 17.9103 7.25354 L 20.5884 4.5755 C 20.8812 4.2826 20.8812 3.80773 20.5884 3.51484 C 20.2955 3.22194 19.8206 3.22194 19.5277 3.51484 L 16.8497 6.19286 C 15.7385 5.28351 14.3615 4.6868 12.853 4.53703 L 12.853 0.75 Z M 18.0124 13.0449 C 18.072 12.7055 18.103 12.3564 18.103 12 C 18.103 10.3469 17.4345 8.8499 16.353 7.7647 L 16.3457 7.7575 L 16.3385 7.75018 C 15.2533 6.66861 13.7562 6 12.103 6 C 11.7537 6 11.4114 6.02985 11.0784 6.08714 C 11.2885 6.45252 11.3261 6.90106 11.1599 7.30656 C 10.8835 7.9808 10.7805 8.71028 10.8594 9.43149 C 10.9383 10.1527 11.1969 10.8452 11.6137 11.4483 C 12.0307 12.0514 12.5936 12.547 13.2544 12.8903 C 14.4299 13.5011 15.8754 13.5781 17.1097 13.0925 C 17.4024 12.9774 17.7194 12.9641 18.0124 13.0449 Z M 17.5441 14.5321 C 17.3715 14.9024 17.1622 15.2521 16.9209 15.5767 C 16.5286 16.0426 16.0771 16.4527 15.8647 16.626 C 15.116 17.2373 14.2226 17.6584 13.2642 17.8502 C 12.3057 18.042 11.3135 17.9983 10.3769 17.7231 C 9.4403 17.448 8.58973 16.9503 7.9007 16.2763 C 7.21176 15.6024 6.70584 14.7733 6.42662 13.8639 C 6.14743 12.9547 6.1032 11.9923 6.29769 11.0625 C 6.49219 10.1327 6.91969 9.2631 7.54346 8.53197 C 8.1243 7.85114 8.85859 7.31008 9.68921 6.95124 C 9.38071 7.79608 9.27042 8.69973 9.36832 9.59461 C 9.47451 10.5653 9.82228 11.4946 10.3798 12.3012 C 10.9374 13.1077 11.6873 13.7665 12.5628 14.2214 C 14.086 15.0128 15.932 15.1279 17.5441 14.5321 Z" stroke-linecap="round" />
</g>
<g transform="matrix(NaN NaN NaN NaN 0 0)"  >
<g style=""   >
</g>
</g>
</svg>