<svg width="25" height="24" viewBox="0 0 25 24" fill="white" xmlns="http://www.w3.org/2000/svg">
<g clip-path="url(#clip0_1484_7148)">
<path fill-rule="evenodd" clip-rule="evenodd" d="M12.853 0.75C12.853 0.335786 12.5172 0 12.103 0C11.6888 0 11.353 0.335786 11.353 0.75V4.53703C9.84457 4.6868 8.46759 5.28351 7.35639 6.19287L4.67836 3.51484C4.38546 3.22194 3.91059 3.22194 3.6177 3.51484C3.3248 3.80773 3.3248 4.2826 3.6177 4.5755L6.29574 7.25354C5.38647 8.36471 4.78982 9.74162 4.64006 11.25H0.853027C0.438814 11.25 0.103027 11.5858 0.103027 12C0.103027 12.4142 0.438814 12.75 0.853027 12.75H4.64006C4.78983 14.2585 5.38654 15.6355 6.29591 16.7467L3.6177 19.4249C3.3248 19.7178 3.3248 20.1926 3.6177 20.4855C3.91059 20.7784 4.38546 20.7784 4.67836 20.4855L7.35659 17.8073C8.46775 18.7166 9.84466 19.3132 11.353 19.463V23.25C11.353 23.6642 11.6888 24 12.103 24C12.5172 24 12.853 23.6642 12.853 23.25V19.463C14.3614 19.3132 15.7383 18.7166 16.8495 17.8073L19.5277 20.4855C19.8206 20.7784 20.2955 20.7784 20.5884 20.4855C20.8812 20.1926 20.8812 19.7178 20.5884 19.4249L17.9101 16.7467C17.9747 16.6677 18.0377 16.5875 18.0991 16.5059C18.1923 16.3939 18.2832 16.2786 18.3693 16.1614C18.6238 15.8148 18.8774 15.3969 18.9961 14.9606C19.2926 14.271 19.4888 13.528 19.566 12.75H23.353C23.7672 12.75 24.103 12.4142 24.103 12C24.103 11.5858 23.7672 11.25 23.353 11.25H19.566C19.4162 9.74162 18.8196 8.36471 17.9103 7.25354L20.5884 4.5755C20.8812 4.2826 20.8812 3.80773 20.5884 3.51484C20.2955 3.22194 19.8206 3.22194 19.5277 3.51484L16.8497 6.19286C15.7385 5.28351 14.3615 4.6868 12.853 4.53703V0.75ZM18.0124 13.0449C18.072 12.7055 18.103 12.3564 18.103 12C18.103 10.3469 17.4345 8.8499 16.353 7.7647L16.3457 7.7575L16.3385 7.75018C15.2533 6.66861 13.7562 6 12.103 6C11.7537 6 11.4114 6.02985 11.0784 6.08714C11.2885 6.45252 11.3261 6.90106 11.1599 7.30656C10.8835 7.9808 10.7805 8.71028 10.8594 9.43149C10.9383 10.1527 11.1969 10.8452 11.6137 11.4483C12.0307 12.0514 12.5936 12.547 13.2544 12.8903C14.4299 13.5011 15.8754 13.5781 17.1097 13.0925C17.4024 12.9774 17.7194 12.9641 18.0124 13.0449ZM17.5441 14.5321C17.3715 14.9024 17.1622 15.2521 16.9209 15.5767C16.5286 16.0426 16.0771 16.4527 15.8647 16.626C15.116 17.2373 14.2226 17.6584 13.2642 17.8502C12.3057 18.042 11.3135 17.9983 10.3769 17.7231C9.4403 17.448 8.58973 16.9503 7.9007 16.2763C7.21176 15.6024 6.70584 14.7733 6.42662 13.8639C6.14743 12.9547 6.1032 11.9923 6.29769 11.0625C6.49219 10.1327 6.91969 9.2631 7.54346 8.53197C8.1243 7.85114 8.85859 7.31008 9.68921 6.95124C9.38071 7.79608 9.27042 8.69973 9.36832 9.59461C9.47451 10.5653 9.82228 11.4946 10.3798 12.3012C10.9374 13.1077 11.6873 13.7665 12.5628 14.2214C14.086 15.0128 15.932 15.1279 17.5441 14.5321Z" fill="black"/>
</g>
<defs>
<clipPath id="clip0_1484_7148">
<rect width="24" height="24" fill="white" transform="translate(0.103027)"/>
</clipPath>
</defs>
</svg>
