<svg width="16" height="16" viewBox="0 0 16 16" fill="none" xmlns="http://www.w3.org/2000/svg">
<path fill-rule="evenodd" clip-rule="evenodd" d="M12.0001 3.22179C11.7938 3.22179 11.5959 3.30373 11.4501 3.4496L11.1357 3.76402L12.2356 4.86397L12.55 4.54955C12.6959 4.40369 12.7778 4.20585 12.7778 3.99957C12.7778 3.79329 12.6959 3.59546 12.55 3.4496C12.4042 3.30373 12.2063 3.22179 12.0001 3.22179ZM12.8643 4.86382C13.0935 4.63461 13.2223 4.32373 13.2223 3.99957C13.2223 3.67542 13.0935 3.36454 12.8643 3.13533C12.6351 2.90611 12.3242 2.77734 12.0001 2.77734C11.6759 2.77734 11.365 2.90611 11.1358 3.13533L6.89314 7.37799C6.85914 7.412 6.83708 7.45612 6.83028 7.50373L6.59473 9.15395C6.58484 9.2232 6.60814 9.29305 6.65761 9.34251C6.70708 9.39196 6.77695 9.41524 6.84619 9.40533L8.49597 9.16933C8.54355 9.16253 8.58764 9.14047 8.62163 9.10648L12.8643 4.86382ZM11.9213 5.17824L10.8214 4.07829L7.2598 7.63987L7.07659 8.92341L8.35973 8.73985L11.9213 5.17824ZM3.66672 5.22224C3.54885 5.22224 3.4358 5.26906 3.35245 5.35241C3.2691 5.43576 3.22228 5.54881 3.22228 5.66668V12.3334C3.22228 12.4512 3.2691 12.5643 3.35245 12.6476C3.4358 12.731 3.54885 12.7778 3.66672 12.7778H10.3334C10.4513 12.7778 10.5643 12.731 10.6477 12.6476C10.731 12.5643 10.7778 12.4512 10.7778 12.3334V9.00002C10.7778 8.87729 10.8773 8.77779 11.0001 8.77779C11.1228 8.77779 11.2223 8.87729 11.2223 9.00002V12.3334C11.2223 12.5691 11.1286 12.7952 10.9619 12.9619C10.7952 13.1286 10.5691 13.2222 10.3334 13.2222H3.66672C3.43097 13.2222 3.20488 13.1286 3.03818 12.9619C2.87148 12.7952 2.77783 12.5691 2.77783 12.3334V5.66668C2.77783 5.43094 2.87148 5.20484 3.03818 5.03814C3.20488 4.87144 3.43097 4.77779 3.66672 4.77779H7.00005C7.12278 4.77779 7.22228 4.87729 7.22228 5.00002C7.22228 5.12275 7.12278 5.22224 7.00005 5.22224H3.66672Z" fill="#3684D9"/>
</svg>
