<svg width="18" height="18" viewBox="0 0 18 18" fill="none" xmlns="http://www.w3.org/2000/svg">
<g id="NUA 2 / Element / Icon / Pencil">
<path id="Icon" fill-rule="evenodd" clip-rule="evenodd" d="M12.7972 3.12505C13.0705 3.1232 13.3416 3.17553 13.5946 3.27902C13.8477 3.38252 14.0777 3.53512 14.2714 3.72802L14.2721 3.72871C14.4651 3.92236 14.6177 4.15234 14.7213 4.40536C14.8248 4.65837 14.8772 4.9294 14.8753 5.20277C14.8735 5.47614 14.8174 5.74643 14.7105 5.99802C14.6037 6.24915 14.4483 6.47666 14.2533 6.66746L7.00697 13.9138L7.00428 13.9165C6.97261 13.9481 6.93301 13.9707 6.88962 13.9818L3.43712 14.8673C3.35153 14.8893 3.26072 14.8644 3.19824 14.802C3.13576 14.7395 3.1109 14.6487 3.13284 14.5631L4.01784 11.1106C4.02896 11.0672 4.05155 11.0276 4.08323 10.9959L11.3323 3.74686C11.5231 3.55185 11.7507 3.39652 12.0019 3.28981C12.2535 3.1829 12.5238 3.1269 12.7972 3.12505ZM6.82982 13.3838L13.5165 6.69718L11.3028 4.48348L4.61375 11.1725L6.82982 13.3838ZM4.39343 11.659L6.34417 13.6055L3.72206 14.2781L4.39343 11.659ZM11.6563 4.12993L13.87 6.34362L13.9028 6.31082C14.0511 6.16597 14.1692 5.99318 14.2503 5.80241C14.3314 5.61163 14.3739 5.40667 14.3753 5.19938C14.3767 4.99209 14.337 4.78658 14.2585 4.59472C14.1801 4.40302 14.0644 4.22875 13.9183 4.08198C13.7714 3.93585 13.5971 3.82024 13.4053 3.74181C13.2134 3.66332 13.0079 3.62363 12.8006 3.62504C12.5932 3.62644 12.3882 3.66891 12.1974 3.74999C12.0066 3.83107 11.8337 3.94915 11.6888 4.09742L11.6868 4.09946L11.6563 4.12993Z" fill="#4C4C52"/>
</g>
</svg>
