<svg width="24" height="24" viewBox="0 0 24 24" fill="none" xmlns="http://www.w3.org/2000/svg">
<path fill-rule="evenodd" clip-rule="evenodd" d="M17.694 3.00008C18.1289 2.99713 18.56 3.08037 18.9624 3.24499C19.3649 3.4096 19.7308 3.65233 20.0389 3.95915L19.6421 4.35768L20.0405 3.96071C20.3474 4.26873 20.5902 4.63454 20.7549 5.03699C20.9196 5.43944 21.0029 5.87054 20.9999 6.30537C20.997 6.7402 20.9079 7.17014 20.7377 7.57032C20.5681 7.96942 20.3212 8.33103 20.0113 8.63437L9.13883 19.507C9.06756 19.5783 8.97846 19.6291 8.88084 19.6541L3.70224 20.9824C3.50968 21.0317 3.30536 20.9758 3.16479 20.8353C3.02421 20.6947 2.96827 20.4904 3.01763 20.2978L4.34509 15.1192C4.37012 15.0215 4.42094 14.9324 4.49222 14.8611L15.3648 3.98838C15.6682 3.67855 16.0299 3.43174 16.4291 3.26214C16.8293 3.09209 17.2592 3.00302 17.694 3.00008ZM19.2443 4.75551C19.0417 4.55394 18.8011 4.39445 18.5366 4.28624C18.2716 4.17789 17.9879 4.12309 17.7017 4.12503C17.4154 4.12697 17.1325 4.1856 16.869 4.29753C16.6056 4.40946 16.367 4.57248 16.1669 4.77717L16.1624 4.78176L5.39658 15.5477L4.34335 19.6565L8.45222 18.6027L19.2227 7.83201C19.4274 7.63206 19.5905 7.39354 19.7024 7.13019C19.8144 6.86684 19.873 6.58391 19.875 6.29775C19.8769 6.0116 19.8221 5.7279 19.7137 5.46306C19.6055 5.19853 19.4459 4.95806 19.2443 4.75551Z" fill="#151451"/>
<path fill-rule="evenodd" clip-rule="evenodd" d="M15.0564 4.29749C15.2761 4.07783 15.6322 4.07783 15.8519 4.29749L19.7023 8.14793C19.9219 8.3676 19.9219 8.72375 19.7023 8.94342C19.4826 9.16308 19.1265 9.16308 18.9068 8.94342L15.0564 5.09297C14.8368 4.87331 14.8368 4.51716 15.0564 4.29749Z" fill="#151451"/>
<path fill-rule="evenodd" clip-rule="evenodd" d="M4.49222 14.8611C4.71169 14.6412 5.06824 14.6405 5.28809 14.86L9.14223 18.7074C9.36208 18.9269 9.3624 19.2831 9.14292 19.5029C8.92345 19.7228 8.56731 19.7231 8.34745 19.5036L4.49332 15.6562C4.27346 15.4367 4.27275 15.0809 4.49222 14.8611Z" fill="#151451"/>
</svg>
