<svg width="85" height="95" viewBox="0 0 85 95" fill="none" xmlns="http://www.w3.org/2000/svg">
<path d="M84.4394 52.4996L77.9394 38.9996C77.6394 38.3996 77.1394 37.9996 76.5394 37.6996L43.1394 25.9996C42.6394 25.7996 42.0394 25.7996 41.5394 25.9996L8.23939 37.6996C7.63939 37.8996 7.13939 38.3996 6.83939 38.9996L0.239388 52.4996C-0.0606124 53.0996 -0.0606123 53.8996 0.139388 54.4996C0.439388 55.1996 0.939388 55.6996 1.63939 55.8996L6.53939 57.5996V80.7996C6.53939 81.8996 7.23939 82.7996 8.23939 83.0996L41.5394 94.7996C41.8394 94.8996 42.0394 94.8996 42.3394 94.8996C42.6394 94.8996 42.9394 94.8996 43.1394 94.7996L76.4394 83.0996C77.4394 82.6996 78.1394 81.7996 78.1394 80.7996V57.6996L83.0394 55.9996C83.7394 55.7996 84.2394 55.2996 84.5394 54.5996C84.7394 53.8996 84.7394 53.1996 84.4394 52.4996ZM42.3394 30.9996L68.1394 40.0996L42.3394 49.0996L16.5394 39.9996L42.3394 30.9996ZM10.3394 43.0996L38.9394 53.0996L34.5394 62.0996L5.93939 52.0996L10.3394 43.0996ZM11.5394 59.3996L35.0394 67.5996C35.3394 67.6996 35.5394 67.6996 35.8394 67.6996C36.7394 67.6996 37.6394 67.1996 38.0394 66.2996L39.8394 62.4996V88.8996L11.5394 78.8996V59.3996ZM73.1394 79.0996L44.8394 89.0996V62.5996L46.6394 66.3996C47.0394 67.2996 47.9394 67.7996 48.8394 67.7996C49.1394 67.7996 49.4394 67.7996 49.6394 67.6996L73.1394 59.4996V79.0996ZM50.1394 62.1996L45.7394 53.1996L74.3394 43.1996L78.7394 52.1996L50.1394 62.1996Z" fill="#02C3A1"/>
<path d="M42.3398 16.6C43.7398 16.6 44.8398 15.5 44.8398 14.1V2.5C44.8398 1.1 43.7398 0 42.3398 0C40.9398 0 39.8398 1.1 39.8398 2.5V14.2C39.8398 15.5 40.9398 16.6 42.3398 16.6Z" fill="#02C3A1"/>
<path d="M58.24 21.2004C58.64 21.5004 59.14 21.6004 59.54 21.6004C60.34 21.6004 61.14 21.2004 61.64 20.4004L67.84 10.5004C68.54 9.30042 68.24 7.80042 67.04 7.10042C65.84 6.40042 64.34 6.70042 63.64 7.90042L57.44 17.8004C56.74 18.9004 57.14 20.5004 58.24 21.2004Z" fill="#02C3A1"/>
<path d="M22.9391 20.4004C23.4391 21.2004 24.2391 21.6004 25.0391 21.6004C25.4391 21.6004 25.9391 21.5004 26.3391 21.2004C27.5391 20.5004 27.8391 18.9004 27.1391 17.8004L20.9391 7.90042C20.2391 6.70042 18.6391 6.40042 17.5391 7.10042C16.3391 7.80042 16.0391 9.40042 16.7391 10.5004L22.9391 20.4004Z" fill="#02C3A1"/>
</svg>
