<svg width="17" height="17" viewBox="0 0 17 17" fill="none" xmlns="http://www.w3.org/2000/svg">
<path fill-rule="evenodd" clip-rule="evenodd" d="M16.2092 0.663793C16.3393 0.793968 16.3393 1.00502 16.2092 1.1352L1.20917 16.1352C1.079 16.2654 0.867943 16.2654 0.737768 16.1352C0.607593 16.005 0.607593 15.794 0.737768 15.6638L15.7378 0.663793C15.8679 0.533618 16.079 0.533618 16.2092 0.663793Z" fill="white"/>
<path fill-rule="evenodd" clip-rule="evenodd" d="M0.737768 0.663793C0.867943 0.533618 1.079 0.533618 1.20917 0.663793L16.2092 15.6638C16.3393 15.794 16.3393 16.005 16.2092 16.1352C16.079 16.2654 15.8679 16.2654 15.7378 16.1352L0.737768 1.1352C0.607593 1.00502 0.607593 0.793968 0.737768 0.663793Z" fill="white"/>
</svg>
