<svg xmlns="http://www.w3.org/2000/svg" width="24" height="24" viewBox="0 0 24 24" fill="none">
  <rect width="24" height="24" rx="12" fill="url(#paint0_linear_54_3016)"/>
  <path fill-rule="evenodd" clip-rule="evenodd" d="M11.9999 4.8361C11.9608 4.8361 11.9224 4.84691 11.889 4.86733C11.8558 4.88762 11.8289 4.91661 11.811 4.95116L9.58424 9.36669C9.53288 9.46855 9.43299 9.53706 9.31948 9.54831L5.02089 9.97416C4.98216 9.97738 4.94517 9.99158 4.91429 10.0152C4.88341 10.0388 4.85994 10.0707 4.84665 10.1072C4.83336 10.1437 4.83082 10.1833 4.83931 10.2212C4.8478 10.2591 4.86695 10.2938 4.89451 10.3211M4.89451 10.3211L8.43051 13.8231C8.51611 13.9079 8.5493 14.0322 8.51733 14.1484L7.20812 18.9041L7.20782 18.9053C7.19782 18.9438 7.19904 18.9844 7.21136 19.0223C7.2238 19.0605 7.24702 19.0943 7.27823 19.1197C7.30943 19.145 7.3473 19.1608 7.38727 19.1651C7.42724 19.1695 7.46762 19.1622 7.50353 19.1441L7.50535 19.1432L11.852 16.9906C11.9452 16.9444 12.0546 16.9444 12.1479 16.9905L16.5024 19.1468C16.5383 19.1649 16.5787 19.1722 16.6186 19.1678C16.6586 19.1635 16.6965 19.1477 16.7277 19.1223C16.7589 19.097 16.7821 19.0632 16.7945 19.0249C16.8069 18.987 16.8081 18.9464 16.7981 18.9079L16.7978 18.9068L15.4886 14.1511C15.4566 14.035 15.4898 13.9106 15.5753 13.8258L19.1086 10.3238C19.1362 10.2965 19.1554 10.2618 19.1639 10.2239C19.1724 10.186 19.1699 10.1464 19.1566 10.1099C19.1433 10.0734 19.1198 10.0414 19.0889 10.0178C19.0581 9.99425 19.0211 9.98 18.9823 9.97678L18.9771 9.97635L14.6838 9.55097C14.5703 9.53973 14.4704 9.47126 14.419 9.36946L12.1892 4.95184C12.1714 4.91728 12.1441 4.88763 12.1109 4.86733C12.0775 4.84691 12.0391 4.8361 11.9999 4.8361M11.5412 4.29856C11.6793 4.21412 11.8381 4.16943 11.9999 4.16943C12.1618 4.16943 12.3206 4.21412 12.4587 4.29856C12.5968 4.383 12.7089 4.50393 12.7827 4.64801L12.7835 4.64973L14.9317 8.9056L19.0405 9.31266C19.2051 9.3269 19.3623 9.38773 19.4936 9.48807C19.6258 9.589 19.7262 9.72567 19.7831 9.88191C19.8399 10.0382 19.8508 10.2074 19.8145 10.3696C19.7781 10.5319 19.696 10.6803 19.5779 10.7973L16.1831 14.1621L17.4421 18.7357C17.4854 18.8987 17.4807 19.0708 17.4285 19.2312C17.3763 19.3915 17.2789 19.5334 17.148 19.6398C17.0171 19.7461 16.8583 19.8124 16.6906 19.8306C16.5233 19.8488 16.3542 19.8183 16.2038 19.7429L16.2029 19.7424L12 17.6612L7.80303 19.7397L7.8021 19.7402C7.65165 19.8156 7.48264 19.8461 7.31531 19.8279C7.14763 19.8097 6.98879 19.7435 6.85788 19.6371C6.72697 19.5308 6.62957 19.3889 6.5774 19.2285C6.52522 19.0681 6.52049 18.8961 6.56378 18.733L6.56456 18.7301L7.8228 14.1595L4.42539 10.7948C4.3073 10.6777 4.22513 10.5292 4.18878 10.367C4.15242 10.2047 4.16332 10.0355 4.22017 9.87925C4.27703 9.72301 4.37746 9.58633 4.50959 9.4854C4.64092 9.38507 4.79811 9.32424 4.96272 9.30999L9.07147 8.90295L11.2163 4.64984L11.2172 4.64801C11.291 4.50393 11.4031 4.383 11.5412 4.29856Z" fill="white"/>
  <defs>
    <linearGradient id="paint0_linear_54_3016" x1="12" y1="0" x2="12" y2="24" gradientUnits="userSpaceOnUse">
      <stop stop-color="#25F68D"/>
      <stop offset="1" stop-color="#1BC0F2"/>
    </linearGradient>
  </defs>
</svg>