<svg xmlns="http://www.w3.org/2000/svg" width="73" height="67" viewBox="0 0 73 67" fill="none">
  <path d="M0 0H48V48H0V0Z" fill="url(#paint0_linear_203_3675)"/>
  <path d="M6 6H22V16H6V6Z" fill="white"/>
  <path d="M6 28H22V38H6V28Z" fill="white"/>
  <path d="M6 18H18V20H6V18Z" fill="white"/>
  <path d="M6 40H18V42H6V40Z" fill="white"/>
  <path d="M26 18H38V20H26V18Z" fill="white"/>
  <path d="M26 40H38V42H26V40Z" fill="white"/>
  <path d="M26 6H42V16H26V6Z" fill="white"/>
  <path d="M26 28H42V38H26V28Z" fill="white"/>
  <path d="M70.5625 47.5C70.5625 56.9234 62.9234 64.5625 53.5 64.5625C44.0766 64.5625 36.4375 56.9234 36.4375 47.5C36.4375 38.0766 44.0766 30.4375 53.5 30.4375C62.9234 30.4375 70.5625 38.0766 70.5625 47.5Z" fill="white"/>
  <path fill-rule="evenodd" clip-rule="evenodd" d="M53.5 64.5625C62.9234 64.5625 70.5625 56.9234 70.5625 47.5C70.5625 38.0766 62.9234 30.4375 53.5 30.4375C44.0766 30.4375 36.4375 38.0766 36.4375 47.5C36.4375 56.9234 44.0766 64.5625 53.5 64.5625ZM53.5 67C64.2696 67 73 58.2696 73 47.5C73 36.7304 64.2696 28 53.5 28C42.7304 28 34 36.7304 34 47.5C34 58.2696 42.7304 67 53.5 67Z" fill="url(#paint1_linear_203_3675)"/>
  <path fill-rule="evenodd" clip-rule="evenodd" d="M52.4524 36.3602C52.7642 36.1695 53.1227 36.0686 53.4883 36.0686C53.8538 36.0686 54.2123 36.1695 54.5241 36.3602C54.836 36.5509 55.0892 36.824 55.2558 37.1494L55.2593 37.1562L57.6511 41.8948L62.1542 42.3409C62.5255 42.3743 62.8798 42.512 63.1761 42.7384C63.4759 42.9674 63.7038 43.2776 63.8329 43.6322C63.9619 43.9868 63.9866 44.3709 63.9041 44.7391C63.8216 45.1072 63.6353 45.4441 63.3674 45.7097L59.6096 49.4341L61.0044 54.5007C61.1024 54.8697 61.0916 55.259 60.9735 55.6219C60.8554 55.9849 60.635 56.306 60.3388 56.5466C60.0425 56.7873 59.6831 56.9372 59.3036 56.9784C58.9252 57.0195 58.543 56.9507 58.2027 56.7803C58.2025 56.7802 58.203 56.7804 58.2027 56.7803L58.2012 56.7795L58.2001 56.779L53.4883 54.4458L48.7832 56.776L48.7821 56.7765C48.7818 56.7767 48.7823 56.7764 48.7821 56.7765C48.4418 56.9469 48.0586 57.0163 47.6802 56.9752C47.3007 56.934 46.9413 56.784 46.645 56.5434C46.3488 56.3027 46.1284 55.9816 46.0103 55.6187C45.8922 55.2557 45.8815 54.8664 45.9795 54.4975L45.9826 54.4859L47.3741 49.4312L43.6135 45.7068C43.3456 45.4413 43.159 45.1041 43.0764 44.7358C42.9939 44.3676 43.0187 43.9835 43.1477 43.6289C43.2767 43.2744 43.5046 42.9642 43.8045 42.7351C44.1008 42.5088 44.4551 42.371 44.8263 42.3377L49.3292 41.8916L51.717 37.1566L51.7183 37.1541L51.7194 37.1519L51.7207 37.1494C51.8873 36.824 52.1405 36.5509 52.4524 36.3602ZM53.4883 37.8967C53.4592 37.8967 53.4308 37.9048 53.406 37.9199C53.3816 37.9348 53.3617 37.9562 53.3484 37.9816C53.3484 37.9817 53.3485 37.9815 53.3484 37.9816M53.3484 37.9816L50.7353 43.1632C50.5945 43.4425 50.3206 43.6304 50.0093 43.6613L44.9904 44.1585C44.9628 44.1609 44.9363 44.171 44.9143 44.1879C44.892 44.2049 44.8752 44.2278 44.8656 44.2541C44.856 44.2804 44.8542 44.3088 44.8603 44.3361C44.8664 44.3631 44.8801 44.3881 44.9 44.4079L49.0406 48.5086C49.2753 48.7411 49.3663 49.0822 49.2786 49.4007L47.7464 54.9667C47.7463 54.9668 47.7464 54.9666 47.7464 54.9667C47.7389 54.995 47.7397 55.0253 47.7487 55.0531C47.7578 55.0811 47.7748 55.1059 47.7977 55.1244C47.8205 55.143 47.8482 55.1546 47.8775 55.1577C47.9067 55.1609 47.9362 55.1556 47.9625 55.1424L47.9676 55.1399L53.0826 52.6067C53.3382 52.4801 53.6383 52.4801 53.8939 52.6067L59.021 55.1455C59.0473 55.1587 59.0771 55.1642 59.1063 55.161C59.1356 55.1578 59.1633 55.1463 59.1861 55.1277C59.209 55.1091 59.226 55.0844 59.2351 55.0564C59.244 55.0291 59.245 54.9999 59.238 54.9721L57.7052 49.4039C57.6175 49.0854 57.7084 48.7445 57.943 48.512L62.0805 44.4112C62.1003 44.3916 62.1141 44.3666 62.1202 44.3393C62.1263 44.3121 62.1245 44.2836 62.115 44.2573C62.1054 44.2311 62.0885 44.2081 62.0663 44.1911C62.0442 44.1743 62.0178 44.164 61.9901 44.1617L61.9788 44.1607L56.9712 43.6645C56.66 43.6337 56.3862 43.4459 56.2453 43.1668L53.6296 37.9847L53.6286 37.9826C53.6285 37.9825 53.6286 37.9827 53.6286 37.9826C53.6153 37.9569 53.5952 37.935 53.5705 37.9199C53.5457 37.9048 53.5173 37.8967 53.4883 37.8967" fill="url(#paint2_linear_203_3675)"/>
  <defs>
    <linearGradient id="paint0_linear_203_3675" x1="36.5" y1="0" x2="36.5" y2="67" gradientUnits="userSpaceOnUse">
      <stop stop-color="#25F68D"/>
      <stop offset="1" stop-color="#1BC0F2"/>
    </linearGradient>
    <linearGradient id="paint1_linear_203_3675" x1="36.5" y1="0" x2="36.5" y2="67" gradientUnits="userSpaceOnUse">
      <stop stop-color="#25F68D"/>
      <stop offset="1" stop-color="#1BC0F2"/>
    </linearGradient>
    <linearGradient id="paint2_linear_203_3675" x1="36.5" y1="0" x2="36.5" y2="67" gradientUnits="userSpaceOnUse">
      <stop stop-color="#25F68D"/>
      <stop offset="1" stop-color="#1BC0F2"/>
    </linearGradient>
  </defs>
</svg>