<svg xmlns="http://www.w3.org/2000/svg" width="32" height="32" viewBox="0 0 32 32" fill="none">
  <path d="M30 16C30 23.732 23.732 30 16 30C8.26801 30 2 23.732 2 16C2 8.26801 8.26801 2 16 2C23.732 2 30 8.26801 30 16Z" fill="white"/>
  <path fill-rule="evenodd" clip-rule="evenodd" d="M16 30C23.732 30 30 23.732 30 16C30 8.26801 23.732 2 16 2C8.26801 2 2 8.26801 2 16C2 23.732 8.26801 30 16 30ZM16 32C24.8366 32 32 24.8366 32 16C32 7.16344 24.8366 0 16 0C7.16344 0 0 7.16344 0 16C0 24.8366 7.16344 32 16 32Z" fill="#303E84"/>
  <path fill-rule="evenodd" clip-rule="evenodd" d="M15.1404 6.85967C15.3963 6.7032 15.6904 6.62041 15.9904 6.62041C16.2903 6.62041 16.5844 6.7032 16.8403 6.85967C17.0962 7.01613 17.3039 7.2402 17.4406 7.50718L17.4435 7.51274L19.406 11.4008L23.1009 11.7669C23.4055 11.7943 23.6962 11.9073 23.9393 12.093C24.1854 12.281 24.3724 12.5355 24.4783 12.8264C24.5841 13.1173 24.6044 13.4325 24.5367 13.7346C24.469 14.0367 24.3162 14.3131 24.0963 14.531L21.013 17.587L22.1574 21.7442C22.2378 22.0469 22.229 22.3664 22.1321 22.6641C22.0352 22.9619 21.8544 23.2254 21.6113 23.4229C21.3682 23.6203 21.0733 23.7434 20.762 23.7772C20.4515 23.8109 20.1379 23.7544 19.8587 23.6146C19.8588 23.6147 19.8585 23.6145 19.8587 23.6146L19.8574 23.614L19.8565 23.6135L15.9904 21.6991L12.1298 23.611L12.1289 23.6115C12.1291 23.6114 12.1287 23.6116 12.1289 23.6115C11.8497 23.7513 11.5352 23.8082 11.2248 23.7745C10.9134 23.7407 10.6185 23.6177 10.3754 23.4202C10.1323 23.2228 9.95148 22.9593 9.8546 22.6615C9.75772 22.3637 9.74894 22.0442 9.82931 21.7415L9.83184 21.732L10.9736 17.5846L7.88804 14.5286C7.66822 14.3108 7.51505 14.0342 7.44734 13.7319C7.37964 13.4298 7.39993 13.1147 7.5058 12.8237C7.61167 12.5328 7.79868 12.2783 8.0447 12.0904C8.28784 11.9046 8.57854 11.7916 8.88312 11.7642L12.5778 11.3982L14.5371 7.5131L14.5381 7.51109L14.539 7.50927L14.5401 7.50718C14.6768 7.2402 14.8845 7.01613 15.1404 6.85967ZM15.9904 8.12041C15.9665 8.12041 15.9432 8.12698 15.9229 8.1394C15.9028 8.15167 15.8865 8.16917 15.8756 8.19002C15.8757 8.18996 15.8756 8.19008 15.8756 8.19002M15.8756 8.19002L13.7315 12.4416C13.616 12.6708 13.3912 12.825 13.1358 12.8503L9.01779 13.2582C8.99509 13.2602 8.9734 13.2685 8.95529 13.2824C8.93706 13.2963 8.92321 13.3151 8.91537 13.3367C8.90753 13.3582 8.90602 13.3816 8.91104 13.404C8.91601 13.4262 8.9273 13.4467 8.94356 13.4629L12.341 16.8276C12.5336 17.0184 12.6083 17.2982 12.5363 17.5596L11.2791 22.1265C11.2791 22.1264 11.279 22.1266 11.2791 22.1265C11.273 22.1498 11.2736 22.1746 11.281 22.1974C11.2885 22.2204 11.3024 22.2407 11.3212 22.256C11.3399 22.2712 11.3627 22.2807 11.3867 22.2833C11.4106 22.2859 11.4348 22.2815 11.4564 22.2707L11.4606 22.2686L15.6575 20.1901C15.8672 20.0862 16.1134 20.0862 16.3232 20.1901L20.5301 22.2732C20.5516 22.284 20.5761 22.2885 20.6 22.2859C20.6241 22.2833 20.6468 22.2738 20.6655 22.2586C20.6843 22.2434 20.6982 22.2231 20.7057 22.2001C20.713 22.1777 20.7138 22.1537 20.7081 22.131L19.4504 17.5621C19.3785 17.3009 19.4531 17.0211 19.6455 16.8304L23.0404 13.4656C23.0567 13.4495 23.068 13.429 23.073 13.4066C23.078 13.3843 23.0765 13.3609 23.0687 13.3394C23.0608 13.3178 23.047 13.299 23.0288 13.285C23.0106 13.2712 22.989 13.2628 22.9663 13.2608L22.957 13.26L18.8482 12.8529C18.5928 12.8276 18.3682 12.6736 18.2526 12.4445L16.1064 8.19254L16.1055 8.19083C16.1055 8.1909 16.1055 8.19077 16.1055 8.19083C16.0946 8.16972 16.0781 8.15178 16.0578 8.1394C16.0375 8.12698 16.0142 8.12041 15.9904 8.12041" fill="#303E84"/>
</svg>