<svg width="16" height="16" viewBox="0 0 16 16" fill="none" xmlns="http://www.w3.org/2000/svg">
<path fill-rule="evenodd" clip-rule="evenodd" d="M3.66672 3.22179C3.54885 3.22179 3.4358 3.26861 3.35245 3.35196C3.2691 3.43531 3.22228 3.54836 3.22228 3.66623V10.3329C3.22228 10.4508 3.2691 10.5638 3.35245 10.6472C3.4358 10.7305 3.54885 10.7773 3.66672 10.7773H5.00005C5.12278 10.7773 5.22228 10.8768 5.22228 10.9996V12.5551L7.53339 10.8218C7.57185 10.7929 7.61864 10.7773 7.66672 10.7773H12.3334C12.4513 10.7773 12.5643 10.7305 12.6477 10.6472C12.731 10.5638 12.7778 10.4508 12.7778 10.3329V3.66623C12.7778 3.54836 12.731 3.43531 12.6477 3.35196C12.5643 3.26861 12.4513 3.22179 12.3334 3.22179H3.66672ZM3.03818 3.03769C3.20488 2.87099 3.43097 2.77734 3.66672 2.77734H12.3334C12.5691 2.77734 12.7952 2.87099 12.9619 3.03769C13.1286 3.20439 13.2223 3.43048 13.2223 3.66623V10.3329C13.2223 10.5686 13.1286 10.7947 12.9619 10.9614C12.7952 11.1281 12.5691 11.2218 12.3334 11.2218H7.74079L5.13339 13.1773C5.06605 13.2278 4.97596 13.236 4.90067 13.1983C4.82539 13.1607 4.77783 13.0837 4.77783 12.9996V11.2218H3.66672C3.43097 11.2218 3.20488 11.1281 3.03818 10.9614C2.87148 10.7947 2.77783 10.5686 2.77783 10.3329V3.66623C2.77783 3.43048 2.87148 3.20439 3.03818 3.03769Z" fill="#303E84"/>
<path fill-rule="evenodd" clip-rule="evenodd" d="M8.00005 7.05512C8.01479 7.05512 8.02892 7.04927 8.03934 7.03885C8.04976 7.02843 8.05561 7.0143 8.05561 6.99957C8.05561 6.98483 8.04976 6.9707 8.03934 6.96028C8.02892 6.94986 8.01479 6.94401 8.00005 6.94401V6.61068C7.89691 6.61068 7.798 6.65165 7.72507 6.72458C7.65214 6.79751 7.61117 6.89643 7.61117 6.99957C7.61117 7.1027 7.65214 7.20162 7.72507 7.27455C7.798 7.34748 7.89691 7.38845 8.00005 7.38845V7.05512Z" fill="#303E84"/>
<path fill-rule="evenodd" clip-rule="evenodd" d="M8.00005 6.61068C8.10319 6.61068 8.20211 6.65165 8.27504 6.72458C8.34797 6.79751 8.38894 6.89643 8.38894 6.99957C8.38894 7.1027 8.34797 7.20162 8.27504 7.27455C8.20211 7.34748 8.10319 7.38845 8.00005 7.38845V7.05512C7.98532 7.05512 7.97119 7.04927 7.96077 7.03885C7.95035 7.02843 7.9445 7.0143 7.9445 6.99957C7.9445 6.98483 7.95035 6.9707 7.96077 6.96028C7.97119 6.94986 7.98532 6.94401 8.00005 6.94401V6.61068Z" fill="#303E84"/>
<path fill-rule="evenodd" clip-rule="evenodd" d="M6.00005 7.05512C6.01479 7.05512 6.02892 7.04927 6.03934 7.03885C6.04976 7.02843 6.05561 7.0143 6.05561 6.99957C6.05561 6.98483 6.04976 6.9707 6.03934 6.96028C6.02892 6.94986 6.01479 6.94401 6.00005 6.94401V6.61068C5.89691 6.61068 5.798 6.65165 5.72507 6.72458C5.65214 6.79751 5.61117 6.89643 5.61117 6.99957C5.61117 7.1027 5.65214 7.20162 5.72507 7.27455C5.798 7.34748 5.89691 7.38845 6.00005 7.38845V7.05512Z" fill="#303E84"/>
<path fill-rule="evenodd" clip-rule="evenodd" d="M6.00005 6.61068C6.10319 6.61068 6.20211 6.65165 6.27504 6.72458C6.34797 6.79751 6.38894 6.89643 6.38894 6.99957C6.38894 7.1027 6.34797 7.20162 6.27504 7.27455C6.20211 7.34748 6.10319 7.38845 6.00005 7.38845V7.05512C5.98532 7.05512 5.97119 7.04927 5.96077 7.03885C5.95035 7.02843 5.9445 7.0143 5.9445 6.99957C5.9445 6.98483 5.95035 6.9707 5.96077 6.96028C5.97119 6.94986 5.98532 6.94401 6.00005 6.94401V6.61068Z" fill="#303E84"/>
<path fill-rule="evenodd" clip-rule="evenodd" d="M10.0001 7.05512C10.0148 7.05512 10.0289 7.04927 10.0393 7.03885C10.0498 7.02843 10.0556 7.0143 10.0556 6.99957C10.0556 6.98483 10.0498 6.9707 10.0393 6.96028C10.0289 6.94986 10.0148 6.94401 10.0001 6.94401V6.61068C9.89691 6.61068 9.798 6.65165 9.72507 6.72458C9.65214 6.79751 9.61117 6.89643 9.61117 6.99957C9.61117 7.1027 9.65214 7.20162 9.72507 7.27455C9.798 7.34748 9.89691 7.38845 10.0001 7.38845V7.05512Z" fill="#303E84"/>
<path fill-rule="evenodd" clip-rule="evenodd" d="M10.0001 6.61068C10.1032 6.61068 10.2021 6.65165 10.275 6.72458C10.348 6.79751 10.3889 6.89643 10.3889 6.99957C10.3889 7.1027 10.348 7.20162 10.275 7.27455C10.2021 7.34748 10.1032 7.38845 10.0001 7.38845V7.05512C9.98532 7.05512 9.97119 7.04927 9.96077 7.03885C9.95035 7.02843 9.9445 7.0143 9.9445 6.99957C9.9445 6.98483 9.95035 6.9707 9.96077 6.96028C9.97119 6.94986 9.98532 6.94401 10.0001 6.94401V6.61068Z" fill="#303E84"/>
</svg>
