<svg width="20" height="20" viewBox="0 0 20 20" fill="none" xmlns="http://www.w3.org/2000/svg">
<g clip-path="url(#clip0_947_157)">
<path fill-rule="evenodd" clip-rule="evenodd" d="M0.594118 5.11673C1.40569 3.10549 2.98298 1.49903 4.97901 0.650734C6.97504 -0.197558 9.2263 -0.218186 11.2375 0.593386C13.2488 1.40496 14.8552 2.98225 15.7035 4.97828C16.5518 6.97431 16.5725 9.22557 15.7609 11.2368C14.9493 13.248 13.372 14.8545 11.376 15.7028C9.37996 16.5511 7.1287 16.5717 5.11746 15.7602C3.10623 14.9486 1.49976 13.3713 0.651467 11.3753C-0.196825 9.37923 -0.217454 7.12797 0.594118 5.11673ZM5.46793 1.80115C3.77701 2.51978 2.44082 3.88068 1.7533 5.58448C1.06579 7.28829 1.08326 9.19542 1.80188 10.8863C2.52051 12.5773 3.88141 13.9134 5.58522 14.601C7.28902 15.2885 9.19615 15.271 10.8871 14.5524C12.578 13.8338 13.9142 12.4729 14.6017 10.7691C15.2892 9.06525 15.2717 7.15811 14.5531 5.4672C13.8345 3.77628 12.4736 2.44009 10.7698 1.75257C9.06598 1.06505 7.15885 1.08253 5.46793 1.80115Z" fill="white"/>
<path fill-rule="evenodd" clip-rule="evenodd" d="M13.0756 13.0747C13.3197 12.8306 13.7154 12.8306 13.9594 13.0747L19.8169 18.9331C20.061 19.1772 20.061 19.5729 19.8169 19.8169C19.5728 20.061 19.1771 20.061 18.933 19.8169L13.0755 13.9585C12.8314 13.7145 12.8315 13.3187 13.0756 13.0747Z" fill="white"/>
</g>
<defs>
<clipPath id="clip0_947_157">
<rect width="20" height="20" fill="white"/>
</clipPath>
</defs>
</svg>
