<svg width="20" height="20" viewBox="0 0 24 24" fill="none" xmlns="http://www.w3.org/2000/svg">
<g clip-path="url(#clip0_1458_120)">
<path fill-rule="evenodd" clip-rule="evenodd" d="M0.712942 6.1401C1.68683 3.72662 3.57958 1.79886 5.97481 0.780905C8.37005 -0.237045 11.0716 -0.261799 13.485 0.712087C15.8985 1.68597 17.8263 3.57873 18.8442 5.97396C19.8622 8.36919 19.8869 11.0707 18.9131 13.4842C17.9392 15.8977 16.0464 17.8254 13.6512 18.8434C11.256 19.8613 8.55444 19.8861 6.14096 18.9122C3.72747 17.9383 1.79971 16.0456 0.78176 13.6503C-0.23619 11.2551 -0.260945 8.55359 0.712942 6.1401ZM6.56151 2.16141C4.53241 3.02375 2.92898 4.65684 2.10396 6.7014C1.27894 8.74597 1.29991 11.0345 2.16226 13.0636C3.02461 15.0927 4.65769 16.6962 6.70226 17.5212C8.74682 18.3462 11.0354 18.3252 13.0645 17.4629C15.0936 16.6005 16.697 14.9675 17.522 12.9229C18.3471 10.8783 18.3261 8.58976 17.4637 6.56066C16.6014 4.53156 14.9683 2.92813 12.9237 2.10311C10.8792 1.27809 8.59061 1.29906 6.56151 2.16141Z" fill="black"/>
<path fill-rule="evenodd" clip-rule="evenodd" d="M15.6907 15.6896C15.9836 15.3967 16.4585 15.3968 16.7513 15.6897L23.7803 22.7197C24.0732 23.0126 24.0732 23.4875 23.7803 23.7804C23.4873 24.0732 23.0125 24.0732 22.7196 23.7803L15.6906 16.7503C15.3977 16.4574 15.3978 15.9825 15.6907 15.6896Z" fill="black"/>
</g>
<defs>
<clipPath id="clip0_1458_120">
<rect width="24" height="24" fill="white"/>
</clipPath>
</defs>
</svg>
