<svg width="16" height="16" viewBox="0 0 16 16" fill="none" xmlns="http://www.w3.org/2000/svg">
<g clip-path="url(#clip0_881_681)">
<path fill-rule="evenodd" clip-rule="evenodd" d="M0.475294 4.09342C1.12455 2.48443 2.38639 1.19926 3.98321 0.520624C5.58003 -0.158009 7.38104 -0.174512 8.99003 0.474745C10.599 1.124 11.8842 2.38584 12.5628 3.98266C13.2415 5.57948 13.258 7.38049 12.6087 8.98948C11.9594 10.5985 10.6976 11.8836 9.10079 12.5623C7.50397 13.2409 5.70296 13.2574 4.09397 12.6082C2.48498 11.9589 1.19981 10.6971 0.521173 9.10024C-0.15746 7.50342 -0.173963 5.70241 0.475294 4.09342ZM4.37434 1.44096C3.02161 2.01586 1.95266 3.10458 1.40264 4.46762C0.852629 5.83067 0.866609 7.35637 1.44151 8.70911C2.01641 10.0618 3.10513 11.1308 4.46817 11.6808C5.83121 12.2308 7.35692 12.2168 8.70966 11.6419C10.0624 11.067 11.1313 9.97832 11.6814 8.61528C12.2314 7.25224 12.2174 5.72653 11.6425 4.37379C11.0676 3.02106 9.97887 1.95211 8.61583 1.40209C7.25278 0.852079 5.72708 0.86606 4.37434 1.44096Z" fill="#4C4C52"/>
<path fill-rule="evenodd" clip-rule="evenodd" d="M10.4604 10.4598C10.6557 10.2645 10.9723 10.2645 11.1676 10.4598L15.8536 15.1465C16.0488 15.3418 16.0488 15.6583 15.8535 15.8536C15.6582 16.0488 15.3416 16.0488 15.1464 15.8535L10.4604 11.1669C10.2651 10.9716 10.2652 10.655 10.4604 10.4598Z" fill="#4C4C52"/>
</g>
<defs>
<clipPath id="clip0_881_681">
<rect width="16" height="16" fill="white"/>
</clipPath>
</defs>
</svg>
