<svg width="18" height="14" viewBox="0 0 18 14" fill="none" xmlns="http://www.w3.org/2000/svg">
<path fill-rule="evenodd" clip-rule="evenodd" d="M5.22249 0.835786C4.61446 0.939919 4.11229 1.24511 3.74903 1.73126C3.55365 1.99279 3.39038 2.36646 3.34112 2.66489L3.31907 2.79849L2.02723 2.79893C1.31675 2.79917 0.702895 2.80691 0.663128 2.81612C0.577202 2.83606 0.51781 2.87774 0.442184 2.97117C0.3949 3.0296 0.385299 3.05921 0.37931 3.16526C0.37181 3.29816 0.395858 3.37204 0.474985 3.45901C0.573848 3.5677 0.503253 3.56239 1.98579 3.57244L3.34671 3.58165L3.40864 3.77094C3.72187 4.72838 4.58746 5.36022 5.58536 5.35982C6.42688 5.35947 7.21695 4.87621 7.5946 4.13078C7.68654 3.94933 7.74692 3.79616 7.78385 3.65075L7.80374 3.57244H12.5728H17.3419L17.4231 3.52992C17.473 3.50383 17.5275 3.45321 17.5642 3.39885C17.6151 3.32359 17.6241 3.29387 17.6241 3.20088C17.6241 3.04436 17.5474 2.91318 17.4122 2.83831C17.3611 2.81004 16.9929 2.80733 12.5984 2.80293L7.83978 2.79814L7.83184 2.75686C7.79097 2.54445 7.77427 2.47612 7.73393 2.35623C7.59479 1.94268 7.32802 1.56719 6.9823 1.29822C6.65608 1.04444 6.32741 0.899526 5.93301 0.835546C5.73294 0.803095 5.41267 0.803206 5.22249 0.835786ZM5.26855 1.61154C4.96548 1.67911 4.74374 1.80145 4.52145 2.02374C4.21832 2.32687 4.07999 2.65914 4.07999 3.08411C4.07999 3.9537 4.78929 4.62726 5.65516 4.5799C5.90546 4.56621 6.03178 4.53375 6.2452 4.42835C6.61897 4.24374 6.89818 3.91249 7.02098 3.50794C7.06552 3.3612 7.07132 3.31237 7.07132 3.08411C7.07132 2.85585 7.06552 2.80702 7.02098 2.66028C6.93105 2.36404 6.77792 2.13457 6.52794 1.92143C6.3971 1.80989 6.13624 1.67318 5.96879 1.6284C5.80632 1.58495 5.42861 1.57585 5.26855 1.61154ZM12.0775 8.66044C11.4117 8.76656 10.8284 9.15718 10.4766 9.73247C10.3731 9.90176 10.264 10.163 10.2152 10.3583L10.1749 10.5196L5.45517 10.52C2.68776 10.5203 0.705511 10.5274 0.663128 10.5372C0.577128 10.5571 0.51781 10.5988 0.441945 10.6926C0.393352 10.7526 0.384986 10.7795 0.379236 10.8941C0.372971 11.0188 0.376122 11.0315 0.434224 11.1174C0.472589 11.1741 0.526526 11.2245 0.577073 11.251L0.658301 11.2935H5.41594H10.1736L10.1967 11.3995C10.3568 12.1345 10.9069 12.7701 11.6199 13.044C11.7859 13.1078 11.9852 13.1522 12.2109 13.1757C13.1196 13.2705 14.0052 12.7865 14.4427 11.9561C14.5343 11.7824 14.6328 11.5087 14.6506 11.3788L14.6623 11.2935H16.0021H17.3419L17.4231 11.2506C17.4678 11.2271 17.5292 11.1724 17.5596 11.1293C17.6096 11.0582 17.6149 11.0371 17.6149 10.9067C17.6149 10.7734 17.6107 10.7573 17.5585 10.6929C17.4824 10.5988 17.4232 10.5572 17.3371 10.5372C17.2973 10.528 16.6792 10.5202 15.9634 10.52L14.662 10.5196L14.6503 10.4464C14.6109 10.2002 14.4346 9.80914 14.2523 9.56364C13.8997 9.08869 13.3664 8.76099 12.7956 8.66842C12.6085 8.63808 12.2432 8.63401 12.0775 8.66044ZM12.1034 9.44126C11.2542 9.62603 10.7377 10.4982 10.9808 11.337C11.0538 11.5889 11.1693 11.7826 11.3604 11.9737C11.5498 12.1631 11.7415 12.2779 11.9981 12.3558C12.1398 12.3988 12.1932 12.4052 12.4184 12.406C12.6125 12.4067 12.706 12.3987 12.7961 12.3738C13.291 12.2367 13.6874 11.8662 13.8459 11.3927C13.9568 11.061 13.9431 10.6483 13.8107 10.3322C13.6632 9.98019 13.3389 9.65951 12.9851 9.51572C12.7458 9.4185 12.3584 9.38579 12.1034 9.44126Z" fill="#151451"/>
</svg>
