<svg width="8" height="12" viewBox="0 0 8 12" fill="none" xmlns="http://www.w3.org/2000/svg">
<path fill-rule="evenodd" clip-rule="evenodd" d="M3.73175 0.73208C3.81854 0.645296 3.95924 0.645296 4.04602 0.73208L5.71269 2.39875C5.79947 2.48553 5.79947 2.62623 5.71269 2.71302C5.62591 2.7998 5.4852 2.7998 5.39842 2.71302L4.11111 1.42571V5.55588C4.11111 5.67861 4.01162 5.7781 3.88889 5.7781C3.76616 5.7781 3.66667 5.67861 3.66667 5.55588V1.42571L2.37936 2.71302C2.29257 2.7998 2.15187 2.7998 2.06509 2.71302C1.9783 2.62623 1.9783 2.48553 2.06509 2.39875L3.73175 0.73208ZM0.888889 4.44477C0.771015 4.44477 0.657969 4.4916 0.574619 4.57494C0.49127 4.65829 0.444444 4.77134 0.444444 4.88921V10.2225C0.444444 10.3404 0.49127 10.4535 0.574619 10.5368C0.657969 10.6202 0.771015 10.667 0.888889 10.667H6.88889C7.00676 10.667 7.11981 10.6202 7.20316 10.5368C7.28651 10.4535 7.33333 10.3404 7.33333 10.2225V4.88921C7.33333 4.77134 7.28651 4.65829 7.20316 4.57494C7.11981 4.4916 7.00676 4.44477 6.88889 4.44477H6.22222C6.09949 4.44477 6 4.34528 6 4.22255C6 4.09982 6.09949 4.00033 6.22222 4.00033H6.88889C7.12464 4.00033 7.35073 4.09398 7.51743 4.26068C7.68413 4.42737 7.77778 4.65347 7.77778 4.88921V10.2225C7.77778 10.4583 7.68413 10.6844 7.51743 10.8511C7.35073 11.0178 7.12464 11.1114 6.88889 11.1114H0.888889C0.653141 11.1114 0.427048 11.0178 0.26035 10.8511C0.0936505 10.6844 0 10.4583 0 10.2225V4.88921C0 4.65347 0.0936505 4.42737 0.26035 4.26068C0.427048 4.09398 0.653141 4.00033 0.888889 4.00033H1.55556C1.67829 4.00033 1.77778 4.09982 1.77778 4.22255C1.77778 4.34528 1.67829 4.44477 1.55556 4.44477H0.888889Z" fill="#888"/>
</svg>
