<svg width="48" height="48" viewBox="0 0 48 48" fill="none" xmlns="http://www.w3.org/2000/svg">
<g id="NUA 2 / Element / Icon / Star">
<rect width="48" height="48" rx="8" fill="url(#paint0_linear_54_2934)"/>
<path id="Icon" fill-rule="evenodd" clip-rule="evenodd" d="M23.9999 9.6722C23.9216 9.6722 23.8448 9.69381 23.778 9.73466C23.7117 9.77524 23.6577 9.83323 23.622 9.90232L19.1685 18.7334C19.0658 18.9371 18.866 19.0741 18.639 19.0966L10.0418 19.9483C9.96433 19.9548 9.89034 19.9832 9.82858 20.0303C9.76682 20.0775 9.71988 20.1414 9.6933 20.2144C9.66672 20.2875 9.66163 20.3666 9.67862 20.4424C9.6956 20.5182 9.73391 20.5875 9.78902 20.6422M9.78902 20.6422L16.861 27.6462C17.0322 27.8157 17.0986 28.0645 17.0347 28.2968L14.4162 37.8083L14.4156 37.8105C14.3956 37.8876 14.3981 37.9688 14.4227 38.0445C14.4476 38.121 14.494 38.1886 14.5565 38.2393C14.6189 38.29 14.6946 38.3216 14.7745 38.3303C14.8545 38.339 14.9352 38.3244 15.0071 38.2882L15.0107 38.2864L23.704 33.9811C23.8905 33.8888 24.1093 33.8888 24.2957 33.9811L33.0047 38.2936C33.0766 38.3297 33.1573 38.3443 33.2373 38.3356C33.3172 38.3269 33.3929 38.2954 33.4553 38.2447C33.5178 38.194 33.5642 38.1263 33.5891 38.0498C33.6137 37.9741 33.6162 37.8929 33.5961 37.8158L33.5956 37.8136L30.9771 28.3021C30.9132 28.0699 30.9795 27.8213 31.1506 27.6517L38.2173 20.6477C38.2725 20.593 38.3108 20.5236 38.3278 20.4478C38.3448 20.3719 38.3397 20.2928 38.3132 20.2198C38.2866 20.1467 38.2396 20.0829 38.1779 20.0357C38.1161 19.9885 38.0421 19.96 37.9647 19.9536L37.9542 19.9527L29.3675 19.1019C29.1406 19.0795 28.9408 18.9425 28.8381 18.7389L24.3785 9.90369C24.3428 9.83456 24.2882 9.77525 24.2218 9.73466C24.155 9.69381 24.0782 9.6722 23.9999 9.6722M23.0825 8.59712C23.3587 8.42823 23.6761 8.33887 23.9999 8.33887C24.3236 8.33887 24.6411 8.42823 24.9173 8.59712C25.1935 8.76601 25.4178 9.00786 25.5653 9.29603L25.5671 9.29945L29.8634 17.8112L38.081 18.6253C38.4102 18.6538 38.7246 18.7755 38.9873 18.9761C39.2515 19.178 39.4524 19.4513 39.5661 19.7638C39.6798 20.0763 39.7016 20.4148 39.6289 20.7393C39.5562 21.0638 39.392 21.3606 39.1559 21.5947L32.3661 28.3242L34.8843 37.4714C34.9708 37.7974 34.9613 38.1415 34.857 38.4623C34.7526 38.7831 34.5578 39.0669 34.296 39.2796C34.0342 39.4922 33.7165 39.6248 33.3812 39.6612C33.0465 39.6975 32.7085 39.6366 32.4076 39.4857L32.4057 39.4848L23.9999 35.3225L15.6061 39.4795L15.6042 39.4804C15.3033 39.6313 14.9653 39.6922 14.6306 39.6558C14.2953 39.6194 13.9776 39.4869 13.7158 39.2742C13.4539 39.0615 13.2591 38.7777 13.1548 38.457C13.0504 38.1362 13.041 37.7921 13.1276 37.4661L13.1291 37.4602L15.6456 28.319L8.85077 21.5895C8.61459 21.3555 8.45026 21.0584 8.37755 20.734C8.30485 20.4095 8.32664 20.071 8.44035 19.7585C8.55406 19.446 8.75493 19.1727 9.01917 18.9708C9.28185 18.7701 9.59621 18.6485 9.92545 18.62L18.1429 17.8059L22.4326 9.29967L22.4345 9.29603C22.582 9.00786 22.8063 8.76601 23.0825 8.59712Z" fill="white"/>
</g>
<defs>
<linearGradient id="paint0_linear_54_2934" x1="24" y1="0" x2="24" y2="48" gradientUnits="userSpaceOnUse">
<stop stop-color="#25F68D"/>
<stop offset="1" stop-color="#1BC0F2"/>
</linearGradient>
</defs>
</svg>
