<svg xmlns="http://www.w3.org/2000/svg" width="30" height="31" viewBox="0 0 30 31" fill="none">
  <path fill-rule="evenodd" clip-rule="evenodd" d="M15.4525 4.36045C15.7644 4.16975 16.1228 4.06885 16.4884 4.06885C16.8539 4.06885 17.2124 4.16975 17.5243 4.36045C17.8361 4.55114 18.0893 4.82422 18.2559 5.1496L18.2594 5.15638L20.6512 9.89501L25.1544 10.3411C25.5256 10.3745 25.8799 10.5123 26.1762 10.7386C26.4761 10.9677 26.704 11.2778 26.833 11.6324C26.962 11.987 26.9868 12.3711 26.9043 12.7393C26.8218 13.1075 26.6355 13.4443 26.3675 13.7099L22.6098 17.4343L24.0045 22.501C24.1025 22.8699 24.0917 23.2592 23.9737 23.6222C23.8556 23.9851 23.6352 24.3062 23.3389 24.5469C23.0427 24.7875 22.6832 24.9375 22.3038 24.9787C21.9254 25.0197 21.5432 24.9509 21.2029 24.7805C21.2026 24.7804 21.2031 24.7806 21.2029 24.7805L21.2014 24.7798L21.2002 24.7792L16.4884 22.446L11.7834 24.7762L11.7822 24.7768C11.782 24.7769 11.7825 24.7766 11.7822 24.7768C11.4419 24.9472 11.0587 25.0165 10.6803 24.9754C10.3009 24.9342 9.94142 24.7843 9.64517 24.5436C9.34892 24.303 9.12851 23.9819 9.01043 23.6189C8.89236 23.2559 8.88166 22.8666 8.97962 22.4977L8.9827 22.4861L10.3743 17.4314L6.61369 13.707C6.34578 13.4415 6.15911 13.1043 6.07658 12.736C5.99408 12.3679 6.01881 11.9837 6.14784 11.6292C6.27687 11.2746 6.50479 10.9644 6.80463 10.7354C7.10095 10.509 7.45524 10.3712 7.82645 10.3379L12.3293 9.89179L14.7172 5.15681L14.7184 5.15437L14.7196 5.15215L14.7209 5.1496C14.8875 4.82422 15.1406 4.55114 15.4525 4.36045ZM16.4884 5.89697C16.4594 5.89697 16.4309 5.90498 16.4062 5.92012C16.3817 5.93507 16.3618 5.9564 16.3486 5.98181C16.3485 5.98188 16.3486 5.98174 16.3486 5.98181M16.3486 5.98181L13.7355 11.1635C13.5946 11.4428 13.3207 11.6306 13.0094 11.6615L7.99058 12.1587C7.96291 12.1611 7.93648 12.1712 7.9144 12.1881C7.89219 12.2051 7.87531 12.2281 7.86575 12.2543C7.85619 12.2806 7.85436 12.309 7.86047 12.3363C7.86653 12.3634 7.88029 12.3884 7.90011 12.4081L12.0407 16.5089C12.2754 16.7413 12.3665 17.0824 12.2788 17.4009L10.7465 22.9669C10.7465 22.9671 10.7465 22.9668 10.7465 22.9669C10.7391 22.9952 10.7398 23.0255 10.7489 23.0534C10.758 23.0813 10.775 23.1061 10.7978 23.1247C10.8207 23.1432 10.8484 23.1548 10.8777 23.158C10.9069 23.1611 10.9363 23.1558 10.9626 23.1427L10.9677 23.1401L16.0827 20.6069C16.3384 20.4803 16.6384 20.4803 16.894 20.6069L22.0212 23.1457C22.0474 23.1589 22.0772 23.1644 22.1064 23.1612C22.1357 23.158 22.1634 23.1465 22.1863 23.1279C22.2091 23.1094 22.2261 23.0846 22.2352 23.0566C22.2441 23.0293 22.2451 23.0001 22.2382 22.9723L20.7053 17.4041C20.6176 17.0857 20.7086 16.7447 20.9431 16.5123L25.0806 12.4115C25.1005 12.3918 25.1143 12.3668 25.1204 12.3396C25.1265 12.3123 25.1247 12.2838 25.1151 12.2576C25.1055 12.2313 25.0887 12.2083 25.0664 12.1914C25.0444 12.1745 25.0179 12.1643 24.9903 12.1619L24.9789 12.1609L19.9713 11.6647C19.6602 11.6339 19.3863 11.4461 19.2454 11.167L16.6298 5.98489L16.6287 5.9828C16.6287 5.98273 16.6288 5.98288 16.6287 5.9828C16.6155 5.95708 16.5953 5.93521 16.5706 5.92012C16.5459 5.90498 16.5174 5.89697 16.4884 5.89697" fill="url(#paint0_linear_89_1225)"/>
  <defs>
    <linearGradient id="paint0_linear_89_1225" x1="16.4904" y1="4.06885" x2="16.4904" y2="24.9902" gradientUnits="userSpaceOnUse">
      <stop stop-color="#25F68D"/>
      <stop offset="1" stop-color="#1BC0F2"/>
    </linearGradient>
  </defs>
</svg>