<svg width="16" height="16" viewBox="0 0 16 16" fill="none" xmlns="http://www.w3.org/2000/svg">
<g clip-path="url(#clip0_756_693)">
<path fill-rule="evenodd" clip-rule="evenodd" d="M0.451026 0.451006C0.739812 0.162232 1.13149 0 1.5399 0L5.82212 3.05937e-08C5.82214 3.05937e-08 5.8221 3.05937e-08 5.82212 3.05937e-08C6.5026 -6.51952e-05 7.15531 0.2701 7.63663 0.751096L15.5491 8.66321C15.8378 8.95197 16 9.34362 16 9.75192C16 10.1602 15.8378 10.5518 15.5491 10.8406L10.8411 15.5491C10.5524 15.8378 10.1607 16 9.75234 16C9.34402 16 8.95241 15.8378 8.66364 15.5492L0.751228 7.63641C0.270212 7.1551 -6.52168e-05 6.50238 1.18039e-08 5.82193C1.18039e-08 5.82191 1.18039e-08 5.82195 1.18039e-08 5.82193V1.53983C1.18039e-08 1.13144 0.162239 0.739781 0.451026 0.451006ZM1.5399 1.02655C1.40376 1.02655 1.2732 1.08063 1.17694 1.17689C1.08068 1.27315 1.0266 1.4037 1.0266 1.53983V5.82193C1.02655 6.23021 1.18866 6.62186 1.47728 6.91065L9.38944 14.8232C9.38946 14.8232 9.38942 14.8231 9.38944 14.8232C9.48569 14.9193 9.61627 14.9734 9.75234 14.9734C9.88841 14.9734 10.0189 14.9194 10.1152 14.8232L14.8231 10.1148C14.8231 10.1148 14.8231 10.1148 14.8231 10.1148C14.9193 10.0186 14.9734 9.88801 14.9734 9.75192C14.9734 9.61585 14.9194 9.48534 14.8232 9.38909C14.8232 9.38907 14.8232 9.38911 14.8232 9.38909L6.91095 1.47721C6.62215 1.18861 6.23054 1.02651 5.82224 1.02655H1.5399ZM3.5171 2.6836C3.70393 2.60621 3.90417 2.56639 4.10639 2.56639C4.30862 2.56639 4.50886 2.60621 4.69569 2.6836C4.88252 2.76098 5.05227 2.87441 5.19527 3.01739C5.33826 3.16038 5.45169 3.33013 5.52907 3.51695C5.60646 3.70377 5.64629 3.904 5.64629 4.10622C5.64629 4.30843 5.60646 4.50866 5.52907 4.69549C5.45169 4.88231 5.33826 5.05206 5.19527 5.19504C5.05227 5.33803 4.88251 5.45145 4.69569 5.52884C4.50886 5.60622 4.30862 5.64605 4.10639 5.64605C3.90417 5.64605 3.70393 5.60622 3.5171 5.52884C3.33027 5.45145 3.16051 5.33803 3.01752 5.19504C2.87453 5.05206 2.7611 4.88231 2.68371 4.69549C2.60633 4.50866 2.5665 4.30843 2.5665 4.10622C2.5665 3.904 2.60633 3.70377 2.68371 3.51695C2.7611 3.33013 2.87453 3.16038 3.01752 3.01739C3.16051 2.87441 3.33027 2.76098 3.5171 2.6836ZM4.10639 3.59294C4.03899 3.59294 3.97224 3.60622 3.90996 3.63201C3.84769 3.65781 3.7911 3.69561 3.74344 3.74328C3.69577 3.79094 3.65796 3.84752 3.63217 3.90979C3.60637 3.97207 3.59309 4.03881 3.59309 4.10622C3.59309 4.17362 3.60637 4.24037 3.63217 4.30264C3.65796 4.36491 3.69577 4.4215 3.74344 4.46916C3.7911 4.51682 3.84769 4.55463 3.90996 4.58042C3.97224 4.60622 4.03899 4.61949 4.10639 4.61949C4.1738 4.61949 4.24055 4.60622 4.30282 4.58042C4.3651 4.55463 4.42169 4.51682 4.46935 4.46916C4.51701 4.4215 4.55482 4.36491 4.58062 4.30264C4.60642 4.24037 4.61969 4.17362 4.61969 4.10622C4.61969 4.03881 4.60642 3.97207 4.58062 3.90979C4.55482 3.84752 4.51701 3.79094 4.46935 3.74328C4.42169 3.69561 4.3651 3.65781 4.30282 3.63201C4.24055 3.60622 4.1738 3.59294 4.10639 3.59294Z" fill="black"/>
</g>
<defs>
<clipPath id="clip0_756_693">
<rect width="16" height="16" fill="white"/>
</clipPath>
</defs>
</svg>
