<svg width="24" height="24" viewBox="0 0 24 24" fill="none" xmlns="http://www.w3.org/2000/svg">
<path d="M7.99609 12C7.99609 12.5523 7.54838 13 6.99609 13C6.44381 13 5.99609 12.5523 5.99609 12C5.99609 11.4477 6.44381 11 6.99609 11C7.54838 11 7.99609 11.4477 7.99609 12Z" fill="#4C4C52"/>
<path d="M12.9961 12C12.9961 12.5523 12.5484 13 11.9961 13C11.4438 13 10.9961 12.5523 10.9961 12C10.9961 11.4477 11.4438 11 11.9961 11C12.5484 11 12.9961 11.4477 12.9961 12Z" fill="#4C4C52"/>
<path d="M17.9961 12C17.9961 12.5523 17.5484 13 16.9961 13C16.4438 13 15.9961 12.5523 15.9961 12C15.9961 11.4477 16.4438 11 16.9961 11C17.5484 11 17.9961 11.4477 17.9961 12Z" fill="#4C4C52"/>
</svg>
