<svg width="16" height="16" viewBox="0 0 16 16" fill="none" xmlns="http://www.w3.org/2000/svg">
<path fill-rule="evenodd" clip-rule="evenodd" d="M8.21252 2.95178L9.82653 3.39641C10.0343 3.45706 10.2488 3.49146 10.4651 3.49877C10.5854 3.50283 10.6805 3.6019 10.6798 3.72224L10.6531 8.03335C10.6524 8.15554 10.5531 8.2542 10.4309 8.2542C9.6058 8.2542 8.81447 8.58198 8.23103 9.16542C7.64758 9.74887 7.3198 10.5402 7.3198 11.3653V12.0542C7.3198 12.3784 7.19103 12.6892 6.96182 12.9184C6.73261 13.1477 6.42173 13.2764 6.09758 13.2764C5.77343 13.2764 5.46255 13.1477 5.23334 12.9184C5.00413 12.6892 4.87536 12.3784 4.87536 12.0542V10.552C4.87536 10.4318 4.84765 10.3575 4.81304 10.3069C4.77733 10.2547 4.72162 10.2093 4.63634 10.1687C4.54944 10.1272 4.44171 10.0953 4.31249 10.0654C4.23634 10.0477 4.16966 10.0342 4.09957 10.02C4.038 10.0076 3.9738 9.99458 3.89826 9.9778L3.8928 9.97658C3.39326 9.85231 2.95252 9.55806 2.64612 9.14442C2.33971 8.73077 2.18674 8.22342 2.21343 7.70934L2.21351 7.70782L2.34739 5.43196C2.41925 4.71689 2.75525 4.0543 3.28943 3.57354C3.82347 3.0929 4.51745 2.82852 5.2359 2.83198C5.64742 2.83198 5.99067 2.83101 6.2793 2.8302C6.8113 2.8287 7.15773 2.82773 7.40404 2.83428C7.79607 2.8447 7.95728 2.87485 8.21252 2.95178ZM6.29199 3.27462C6.00241 3.27544 5.65538 3.27642 5.23536 3.27642H5.23424C4.62615 3.27337 4.03875 3.49709 3.58675 3.90389C3.13586 4.30969 2.85201 4.8686 2.79025 5.47194L2.65724 7.73313C2.63609 8.14393 2.7584 8.54932 3.00325 8.87987C3.24771 9.20989 3.59912 9.4448 3.99745 9.54455C4.04907 9.55598 4.11095 9.56867 4.17464 9.58172C4.25708 9.59861 4.34254 9.61612 4.41267 9.63235C4.55178 9.66453 4.69683 9.70509 4.8277 9.76752C4.9602 9.83073 5.08727 9.92061 5.17989 10.056C5.27362 10.1931 5.3198 10.3588 5.3198 10.552V12.0542C5.3198 12.2605 5.40175 12.4583 5.54761 12.6042C5.69347 12.75 5.8913 12.832 6.09758 12.832C6.30386 12.832 6.50169 12.75 6.64755 12.6042C6.79341 12.4583 6.87536 12.2605 6.87536 12.0542V11.3653C6.87536 10.4223 7.24996 9.51795 7.91676 8.85115C8.5313 8.23661 9.34763 7.87026 10.21 7.81662L10.2341 3.92793C10.0546 3.909 9.87713 3.8741 9.70363 3.82356L8.08667 3.37811C7.87232 3.3134 7.75108 3.28811 7.39223 3.27856C7.15242 3.27219 6.81644 3.27314 6.29199 3.27462Z" fill="#303E84"/>
<path fill-rule="evenodd" clip-rule="evenodd" d="M10.2354 3.0542C10.2354 2.93147 10.3349 2.83198 10.4576 2.83198H12.4576C12.5803 2.83198 12.6798 2.93147 12.6798 3.0542V9.0542C12.6798 9.17693 12.5803 9.27642 12.4576 9.27642H10.4576C10.3349 9.27642 10.2354 9.17693 10.2354 9.0542V3.0542ZM10.6798 3.27642V8.83198H12.2354V3.27642H10.6798Z" fill="#303E84"/>
</svg>
