<svg width="16" height="16" viewBox="0 0 16 16" fill="none" xmlns="http://www.w3.org/2000/svg">
<path fill-rule="evenodd" clip-rule="evenodd" d="M8.16244 3.13532C8.39165 2.90611 8.70253 2.77734 9.02668 2.77734C9.35083 2.77734 9.66171 2.90611 9.89092 3.13532C10.1201 3.36454 10.2489 3.67541 10.2489 3.99957V5.51068C10.2489 5.63939 10.2803 5.71722 10.3184 5.76933C10.3582 5.82379 10.4198 5.86957 10.5107 5.90906C10.6031 5.94916 10.7138 5.97774 10.8411 6.00444C10.8796 6.01253 10.9214 6.02074 10.9645 6.0292C11.0533 6.04665 11.1477 6.06521 11.2317 6.0862C11.7312 6.21047 12.1717 6.50459 12.4781 6.91824C12.7845 7.33188 12.9375 7.83923 12.9108 8.35331L12.9107 8.35484L12.7769 10.6307C12.705 11.3458 12.369 12.0084 11.8348 12.4891C11.3008 12.9698 10.6068 13.2341 9.8883 13.2307H7.70668C7.28619 13.2307 7.11496 13.1812 6.094 12.8862C5.87269 12.8222 5.61146 12.7467 5.29911 12.6577L5.29774 12.6573C5.08999 12.5967 4.87547 12.5623 4.65917 12.555C4.5389 12.5509 4.44372 12.4519 4.44446 12.3315L4.47113 8.02041C4.47188 7.89822 4.57115 7.79957 4.69335 7.79957C5.55681 7.79957 6.1691 7.56381 6.60813 7.22386C7.0497 6.88194 7.33241 6.42177 7.51228 5.94841C7.85298 5.05183 7.81132 4.15032 7.80511 4.01575C7.80471 4.00717 7.80446 4.00171 7.80446 3.99957C7.80446 3.67541 7.93323 3.36454 8.16244 3.13532ZM9.02668 3.22179C8.8204 3.22179 8.62257 3.30373 8.47671 3.44959C8.33085 3.59546 8.2489 3.79329 8.2489 3.99957C8.2489 3.99412 8.26743 4.27358 8.23741 4.66383C8.20723 5.05623 8.12768 5.58013 7.92774 6.10628C7.72762 6.63292 7.40366 7.16997 6.88023 7.57527C6.39586 7.95034 5.75452 8.20175 4.91423 8.23916L4.89019 12.1258C5.06997 12.1448 5.24784 12.1798 5.42166 12.2305L5.36001 12.444L5.42092 12.2303L5.42166 12.2305C5.74368 12.3223 6.00983 12.399 6.23225 12.4631C7.25417 12.7577 7.35311 12.7862 7.70668 12.7862H9.8889L9.89002 12.7862C10.4981 12.7893 11.0855 12.5656 11.5375 12.1588C11.9884 11.753 12.2723 11.1941 12.334 10.5907L12.3337 10.5954L12.5556 10.6085L12.3345 10.5862C12.3343 10.5877 12.3342 10.5892 12.334 10.5907L12.467 8.33027L12.6889 8.34179L12.4671 8.32874L12.467 8.32952C12.4882 7.91872 12.3659 7.51333 12.121 7.18278C11.876 6.85203 11.5236 6.61681 11.1241 6.51744C11.0505 6.49902 10.9763 6.48448 10.8953 6.46862C10.8494 6.45965 10.8014 6.45023 10.7498 6.43941C10.6162 6.41139 10.4691 6.37553 10.3337 6.31674C10.1969 6.25734 10.0607 6.16978 9.95969 6.03175C9.85698 5.89136 9.80446 5.71752 9.80446 5.51068V3.99957C9.80446 3.79329 9.72251 3.59546 9.57665 3.44959C9.43079 3.30373 9.23296 3.22179 9.02668 3.22179Z" fill="#888"/>
<path fill-rule="evenodd" clip-rule="evenodd" d="M2.44446 6.99957C2.44446 6.87684 2.54395 6.77734 2.66668 6.77734H4.66668C4.78941 6.77734 4.8889 6.87684 4.8889 6.99957V12.9996C4.8889 13.1223 4.78941 13.2218 4.66668 13.2218H2.66668C2.54395 13.2218 2.44446 13.1223 2.44446 12.9996V6.99957ZM2.8889 7.22179V12.7773H4.44446V7.22179H2.8889Z" fill="#888"/>
</svg>
