<svg width="16" height="16" viewBox="0 0 16 16" fill="none" xmlns="http://www.w3.org/2000/svg">
<path fill-rule="evenodd" clip-rule="evenodd" d="M7.64645 0.146447C7.84171 -0.0488155 8.15829 -0.0488155 8.35355 0.146447L10.8536 2.64645C11.0488 2.84171 11.0488 3.15829 10.8536 3.35355C10.6583 3.54882 10.3417 3.54882 10.1464 3.35355L8.5 1.70711V7.5C8.5 7.77614 8.27614 8 8 8C7.72386 8 7.5 7.77614 7.5 7.5V1.70711L5.85355 3.35355C5.65829 3.54882 5.34171 3.54882 5.14645 3.35355C4.95118 3.15829 4.95118 2.84171 5.14645 2.64645L7.64645 0.146447ZM3.5 6C3.36739 6 3.24021 6.05268 3.14645 6.14645C3.05268 6.24021 3 6.36739 3 6.5V14.5C3 14.6326 3.05268 14.7598 3.14645 14.8536C3.24021 14.9473 3.36739 15 3.5 15H12.5C12.6326 15 12.7598 14.9473 12.8536 14.8536C12.9473 14.7598 13 14.6326 13 14.5V6.5C13 6.36739 12.9473 6.24021 12.8536 6.14645C12.7598 6.05268 12.6326 6 12.5 6H11.5C11.2239 6 11 5.77614 11 5.5C11 5.22386 11.2239 5 11.5 5H12.5C12.8978 5 13.2794 5.15803 13.5607 5.43934C13.842 5.72064 14 6.10218 14 6.5V14.5C14 14.8978 13.842 15.2794 13.5607 15.5607C13.2794 15.842 12.8978 16 12.5 16H3.5C3.10217 16 2.72064 15.842 2.43934 15.5607C2.15804 15.2794 2 14.8978 2 14.5V6.5C2 6.10218 2.15803 5.72064 2.43934 5.43934C2.72064 5.15803 3.10218 5 3.5 5H4.5C4.77614 5 5 5.22386 5 5.5C5 5.77614 4.77614 6 4.5 6H3.5Z" fill="black"/>
</svg>
