<svg width="35" height="23" viewBox="0 0 35 23" fill="none" xmlns="http://www.w3.org/2000/svg">
<path d="M34.0439 5.0625H30.0801V9.02636H28.9639V5.0625H25V3.96386H28.9639V0H30.0801V3.96386H34.0439V5.0625Z" fill="#02C4A1"/>
<path fill-rule="evenodd" clip-rule="evenodd" d="M11.427 3C11.0092 2.99992 10.5996 3.11619 10.2441 3.33578L11.427 3ZM11.4268 4.5C11.2875 4.49996 11.1509 4.53872 11.0324 4.61193C10.9139 4.68514 10.8181 4.78991 10.7558 4.9145L9.67088 7.08529C9.54386 7.33944 9.28413 7.5 9 7.5H2.25C2.05109 7.5 1.86032 7.57902 1.71967 7.71967C1.57902 7.86032 1.5 8.05109 1.5 8.25V20.25C1.5 20.4489 1.57902 20.6397 1.71967 20.7803C1.86032 20.921 2.05109 21 2.25 21H21.75C21.9489 21 22.1397 20.921 22.2803 20.7803C22.421 20.6397 22.5 20.4489 22.5 20.25V8.25C22.5 8.05109 22.421 7.86032 22.2803 7.71967C22.1397 7.57902 21.9489 7.5 21.75 7.5H19.5C19.2159 7.5 18.9561 7.33944 18.8291 7.08529L17.7442 4.9145C17.6819 4.79001 17.5861 4.6851 17.4676 4.61193C17.3491 4.53872 17.2125 4.49996 17.0732 4.5H11.4268ZM9 6H6V5.25C6 4.83579 5.66421 4.5 5.25 4.5C4.83579 4.5 4.5 4.83579 4.5 5.25V6H2.25C1.65326 6 1.08097 6.23705 0.65901 6.65901C0.237053 7.08097 0 7.65326 0 8.25V20.25C0 20.8467 0.237053 21.419 0.65901 21.841C1.08097 22.2629 1.65326 22.5 2.25 22.5H21.75C22.3467 22.5 22.919 22.2629 23.341 21.841C23.7629 21.419 24 20.8467 24 20.25V8.25C24 7.65326 23.7629 7.08097 23.341 6.65901C22.919 6.23705 22.3467 6 21.75 6H19.9636L19.0859 4.24371C18.8989 3.86994 18.6115 3.55541 18.2559 3.33578C17.9004 3.11619 17.4908 2.99992 17.073 3H11.427L9 6ZM9 6H8.53638L9.41412 4.24371C9.60106 3.86994 9.88852 3.55541 10.2441 3.33578L9 6ZM11.9539 7.95672C12.6819 7.65519 13.4621 7.5 14.25 7.5C15.0379 7.5 15.8181 7.65519 16.5461 7.95672C17.2741 8.25825 17.9355 8.70021 18.4926 9.25736C19.0498 9.81451 19.4918 10.476 19.7933 11.2039C20.0948 11.9319 20.25 12.7121 20.25 13.5C20.25 14.2879 20.0948 15.0681 19.7933 15.7961C19.4918 16.5241 19.0498 17.1855 18.4926 17.7426C17.9355 18.2998 17.2741 18.7418 16.5461 19.0433C15.8181 19.3448 15.0379 19.5 14.25 19.5C13.4621 19.5 12.6819 19.3448 11.9539 19.0433C11.2259 18.7418 10.5645 18.2998 10.0074 17.7426C9.45021 17.1855 9.00825 16.5241 8.70672 15.7961C8.4052 15.0681 8.25 14.2879 8.25 13.5C8.25 12.7121 8.4052 11.9319 8.70672 11.2039C9.00825 10.476 9.45021 9.81451 10.0074 9.25736C10.5645 8.70021 11.2259 8.25825 11.9539 7.95672ZM14.25 9C13.6591 9 13.0739 9.1164 12.5279 9.34254C11.982 9.56869 11.4859 9.90016 11.068 10.318C10.6502 10.7359 10.3187 11.232 10.0925 11.7779C9.8664 12.3239 9.75 12.909 9.75 13.5C9.75 14.0909 9.8664 14.6761 10.0925 15.2221C10.3187 15.768 10.6502 16.2641 11.068 16.682C11.4859 17.0998 11.982 17.4313 12.5279 17.6575C13.0739 17.8836 13.659 18 14.25 18C14.841 18 15.4261 17.8836 15.9721 17.6575C16.518 17.4313 17.0141 17.0998 17.432 16.682C17.8498 16.2641 18.1813 15.768 18.4075 15.2221C18.6336 14.6761 18.75 14.091 18.75 13.5C18.75 12.909 18.6336 12.3239 18.4075 11.7779C18.1813 11.232 17.8498 10.7359 17.432 10.318C17.0141 9.90016 16.518 9.56869 15.9721 9.34254C15.4261 9.1164 14.8409 9 14.25 9ZM4.19816 10.4928C4.27037 10.4784 4.33734 10.443 4.39016 10.3902C4.44299 10.3373 4.47843 10.2704 4.4928 10.1982C4.49755 10.1742 4.5 10.1497 4.5 10.125C4.5 10.0755 4.49021 10.0268 4.47146 9.98149C4.4621 9.95891 4.45051 9.93718 4.4368 9.91666C4.40931 9.87552 4.37409 9.84043 4.33334 9.8132C4.31301 9.79962 4.29131 9.78799 4.26851 9.77855C4.22279 9.75961 4.17401 9.75 4.125 9.75C4.10055 9.75 4.07605 9.75239 4.05184 9.75721C3.9791 9.77167 3.91228 9.80739 3.85984 9.85984C3.80739 9.91228 3.77168 9.9791 3.75721 10.0518C3.75239 10.076 3.75 10.1005 3.75 10.125C3.75 10.174 3.75961 10.2228 3.77854 10.2685C3.78799 10.2913 3.79962 10.313 3.8132 10.3333C3.84043 10.3741 3.87552 10.4093 3.91666 10.4368C3.93718 10.4505 3.95891 10.4621 3.98149 10.4714C4.02677 10.4902 4.07551 10.5 4.125 10.5C4.14975 10.5 4.17424 10.4976 4.19816 10.4928ZM3.3295 9.3295C3.54048 9.11853 3.82663 9 4.125 9C4.34751 9 4.56501 9.06598 4.75002 9.1896C4.93502 9.31321 5.07922 9.48891 5.16436 9.69448C5.24951 9.90005 5.27179 10.1263 5.22838 10.3445C5.18498 10.5627 5.07783 10.7632 4.9205 10.9205C4.76316 11.0778 4.5627 11.185 4.34448 11.2284C4.12625 11.2718 3.90005 11.2495 3.69448 11.1644C3.48891 11.0792 3.31321 10.935 3.1896 10.75C3.06598 10.565 3 10.3475 3 10.125C3 9.82663 3.11853 9.54048 3.3295 9.3295Z" fill="#02C4A1"/>
</svg>
