<svg width="24" height="28" viewBox="0 0 24 28" fill="none" xmlns="http://www.w3.org/2000/svg">
<path fill-rule="evenodd" clip-rule="evenodd" d="M6.75736 1.75736C7.88258 0.632141 9.4087 0 11 0C12.5913 0 14.1174 0.632141 15.2426 1.75736C16.3679 2.88258 17 4.4087 17 6C17 7.5913 16.3679 9.11742 15.2426 10.2426C14.1174 11.3679 12.5913 12 11 12C9.4087 12 7.88258 11.3679 6.75736 10.2426C5.63214 9.11742 5 7.5913 5 6C5 4.4087 5.63214 2.88258 6.75736 1.75736ZM11 1.5C9.80653 1.5 8.66193 1.97411 7.81802 2.81802C6.97411 3.66193 6.5 4.80653 6.5 6C6.5 7.19347 6.97411 8.33807 7.81802 9.18198C8.66193 10.0259 9.80653 10.5 11 10.5C12.1935 10.5 13.3381 10.0259 14.182 9.18198C15.0259 8.33807 15.5 7.19347 15.5 6C15.5 4.80653 15.0259 3.66193 14.182 2.81802C13.3381 1.97411 12.1935 1.5 11 1.5Z" fill="white"/>
<path fill-rule="evenodd" clip-rule="evenodd" d="M11 14.25C8.61305 14.25 6.32387 15.1982 4.63604 16.886C2.94821 18.5739 2 20.8631 2 23.25C2 23.6642 1.66421 24 1.25 24C0.835786 24 0.5 23.6642 0.5 23.25C0.5 20.4652 1.60625 17.7945 3.57538 15.8254C5.54451 13.8562 8.21523 12.75 11 12.75C13.7848 12.75 16.4555 13.8562 18.4246 15.8254C20.3938 17.7945 21.5 20.4652 21.5 23.25C21.5 23.6642 21.1642 24 20.75 24C20.3358 24 20 23.6642 20 23.25C20 20.8631 19.0518 18.5739 17.364 16.886C15.6761 15.1982 13.3869 14.25 11 14.25Z" fill="white"/>
</svg>
