<svg width="24" height="28" viewBox="0 0 24 28" fill="none" xmlns="http://www.w3.org/2000/svg">
<rect width="24" height="24" fill="#151451"/>
<path fill-rule="evenodd" clip-rule="evenodd" d="M9.17157 5.17157C9.92172 4.42143 10.9391 4 12 4C13.0609 4 14.0783 4.42143 14.8284 5.17157C15.5786 5.92172 16 6.93913 16 8C16 9.06087 15.5786 10.0783 14.8284 10.8284C14.0783 11.5786 13.0609 12 12 12C10.9391 12 9.92172 11.5786 9.17157 10.8284C8.42143 10.0783 8 9.06087 8 8C8 6.93913 8.42143 5.92172 9.17157 5.17157ZM12 5C11.2044 5 10.4413 5.31607 9.87868 5.87868C9.31607 6.44129 9 7.20435 9 8C9 8.79565 9.31607 9.55871 9.87868 10.1213C10.4413 10.6839 11.2044 11 12 11C12.7956 11 13.5587 10.6839 14.1213 10.1213C14.6839 9.55871 15 8.79565 15 8C15 7.20435 14.6839 6.44129 14.1213 5.87868C13.5587 5.31607 12.7956 5 12 5Z" fill="white"/>
<path fill-rule="evenodd" clip-rule="evenodd" d="M12 13.5C10.4087 13.5 8.88258 14.1321 7.75736 15.2574C6.63214 16.3826 6 17.9087 6 19.5C6 19.7761 5.77614 20 5.5 20C5.22386 20 5 19.7761 5 19.5C5 17.6435 5.7375 15.863 7.05025 14.5503C8.36301 13.2375 10.1435 12.5 12 12.5C13.8565 12.5 15.637 13.2375 16.9497 14.5503C18.2625 15.863 19 17.6435 19 19.5C19 19.7761 18.7761 20 18.5 20C18.2239 20 18 19.7761 18 19.5C18 17.9087 17.3679 16.3826 16.2426 15.2574C15.1174 14.1321 13.5913 13.5 12 13.5Z" fill="white"/>
<path d="M11.5 28L8.46891 23.5L14.5311 23.5L11.5 28Z" fill="#151451"/>
</svg>

