<svg width="24" height="18" viewBox="0 0 24 24" fill="none" xmlns="http://www.w3.org/2000/svg">
<path fill-rule="evenodd" clip-rule="evenodd" d="M7.75736 1.75736C8.88258 0.632141 10.4087 0 12 0C13.5913 0 15.1174 0.632141 16.2426 1.75736C17.3679 2.88258 18 4.4087 18 6C18 7.5913 17.3679 9.11742 16.2426 10.2426C15.1174 11.3679 13.5913 12 12 12C10.4087 12 8.88258 11.3679 7.75736 10.2426C6.63214 9.11742 6 7.5913 6 6C6 4.4087 6.63214 2.88258 7.75736 1.75736ZM12 1.5C10.8065 1.5 9.66193 1.97411 8.81802 2.81802C7.97411 3.66193 7.5 4.80653 7.5 6C7.5 7.19347 7.97411 8.33807 8.81802 9.18198C9.66193 10.0259 10.8065 10.5 12 10.5C13.1935 10.5 14.3381 10.0259 15.182 9.18198C16.0259 8.33807 16.5 7.19347 16.5 6C16.5 4.80653 16.0259 3.66193 15.182 2.81802C14.3381 1.97411 13.1935 1.5 12 1.5Z" fill="black"/>
<path fill-rule="evenodd" clip-rule="evenodd" d="M12 14.25C9.61305 14.25 7.32387 15.1982 5.63604 16.886C3.94821 18.5739 3 20.8631 3 23.25C3 23.6642 2.66421 24 2.25 24C1.83579 24 1.5 23.6642 1.5 23.25C1.5 20.4652 2.60625 17.7945 4.57538 15.8254C6.54451 13.8562 9.21523 12.75 12 12.75C14.7848 12.75 17.4555 13.8562 19.4246 15.8254C21.3938 17.7945 22.5 20.4652 22.5 23.25C22.5 23.6642 22.1642 24 21.75 24C21.3358 24 21 23.6642 21 23.25C21 20.8631 20.0518 18.5739 18.364 16.886C16.6761 15.1982 14.3869 14.25 12 14.25Z" fill="black"/>
<path d="M11.5 28L8.46891 23.5L14.5311 23.5L11.5 28Z" fill="none"/>
</svg>
