<svg width="14" height="14" viewBox="0 0 14 14" fill="none" xmlns="http://www.w3.org/2000/svg">
<path fill-rule="evenodd" clip-rule="evenodd" d="M4.88782 2.0645C5.52141 1.80206 6.20049 1.66699 6.88628 1.66699C7.57207 1.66699 8.25115 1.80206 8.88474 2.0645C9.51831 2.32695 10.094 2.71161 10.5789 3.19654C11.0639 3.68147 11.4485 4.25716 11.711 4.89075C11.9734 5.52434 12.1085 6.20342 12.1085 6.88921C12.1085 7.575 11.9734 8.25408 11.711 8.88767C11.4485 9.52126 11.0639 10.097 10.5789 10.5819C10.094 11.0668 9.51831 11.4515 8.88474 11.714C8.25115 11.9764 7.57207 12.1115 6.88628 12.1115C6.20049 12.1115 5.52141 11.9764 4.88782 11.714C4.25423 11.4515 3.67854 11.0668 3.19361 10.5819C2.70868 10.097 2.32402 9.52126 2.06158 8.88767C1.79913 8.25408 1.66406 7.575 1.66406 6.88921C1.66406 6.20342 1.79913 5.52434 2.06158 4.89075C2.32402 4.25716 2.70868 3.68147 3.19361 3.19654C3.67854 2.71161 4.25423 2.32695 4.88782 2.0645ZM6.88628 2.11143C6.25885 2.11143 5.63757 2.23501 5.0579 2.47512C4.47824 2.71522 3.95154 3.06715 3.50788 3.51081C3.06422 3.95447 2.71229 4.48117 2.47219 5.06083C2.23208 5.6405 2.1085 6.26178 2.1085 6.88921C2.1085 7.51663 2.23208 8.13792 2.47219 8.71758C2.71229 9.29726 3.06422 9.82396 3.50788 10.2676C3.95154 10.7113 4.47824 11.0632 5.0579 11.3033C5.63757 11.5434 6.25885 11.667 6.88628 11.667C7.51371 11.667 8.13499 11.5434 8.71466 11.3033C9.29431 11.0632 9.82101 10.7113 10.2647 10.2676C10.7083 9.82396 11.0603 9.29726 11.3004 8.71758C11.5405 8.13792 11.664 7.51663 11.664 6.88921C11.664 6.26178 11.5405 5.6405 11.3004 5.06083C11.0603 4.48117 10.7083 3.95447 10.2647 3.51081C9.82101 3.06715 9.29431 2.71522 8.71466 2.47512C8.13499 2.23501 7.51371 2.11143 6.88628 2.11143Z" fill="white"/>
<path fill-rule="evenodd" clip-rule="evenodd" d="M6.07685 1.82011C6.17597 1.89249 6.19764 2.03151 6.12526 2.13063C5.46794 3.03079 4.99913 4.8549 4.99913 6.91069C4.99913 8.96436 5.46715 10.7463 6.12668 11.6705C6.19798 11.7704 6.17478 11.9092 6.07488 11.9804C5.97498 12.0517 5.8362 12.0285 5.76491 11.9286C5.02889 10.8973 4.55469 9.00812 4.55469 6.91069C4.55469 4.81537 5.0281 2.87948 5.76633 1.86853C5.83871 1.76941 5.97773 1.74774 6.07685 1.82011Z" fill="white"/>
<path fill-rule="evenodd" clip-rule="evenodd" d="M7.70056 1.82011C7.79968 1.74774 7.9387 1.76941 8.01108 1.86853C8.7493 2.87948 9.22272 4.81537 9.22272 6.91069C9.22272 9.00812 8.74852 10.8973 8.0125 11.9286C7.9412 12.0285 7.80243 12.0517 7.70253 11.9804C7.60263 11.9092 7.57943 11.7704 7.65073 11.6705C8.31026 10.7463 8.77828 8.96436 8.77828 6.91069C8.77828 4.8549 8.30947 3.03079 7.65215 2.13063C7.57977 2.03151 7.60144 1.89249 7.70056 1.82011Z" fill="white"/>
<path fill-rule="evenodd" clip-rule="evenodd" d="M1.66406 6.88921C1.66406 6.76648 1.76355 6.66699 1.88628 6.66699H11.8863C12.009 6.66699 12.1085 6.76648 12.1085 6.88921C12.1085 7.01194 12.009 7.11143 11.8863 7.11143H1.88628C1.76355 7.11143 1.66406 7.01194 1.66406 6.88921Z" fill="white"/>
<path fill-rule="evenodd" clip-rule="evenodd" d="M2.24219 9.22224C2.24219 9.09954 2.34168 9 2.46441 9H11.3089C11.4316 9 11.5311 9.09954 11.5311 9.22224C11.5311 9.34494 11.4316 9.44444 11.3089 9.44444H2.46441C2.34168 9.44444 2.24219 9.34494 2.24219 9.22224Z" fill="white"/>
<path fill-rule="evenodd" clip-rule="evenodd" d="M2.24219 4.55523C2.24219 4.4325 2.34168 4.33301 2.46441 4.33301H11.3089C11.4316 4.33301 11.5311 4.4325 11.5311 4.55523C11.5311 4.67796 11.4316 4.77746 11.3089 4.77746H2.46441C2.34168 4.77746 2.24219 4.67796 2.24219 4.55523Z" fill="white"/>
</svg>
