<svg width="393" height="369" viewBox="0 0 393 369" fill="none" xmlns="http://www.w3.org/2000/svg">
<path d="M0 19H393V369H0V19Z" fill="url(#paint0_linear_1691_985)"/>
<rect x="43" width="50" height="50" fill="#151451"/>
<path d="M67.4201 43.7502H62.8162L53.8539 28.6718V43.7502H49.25V20.8335H53.8539L62.8315 35.9434V20.8335H67.4201V43.7502Z" fill="white"/>
<path d="M74.1315 34.3852H67.5633V43.7502H62.9594V20.8335H77.5077V24.6582H67.5633V30.5762H74.1315V34.3852Z" fill="white"/>
<path d="M88.8333 24.6582H81.9889V43.7502H77.385V24.6582H70.6326V20.8335H88.8333V24.6582Z" fill="white"/>
<path d="M48.5664 119.562H54.1523L60.5 139.348L66.8477 119.562H72.4336L62.7656 148H58.2344L48.5664 119.562ZM45.168 119.562H50.9492L52.0234 141.359V148H45.168V119.562ZM70.0508 119.562H75.8516V148H68.9766V141.359L70.0508 119.562ZM79.1133 137.648V137.238C79.1133 135.689 79.3346 134.263 79.7773 132.961C80.2201 131.646 80.8711 130.507 81.7305 129.543C82.5898 128.579 83.651 127.831 84.9141 127.297C86.1771 126.75 87.6354 126.477 89.2891 126.477C90.9557 126.477 92.4206 126.75 93.6836 127.297C94.9596 127.831 96.0273 128.579 96.8867 129.543C97.7461 130.507 98.3971 131.646 98.8398 132.961C99.2826 134.263 99.5039 135.689 99.5039 137.238V137.648C99.5039 139.185 99.2826 140.611 98.8398 141.926C98.3971 143.228 97.7461 144.367 96.8867 145.344C96.0273 146.307 94.9661 147.056 93.7031 147.59C92.4401 148.124 90.9818 148.391 89.3281 148.391C87.6745 148.391 86.2096 148.124 84.9336 147.59C83.6576 147.056 82.5898 146.307 81.7305 145.344C80.8711 144.367 80.2201 143.228 79.7773 141.926C79.3346 140.611 79.1133 139.185 79.1133 137.648ZM85.6953 137.238V137.648C85.6953 138.443 85.7539 139.185 85.8711 139.875C85.9883 140.565 86.1836 141.171 86.457 141.691C86.7305 142.199 87.1016 142.596 87.5703 142.883C88.0391 143.169 88.625 143.312 89.3281 143.312C90.0182 143.312 90.5911 143.169 91.0469 142.883C91.5156 142.596 91.8867 142.199 92.1602 141.691C92.4336 141.171 92.6289 140.565 92.7461 139.875C92.8633 139.185 92.9219 138.443 92.9219 137.648V137.238C92.9219 136.47 92.8633 135.747 92.7461 135.07C92.6289 134.38 92.4336 133.775 92.1602 133.254C91.8867 132.72 91.5156 132.303 91.0469 132.004C90.5781 131.704 89.9922 131.555 89.2891 131.555C88.599 131.555 88.0195 131.704 87.5508 132.004C87.0951 132.303 86.7305 132.72 86.457 133.254C86.1836 133.775 85.9883 134.38 85.8711 135.07C85.7539 135.747 85.6953 136.47 85.6953 137.238ZM108.898 131.379V148H102.316V126.867H108.488L108.898 131.379ZM108.117 136.711L106.574 136.75C106.574 135.135 106.77 133.697 107.16 132.434C107.551 131.158 108.104 130.077 108.82 129.191C109.536 128.306 110.389 127.635 111.379 127.18C112.382 126.711 113.495 126.477 114.719 126.477C115.695 126.477 116.587 126.62 117.395 126.906C118.215 127.193 118.918 127.655 119.504 128.293C120.103 128.931 120.559 129.777 120.871 130.832C121.197 131.874 121.359 133.163 121.359 134.699V148H114.738V134.68C114.738 133.833 114.621 133.189 114.387 132.746C114.152 132.29 113.814 131.978 113.371 131.809C112.928 131.639 112.388 131.555 111.75 131.555C111.073 131.555 110.5 131.685 110.031 131.945C109.562 132.206 109.185 132.57 108.898 133.039C108.625 133.495 108.423 134.035 108.293 134.66C108.176 135.285 108.117 135.969 108.117 136.711ZM135.246 148.391C133.527 148.391 131.991 148.124 130.637 147.59C129.283 147.043 128.137 146.294 127.199 145.344C126.275 144.393 125.565 143.299 125.07 142.062C124.589 140.826 124.348 139.517 124.348 138.137V137.395C124.348 135.845 124.562 134.413 124.992 133.098C125.422 131.77 126.06 130.611 126.906 129.621C127.753 128.632 128.814 127.863 130.09 127.316C131.366 126.757 132.85 126.477 134.543 126.477C136.04 126.477 137.382 126.717 138.566 127.199C139.751 127.681 140.754 128.371 141.574 129.27C142.408 130.168 143.039 131.255 143.469 132.531C143.911 133.807 144.133 135.24 144.133 136.828V139.504H126.867V135.383H137.707V134.875C137.72 134.172 137.596 133.573 137.336 133.078C137.089 132.583 136.724 132.206 136.242 131.945C135.76 131.685 135.174 131.555 134.484 131.555C133.768 131.555 133.176 131.711 132.707 132.023C132.251 132.336 131.893 132.766 131.633 133.312C131.385 133.846 131.21 134.465 131.105 135.168C131.001 135.871 130.949 136.613 130.949 137.395V138.137C130.949 138.918 131.053 139.628 131.262 140.266C131.483 140.904 131.796 141.451 132.199 141.906C132.616 142.349 133.111 142.694 133.684 142.941C134.27 143.189 134.934 143.312 135.676 143.312C136.574 143.312 137.46 143.143 138.332 142.805C139.204 142.466 139.953 141.906 140.578 141.125L143.566 144.68C143.137 145.292 142.525 145.884 141.73 146.457C140.949 147.03 140.012 147.499 138.918 147.863C137.824 148.215 136.6 148.391 135.246 148.391ZM157.941 126.867V131.438H145.207V126.867H157.941ZM147.883 121.613H154.465V141.105C154.465 141.665 154.53 142.102 154.66 142.414C154.79 142.714 155.012 142.928 155.324 143.059C155.65 143.176 156.079 143.234 156.613 143.234C156.991 143.234 157.303 143.228 157.551 143.215C157.798 143.189 158.033 143.156 158.254 143.117V147.824C157.694 148.007 157.108 148.143 156.496 148.234C155.884 148.339 155.233 148.391 154.543 148.391C153.137 148.391 151.932 148.169 150.93 147.727C149.94 147.284 149.185 146.587 148.664 145.637C148.143 144.686 147.883 143.449 147.883 141.926V121.613ZM167.512 126.867V148H160.91V126.867H167.512ZM160.52 121.418C160.52 120.48 160.858 119.712 161.535 119.113C162.212 118.514 163.091 118.215 164.172 118.215C165.253 118.215 166.132 118.514 166.809 119.113C167.486 119.712 167.824 120.48 167.824 121.418C167.824 122.355 167.486 123.124 166.809 123.723C166.132 124.322 165.253 124.621 164.172 124.621C163.091 124.621 162.212 124.322 161.535 123.723C160.858 123.124 160.52 122.355 160.52 121.418ZM188.957 142.922V148H172.59V142.922H188.957ZM188.762 130.422L175.539 148H171.027V144.328L184.23 126.867H188.762V130.422ZM186.594 126.867V131.945H171.418V126.867H186.594ZM202.121 148.391C200.402 148.391 198.866 148.124 197.512 147.59C196.158 147.043 195.012 146.294 194.074 145.344C193.15 144.393 192.44 143.299 191.945 142.062C191.464 140.826 191.223 139.517 191.223 138.137V137.395C191.223 135.845 191.438 134.413 191.867 133.098C192.297 131.77 192.935 130.611 193.781 129.621C194.628 128.632 195.689 127.863 196.965 127.316C198.241 126.757 199.725 126.477 201.418 126.477C202.915 126.477 204.257 126.717 205.441 127.199C206.626 127.681 207.629 128.371 208.449 129.27C209.283 130.168 209.914 131.255 210.344 132.531C210.786 133.807 211.008 135.24 211.008 136.828V139.504H193.742V135.383H204.582V134.875C204.595 134.172 204.471 133.573 204.211 133.078C203.964 132.583 203.599 132.206 203.117 131.945C202.635 131.685 202.049 131.555 201.359 131.555C200.643 131.555 200.051 131.711 199.582 132.023C199.126 132.336 198.768 132.766 198.508 133.312C198.26 133.846 198.085 134.465 197.98 135.168C197.876 135.871 197.824 136.613 197.824 137.395V138.137C197.824 138.918 197.928 139.628 198.137 140.266C198.358 140.904 198.671 141.451 199.074 141.906C199.491 142.349 199.986 142.694 200.559 142.941C201.145 143.189 201.809 143.312 202.551 143.312C203.449 143.312 204.335 143.143 205.207 142.805C206.079 142.466 206.828 141.906 207.453 141.125L210.441 144.68C210.012 145.292 209.4 145.884 208.605 146.457C207.824 147.03 206.887 147.499 205.793 147.863C204.699 148.215 203.475 148.391 202.121 148.391ZM230.129 145.52L235.598 126.867H242.668L234.172 151.145C233.99 151.678 233.749 152.251 233.449 152.863C233.15 153.488 232.74 154.081 232.219 154.641C231.698 155.201 231.027 155.656 230.207 156.008C229.4 156.359 228.397 156.535 227.199 156.535C226.561 156.535 226.092 156.503 225.793 156.438C225.507 156.385 225.064 156.288 224.465 156.145V151.438C224.634 151.438 224.777 151.438 224.895 151.438C225.025 151.438 225.168 151.438 225.324 151.438C226.027 151.438 226.587 151.366 227.004 151.223C227.434 151.079 227.759 150.871 227.98 150.598C228.215 150.324 228.397 149.992 228.527 149.602L230.129 145.52ZM228.742 126.867L232.902 141.652L233.625 148.625H229.211L221.691 126.867H228.742ZM243.254 137.648V137.238C243.254 135.689 243.475 134.263 243.918 132.961C244.361 131.646 245.012 130.507 245.871 129.543C246.73 128.579 247.792 127.831 249.055 127.297C250.318 126.75 251.776 126.477 253.43 126.477C255.096 126.477 256.561 126.75 257.824 127.297C259.1 127.831 260.168 128.579 261.027 129.543C261.887 130.507 262.538 131.646 262.98 132.961C263.423 134.263 263.645 135.689 263.645 137.238V137.648C263.645 139.185 263.423 140.611 262.98 141.926C262.538 143.228 261.887 144.367 261.027 145.344C260.168 146.307 259.107 147.056 257.844 147.59C256.581 148.124 255.122 148.391 253.469 148.391C251.815 148.391 250.35 148.124 249.074 147.59C247.798 147.056 246.73 146.307 245.871 145.344C245.012 144.367 244.361 143.228 243.918 141.926C243.475 140.611 243.254 139.185 243.254 137.648ZM249.836 137.238V137.648C249.836 138.443 249.895 139.185 250.012 139.875C250.129 140.565 250.324 141.171 250.598 141.691C250.871 142.199 251.242 142.596 251.711 142.883C252.18 143.169 252.766 143.312 253.469 143.312C254.159 143.312 254.732 143.169 255.188 142.883C255.656 142.596 256.027 142.199 256.301 141.691C256.574 141.171 256.77 140.565 256.887 139.875C257.004 139.185 257.062 138.443 257.062 137.648V137.238C257.062 136.47 257.004 135.747 256.887 135.07C256.77 134.38 256.574 133.775 256.301 133.254C256.027 132.72 255.656 132.303 255.188 132.004C254.719 131.704 254.133 131.555 253.43 131.555C252.74 131.555 252.16 131.704 251.691 132.004C251.236 132.303 250.871 132.72 250.598 133.254C250.324 133.775 250.129 134.38 250.012 135.07C249.895 135.747 249.836 136.47 249.836 137.238ZM278.918 142.863V126.867H285.52V148H279.348L278.918 142.863ZM279.543 138.566L281.262 138.527C281.262 139.947 281.092 141.262 280.754 142.473C280.415 143.671 279.914 144.712 279.25 145.598C278.599 146.483 277.792 147.173 276.828 147.668C275.878 148.15 274.777 148.391 273.527 148.391C272.486 148.391 271.529 148.247 270.656 147.961C269.797 147.661 269.055 147.199 268.43 146.574C267.805 145.936 267.316 145.122 266.965 144.133C266.626 143.13 266.457 141.932 266.457 140.539V126.867H273.039V140.578C273.039 141.047 273.098 141.451 273.215 141.789C273.332 142.128 273.501 142.414 273.723 142.648C273.944 142.87 274.217 143.039 274.543 143.156C274.882 143.26 275.266 143.312 275.695 143.312C276.685 143.312 277.46 143.104 278.02 142.688C278.579 142.271 278.97 141.704 279.191 140.988C279.426 140.272 279.543 139.465 279.543 138.566ZM295.793 132.102V148H289.211V126.867H295.363L295.793 132.102ZM302.043 126.711L301.926 132.824C301.665 132.798 301.314 132.766 300.871 132.727C300.428 132.688 300.057 132.668 299.758 132.668C298.99 132.668 298.326 132.759 297.766 132.941C297.219 133.111 296.763 133.371 296.398 133.723C296.047 134.061 295.786 134.491 295.617 135.012C295.461 135.533 295.389 136.138 295.402 136.828L294.211 136.047C294.211 134.628 294.348 133.339 294.621 132.18C294.908 131.008 295.311 129.999 295.832 129.152C296.353 128.293 296.984 127.635 297.727 127.18C298.469 126.711 299.302 126.477 300.227 126.477C300.552 126.477 300.871 126.496 301.184 126.535C301.509 126.574 301.796 126.633 302.043 126.711ZM51.2812 181.711L55.1875 166.867H59.3086L57.8438 174.309L53.9766 188H50.6758L51.2812 181.711ZM49.7383 166.867L52.1602 181.594L52.4336 188H48.4297L43.4297 166.867H49.7383ZM62.7852 181.281L65.2266 166.867H71.5352L66.5742 188H62.5703L62.7852 181.281ZM59.7773 166.867L63.7227 181.672L64.3281 188H60.9883L57.1992 174.348L55.793 166.867H59.7773ZM80.5586 172.102V188H73.9766V166.867H80.1289L80.5586 172.102ZM86.8086 166.711L86.6914 172.824C86.431 172.798 86.0794 172.766 85.6367 172.727C85.194 172.688 84.8229 172.668 84.5234 172.668C83.7552 172.668 83.0911 172.759 82.5312 172.941C81.9844 173.111 81.5286 173.371 81.1641 173.723C80.8125 174.061 80.5521 174.491 80.3828 175.012C80.2266 175.533 80.1549 176.138 80.168 176.828L78.9766 176.047C78.9766 174.628 79.1133 173.339 79.3867 172.18C79.6732 171.008 80.0768 169.999 80.5977 169.152C81.1185 168.293 81.75 167.635 82.4922 167.18C83.2344 166.711 84.0677 166.477 84.9922 166.477C85.3177 166.477 85.6367 166.496 85.9492 166.535C86.2747 166.574 86.5612 166.633 86.8086 166.711ZM96.0273 166.867V188H89.4258V166.867H96.0273ZM89.0352 161.418C89.0352 160.48 89.3737 159.712 90.0508 159.113C90.7279 158.514 91.6068 158.215 92.6875 158.215C93.7682 158.215 94.6471 158.514 95.3242 159.113C96.0013 159.712 96.3398 160.48 96.3398 161.418C96.3398 162.355 96.0013 163.124 95.3242 163.723C94.6471 164.322 93.7682 164.621 92.6875 164.621C91.6068 164.621 90.7279 164.322 90.0508 163.723C89.3737 163.124 89.0352 162.355 89.0352 161.418ZM111.223 166.867V171.438H98.4883V166.867H111.223ZM101.164 161.613H107.746V181.105C107.746 181.665 107.811 182.102 107.941 182.414C108.072 182.714 108.293 182.928 108.605 183.059C108.931 183.176 109.361 183.234 109.895 183.234C110.272 183.234 110.585 183.228 110.832 183.215C111.079 183.189 111.314 183.156 111.535 183.117V187.824C110.975 188.007 110.389 188.143 109.777 188.234C109.165 188.339 108.514 188.391 107.824 188.391C106.418 188.391 105.214 188.169 104.211 187.727C103.221 187.284 102.466 186.587 101.945 185.637C101.424 184.686 101.164 183.449 101.164 181.926V161.613ZM120.793 166.867V188H114.191V166.867H120.793ZM113.801 161.418C113.801 160.48 114.139 159.712 114.816 159.113C115.493 158.514 116.372 158.215 117.453 158.215C118.534 158.215 119.413 158.514 120.09 159.113C120.767 159.712 121.105 160.48 121.105 161.418C121.105 162.355 120.767 163.124 120.09 163.723C119.413 164.322 118.534 164.621 117.453 164.621C116.372 164.621 115.493 164.322 114.816 163.723C114.139 163.124 113.801 162.355 113.801 161.418ZM131.32 171.379V188H124.738V166.867H130.91L131.32 171.379ZM130.539 176.711L128.996 176.75C128.996 175.135 129.191 173.697 129.582 172.434C129.973 171.158 130.526 170.077 131.242 169.191C131.958 168.306 132.811 167.635 133.801 167.18C134.803 166.711 135.917 166.477 137.141 166.477C138.117 166.477 139.009 166.62 139.816 166.906C140.637 167.193 141.34 167.655 141.926 168.293C142.525 168.931 142.98 169.777 143.293 170.832C143.618 171.874 143.781 173.163 143.781 174.699V188H137.16V174.68C137.16 173.833 137.043 173.189 136.809 172.746C136.574 172.29 136.236 171.978 135.793 171.809C135.35 171.639 134.81 171.555 134.172 171.555C133.495 171.555 132.922 171.685 132.453 171.945C131.984 172.206 131.607 172.57 131.32 173.039C131.047 173.495 130.845 174.035 130.715 174.66C130.598 175.285 130.539 175.969 130.539 176.711ZM160.715 166.867H166.691V187.18C166.691 189.133 166.242 190.786 165.344 192.141C164.445 193.508 163.189 194.543 161.574 195.246C159.973 195.962 158.098 196.32 155.949 196.32C154.999 196.32 154.029 196.197 153.039 195.949C152.049 195.715 151.125 195.363 150.266 194.895C149.406 194.426 148.684 193.846 148.098 193.156L150.852 189.289C151.385 189.888 152.056 190.396 152.863 190.812C153.671 191.242 154.621 191.457 155.715 191.457C156.665 191.457 157.46 191.288 158.098 190.949C158.749 190.611 159.243 190.116 159.582 189.465C159.921 188.827 160.09 188.052 160.09 187.141V171.867L160.715 166.867ZM146.672 177.688V177.277C146.672 175.676 146.867 174.217 147.258 172.902C147.661 171.574 148.234 170.435 148.977 169.484C149.732 168.521 150.643 167.779 151.711 167.258C152.779 166.737 153.983 166.477 155.324 166.477C156.77 166.477 157.954 166.757 158.879 167.316C159.816 167.863 160.565 168.632 161.125 169.621C161.698 170.611 162.141 171.77 162.453 173.098C162.779 174.413 163.052 175.832 163.273 177.355V177.844C163.052 179.276 162.746 180.63 162.355 181.906C161.978 183.169 161.483 184.289 160.871 185.266C160.259 186.242 159.491 187.01 158.566 187.57C157.655 188.117 156.561 188.391 155.285 188.391C153.957 188.391 152.759 188.124 151.691 187.59C150.637 187.056 149.732 186.307 148.977 185.344C148.234 184.38 147.661 183.247 147.258 181.945C146.867 180.643 146.672 179.224 146.672 177.688ZM153.254 177.277V177.688C153.254 178.482 153.326 179.217 153.469 179.895C153.625 180.572 153.859 181.171 154.172 181.691C154.484 182.199 154.868 182.596 155.324 182.883C155.793 183.169 156.34 183.312 156.965 183.312C157.915 183.312 158.684 183.111 159.27 182.707C159.855 182.303 160.279 181.73 160.539 180.988C160.799 180.246 160.91 179.374 160.871 178.371V176.828C160.897 175.969 160.839 175.214 160.695 174.562C160.552 173.898 160.324 173.345 160.012 172.902C159.712 172.46 159.309 172.128 158.801 171.906C158.306 171.672 157.707 171.555 157.004 171.555C156.392 171.555 155.852 171.698 155.383 171.984C154.914 172.271 154.523 172.674 154.211 173.195C153.898 173.703 153.658 174.309 153.488 175.012C153.332 175.702 153.254 176.457 153.254 177.277ZM190.676 188.391C188.957 188.391 187.421 188.124 186.066 187.59C184.712 187.043 183.566 186.294 182.629 185.344C181.704 184.393 180.995 183.299 180.5 182.062C180.018 180.826 179.777 179.517 179.777 178.137V177.395C179.777 175.845 179.992 174.413 180.422 173.098C180.852 171.77 181.49 170.611 182.336 169.621C183.182 168.632 184.243 167.863 185.52 167.316C186.796 166.757 188.28 166.477 189.973 166.477C191.47 166.477 192.811 166.717 193.996 167.199C195.181 167.681 196.184 168.371 197.004 169.27C197.837 170.168 198.469 171.255 198.898 172.531C199.341 173.807 199.562 175.24 199.562 176.828V179.504H182.297V175.383H193.137V174.875C193.15 174.172 193.026 173.573 192.766 173.078C192.518 172.583 192.154 172.206 191.672 171.945C191.19 171.685 190.604 171.555 189.914 171.555C189.198 171.555 188.605 171.711 188.137 172.023C187.681 172.336 187.323 172.766 187.062 173.312C186.815 173.846 186.639 174.465 186.535 175.168C186.431 175.871 186.379 176.613 186.379 177.395V178.137C186.379 178.918 186.483 179.628 186.691 180.266C186.913 180.904 187.225 181.451 187.629 181.906C188.046 182.349 188.54 182.694 189.113 182.941C189.699 183.189 190.363 183.312 191.105 183.312C192.004 183.312 192.889 183.143 193.762 182.805C194.634 182.466 195.383 181.906 196.008 181.125L198.996 184.68C198.566 185.292 197.954 185.884 197.16 186.457C196.379 187.03 195.441 187.499 194.348 187.863C193.254 188.215 192.03 188.391 190.676 188.391ZM210.305 188H203.684V165.148C203.684 163.508 204.016 162.128 204.68 161.008C205.344 159.888 206.281 159.042 207.492 158.469C208.703 157.883 210.135 157.59 211.789 157.59C212.362 157.59 212.902 157.629 213.41 157.707C213.918 157.785 214.413 157.883 214.895 158L214.914 162.844C214.68 162.779 214.439 162.733 214.191 162.707C213.944 162.681 213.638 162.668 213.273 162.668C212.635 162.668 212.095 162.766 211.652 162.961C211.21 163.143 210.871 163.423 210.637 163.801C210.415 164.165 210.305 164.615 210.305 165.148V188ZM214.406 166.867V171.438H200.637V166.867H214.406ZM224.836 188H218.215V165.148C218.215 163.508 218.547 162.128 219.211 161.008C219.875 159.888 220.812 159.042 222.023 158.469C223.234 157.883 224.667 157.59 226.32 157.59C226.893 157.59 227.434 157.629 227.941 157.707C228.449 157.785 228.944 157.883 229.426 158L229.445 162.844C229.211 162.779 228.97 162.733 228.723 162.707C228.475 162.681 228.169 162.668 227.805 162.668C227.167 162.668 226.626 162.766 226.184 162.961C225.741 163.143 225.402 163.423 225.168 163.801C224.947 164.165 224.836 164.615 224.836 165.148V188ZM228.938 166.867V171.438H215.168V166.867H228.938ZM230.48 177.648V177.238C230.48 175.689 230.702 174.263 231.145 172.961C231.587 171.646 232.238 170.507 233.098 169.543C233.957 168.579 235.018 167.831 236.281 167.297C237.544 166.75 239.003 166.477 240.656 166.477C242.323 166.477 243.788 166.75 245.051 167.297C246.327 167.831 247.395 168.579 248.254 169.543C249.113 170.507 249.764 171.646 250.207 172.961C250.65 174.263 250.871 175.689 250.871 177.238V177.648C250.871 179.185 250.65 180.611 250.207 181.926C249.764 183.228 249.113 184.367 248.254 185.344C247.395 186.307 246.333 187.056 245.07 187.59C243.807 188.124 242.349 188.391 240.695 188.391C239.042 188.391 237.577 188.124 236.301 187.59C235.025 187.056 233.957 186.307 233.098 185.344C232.238 184.367 231.587 183.228 231.145 181.926C230.702 180.611 230.48 179.185 230.48 177.648ZM237.062 177.238V177.648C237.062 178.443 237.121 179.185 237.238 179.875C237.355 180.565 237.551 181.171 237.824 181.691C238.098 182.199 238.469 182.596 238.938 182.883C239.406 183.169 239.992 183.312 240.695 183.312C241.385 183.312 241.958 183.169 242.414 182.883C242.883 182.596 243.254 182.199 243.527 181.691C243.801 181.171 243.996 180.565 244.113 179.875C244.23 179.185 244.289 178.443 244.289 177.648V177.238C244.289 176.47 244.23 175.747 244.113 175.07C243.996 174.38 243.801 173.775 243.527 173.254C243.254 172.72 242.883 172.303 242.414 172.004C241.945 171.704 241.359 171.555 240.656 171.555C239.966 171.555 239.387 171.704 238.918 172.004C238.462 172.303 238.098 172.72 237.824 173.254C237.551 173.775 237.355 174.38 237.238 175.07C237.121 175.747 237.062 176.47 237.062 177.238ZM260.441 172.102V188H253.859V166.867H260.012L260.441 172.102ZM266.691 166.711L266.574 172.824C266.314 172.798 265.962 172.766 265.52 172.727C265.077 172.688 264.706 172.668 264.406 172.668C263.638 172.668 262.974 172.759 262.414 172.941C261.867 173.111 261.411 173.371 261.047 173.723C260.695 174.061 260.435 174.491 260.266 175.012C260.109 175.533 260.038 176.138 260.051 176.828L258.859 176.047C258.859 174.628 258.996 173.339 259.27 172.18C259.556 171.008 259.96 169.999 260.48 169.152C261.001 168.293 261.633 167.635 262.375 167.18C263.117 166.711 263.951 166.477 264.875 166.477C265.201 166.477 265.52 166.496 265.832 166.535C266.158 166.574 266.444 166.633 266.691 166.711ZM281.066 166.867V171.438H268.332V166.867H281.066ZM271.008 161.613H277.59V181.105C277.59 181.665 277.655 182.102 277.785 182.414C277.915 182.714 278.137 182.928 278.449 183.059C278.775 183.176 279.204 183.234 279.738 183.234C280.116 183.234 280.428 183.228 280.676 183.215C280.923 183.189 281.158 183.156 281.379 183.117V187.824C280.819 188.007 280.233 188.143 279.621 188.234C279.009 188.339 278.358 188.391 277.668 188.391C276.262 188.391 275.057 188.169 274.055 187.727C273.065 187.284 272.31 186.587 271.789 185.637C271.268 184.686 271.008 183.449 271.008 181.926V161.613Z" fill="white"/>
<defs>
<linearGradient id="paint0_linear_1691_985" x1="196.5" y1="19" x2="196.5" y2="369" gradientUnits="userSpaceOnUse">
<stop stop-color="#25F68D"/>
<stop offset="1" stop-color="#1BC0F2"/>
</linearGradient>
</defs>
</svg>
